<svg width="803" height="160" viewBox="0 0 803 160" fill="none" xmlns="http://www.w3.org/2000/svg">
<path d="M115.946 52.5571V71.3138H109.922V52.5571H115.946ZM110.524 70.7117H115.344V53.1592H110.524V70.7117Z" fill="#646464"/>
<path d="M225.407 0.00390625C225.749 4.36299 225.924 8.76902 225.924 13.2157C225.924 43.8521 217.67 72.56 203.266 97.239L203.267 97.2402C202.037 99.3469 200.762 101.423 199.444 103.47C199.443 103.472 199.442 103.474 199.441 103.475C199.259 103.759 199.075 104.041 198.891 104.323C198.827 104.42 198.763 104.517 198.7 104.614C198.562 104.824 198.425 105.033 198.287 105.242C198.212 105.355 198.137 105.467 198.062 105.58C197.898 105.827 197.733 106.074 197.567 106.32C197.497 106.425 197.426 106.529 197.355 106.634C197.192 106.874 197.029 107.114 196.865 107.354C196.829 107.407 196.792 107.461 196.755 107.514C195.485 109.367 194.178 111.192 192.836 112.99C192.791 113.05 192.746 113.11 192.701 113.17C192.529 113.4 192.356 113.629 192.184 113.857C192.104 113.962 192.026 114.066 191.947 114.171C191.767 114.406 191.587 114.641 191.407 114.876C191.358 114.94 191.308 115.004 191.259 115.067C191.068 115.316 190.876 115.564 190.683 115.811C190.633 115.875 190.582 115.939 190.532 116.003C190.324 116.269 190.115 116.535 189.904 116.801C189.885 116.825 189.866 116.849 189.847 116.873C189.626 117.153 189.403 117.431 189.179 117.709C189.135 117.765 189.09 117.82 189.045 117.875C187.641 119.617 186.203 121.331 184.732 123.015C184.682 123.072 184.633 123.129 184.583 123.185C184.398 123.396 184.213 123.606 184.028 123.816C183.947 123.906 183.867 123.997 183.786 124.088C183.607 124.29 183.427 124.492 183.246 124.693C183.128 124.824 183.009 124.956 182.891 125.087C182.722 125.273 182.554 125.459 182.384 125.645C182.321 125.715 182.257 125.784 182.193 125.854C181.982 126.085 181.77 126.316 181.557 126.546C181.482 126.627 181.407 126.708 181.331 126.789C181.142 126.993 180.953 127.197 180.762 127.4C180.655 127.514 180.548 127.627 180.441 127.74C179.709 128.516 178.971 129.286 178.225 130.047C180.034 137.203 181.383 144.544 182.234 152.034C173.617 147.691 163.88 145.244 153.572 145.244C147.41 145.244 141.452 146.119 135.816 147.75C127.317 150.247 119.556 154.466 112.935 160.004C104.464 152.918 94.1256 147.992 82.7656 146.069C79.2818 145.48 75.702 145.172 72.0504 145.172C71.7109 145.172 71.372 145.176 71.0338 145.181C70.62 145.191 70.2054 145.204 69.7901 145.221C59.4911 145.658 49.866 148.514 41.4408 153.219C42.0633 144.443 43.3687 135.842 45.3069 127.474C42.8898 124.901 40.553 122.251 38.3014 119.528C37.8552 118.988 37.4132 118.445 36.9737 117.9C36.9264 117.842 36.8786 117.783 36.8314 117.724C35.6572 116.264 34.5076 114.783 33.3822 113.283C33.3307 113.214 33.2789 113.146 33.2275 113.077C29.4264 107.994 25.9079 102.687 22.6964 97.1784L22.6976 97.1773C8.31583 72.5121 0.0759277 43.8265 0.0759277 13.2157C0.0759277 8.76902 0.250898 4.36298 0.592194 0.00390625C42.0812 4.56045 76.1667 33.7162 87.9488 72.5705C95.1337 71.4922 102.468 70.8702 109.922 70.7383V61.91C106.203 60.6541 103.526 57.1376 103.526 52.9953C103.526 47.7994 107.738 43.5867 112.934 43.5867C118.13 43.5868 122.342 47.7994 122.342 52.9953C122.342 57.1377 119.665 60.6542 115.946 61.91V70.7383C123.443 70.871 130.82 71.4994 138.044 72.5893C149.821 33.7255 183.912 4.5612 225.407 0.00390625Z" fill="#FB3B2E"/>
<path d="M104.805 119.233C104.805 124.429 100.593 128.641 95.3973 128.641C90.2014 128.641 85.9893 124.429 85.9893 119.233C85.9893 114.037 90.2014 109.825 95.3973 109.825C100.593 109.825 104.805 114.037 104.805 119.233Z" fill="white"/>
<path d="M139.879 119.233C139.879 124.429 135.667 128.641 130.471 128.641C125.275 128.641 121.063 124.429 121.063 119.233C121.063 114.037 125.275 109.825 130.471 109.825C135.667 109.825 139.879 114.037 139.879 119.233Z" fill="white"/>
<path d="M261.124 139.004L306.404 26.5239H324.164L369.284 139.004H346.084L311.204 46.6839H319.204L283.844 139.004H261.124ZM285.124 118.044V99.8039H345.604V118.044H285.124ZM380.925 139.004V53.4039C380.925 47.2172 382.258 41.7772 384.925 37.0839C387.592 32.2839 391.378 28.4972 396.285 25.7239C401.192 22.9506 406.952 21.5639 413.565 21.5639C418.578 21.5639 422.898 22.4172 426.525 24.1239C430.152 25.8306 433.405 28.1772 436.285 31.1639L423.005 44.6039C421.832 43.4306 420.552 42.5239 419.165 41.8839C417.778 41.2439 416.018 40.9239 413.885 40.9239C410.045 40.9239 407.058 41.9906 404.925 44.1239C402.898 46.1506 401.885 49.0839 401.885 52.9239V139.004H380.925ZM363.005 80.1239V61.7239H424.765V80.1239H363.005ZM430.104 139.004V61.7239H451.064V139.004H430.104ZM451.064 96.2839L442.904 90.8439C443.864 81.3506 446.637 73.8839 451.224 68.4439C455.81 62.8972 462.424 60.1239 471.064 60.1239C474.797 60.1239 478.157 60.7639 481.144 62.0439C484.13 63.2172 486.85 65.1906 489.304 67.9639L476.184 83.0039C475.01 81.7239 473.57 80.7639 471.864 80.1239C470.264 79.4839 468.397 79.1639 466.264 79.1639C461.784 79.1639 458.104 80.6039 455.224 83.4839C452.45 86.2572 451.064 90.5239 451.064 96.2839ZM525.999 140.604C518.212 140.604 511.172 138.844 504.879 135.324C498.692 131.697 493.732 126.844 489.999 120.764C486.372 114.577 484.559 107.697 484.559 100.124C484.559 92.5506 486.372 85.7772 489.999 79.8039C493.626 73.7239 498.586 68.9239 504.879 65.4039C511.172 61.7772 518.159 59.9639 525.839 59.9639C533.732 59.9639 540.772 61.7772 546.959 65.4039C553.252 68.9239 558.212 73.7239 561.839 79.8039C565.466 85.7772 567.279 92.5506 567.279 100.124C567.279 107.697 565.466 114.577 561.839 120.764C558.212 126.844 553.252 131.697 546.959 135.324C540.772 138.844 533.786 140.604 525.999 140.604ZM525.839 121.084C529.786 121.084 533.252 120.231 536.239 118.524C539.332 116.711 541.679 114.257 543.279 111.164C544.986 107.964 545.839 104.337 545.839 100.284C545.839 96.2306 544.986 92.6572 543.279 89.5639C541.572 86.4706 539.226 84.0706 536.239 82.3639C533.252 80.5506 529.786 79.6439 525.839 79.6439C521.999 79.6439 518.586 80.5506 515.599 82.3639C512.612 84.0706 510.266 86.4706 508.559 89.5639C506.852 92.6572 505.999 96.2306 505.999 100.284C505.999 104.337 506.852 107.964 508.559 111.164C510.266 114.257 512.612 116.711 515.599 118.524C518.586 120.231 521.999 121.084 525.839 121.084ZM618.853 140.604C613.306 140.604 608.293 139.431 603.813 137.084C599.333 134.737 595.759 131.537 593.093 127.484C590.426 123.431 588.986 118.897 588.773 113.884V86.3639C588.986 81.3506 590.426 76.8706 593.093 72.9239C595.866 68.8706 599.493 65.7239 603.973 63.4839C608.453 61.2439 613.413 60.1239 618.853 60.1239C625.999 60.1239 632.399 61.8839 638.053 65.4039C643.706 68.9239 648.133 73.7239 651.333 79.8039C654.639 85.8839 656.293 92.7639 656.293 100.444C656.293 108.017 654.639 114.844 651.333 120.924C648.133 127.004 643.706 131.804 638.053 135.324C632.399 138.844 625.999 140.604 618.853 140.604ZM575.973 139.004V23.3239H596.933V80.7639L593.413 99.3239L596.773 118.204V139.004H575.973ZM615.333 121.244C619.173 121.244 622.533 120.391 625.413 118.684C628.399 116.871 630.693 114.417 632.293 111.324C633.999 108.124 634.853 104.444 634.853 100.284C634.853 96.2306 633.999 92.6572 632.293 89.5639C630.693 86.3639 628.399 83.9106 625.413 82.2039C622.426 80.3906 619.013 79.4839 615.173 79.4839C611.333 79.4839 607.919 80.3906 604.933 82.2039C602.053 83.9106 599.759 86.3639 598.053 89.5639C596.453 92.6572 595.653 96.2306 595.653 100.284C595.653 104.444 596.453 108.124 598.053 111.324C599.759 114.417 602.106 116.871 605.093 118.684C608.079 120.391 611.493 121.244 615.333 121.244ZM701.555 140.604C693.768 140.604 686.728 138.844 680.435 135.324C674.248 131.697 669.288 126.844 665.555 120.764C661.928 114.577 660.115 107.697 660.115 100.124C660.115 92.5506 661.928 85.7772 665.555 79.8039C669.182 73.7239 674.142 68.9239 680.435 65.4039C686.728 61.7772 693.715 59.9639 701.395 59.9639C709.288 59.9639 716.328 61.7772 722.515 65.4039C728.808 68.9239 733.768 73.7239 737.395 79.8039C741.022 85.7772 742.835 92.5506 742.835 100.124C742.835 107.697 741.022 114.577 737.395 120.764C733.768 126.844 728.808 131.697 722.515 135.324C716.328 138.844 709.342 140.604 701.555 140.604ZM701.395 121.084C705.342 121.084 708.808 120.231 711.795 118.524C714.888 116.711 717.235 114.257 718.835 111.164C720.542 107.964 721.395 104.337 721.395 100.284C721.395 96.2306 720.542 92.6572 718.835 89.5639C717.128 86.4706 714.782 84.0706 711.795 82.3639C708.808 80.5506 705.342 79.6439 701.395 79.6439C697.555 79.6439 694.142 80.5506 691.155 82.3639C688.168 84.0706 685.822 86.4706 684.115 89.5639C682.408 92.6572 681.555 96.2306 681.555 100.284C681.555 104.337 682.408 107.964 684.115 111.164C685.822 114.257 688.168 116.711 691.155 118.524C694.142 120.231 697.555 121.084 701.395 121.084ZM761.014 139.004V29.5639H781.974V139.004H761.014ZM742.934 80.1239V61.7239H800.054V80.1239H742.934Z" fill="#393939"/>
</svg>
