<svg width="205" height="204" viewBox="0 0 205 204" fill="none" xmlns="http://www.w3.org/2000/svg">
<path d="M95.6806 6.16512C95.4348 3.39285 97.5907 0.993326 100.373 0.94203L104.746 0.861431C107.538 0.809961 109.784 3.14362 109.626 5.93172L107.921 36.0866C107.584 42.0293 98.8726 42.1683 98.347 36.2393L95.6806 6.16512Z" fill="url(#paint0_radial_26_60)"/>
<path d="M144.571 15.5721C145.745 13.0484 148.812 12.0483 151.247 13.3952L155.074 15.5115C157.518 16.863 158.296 20.0072 156.766 22.3429L140.211 47.6048C136.948 52.5833 129.334 48.3478 131.843 42.9504L144.571 15.5721Z" fill="url(#paint1_radial_26_60)"/>
<path d="M182.209 48.1643C184.487 46.5653 187.643 47.2326 189.078 49.6168L191.334 53.3629C192.775 55.7552 191.877 58.8675 189.384 60.125L162.416 73.7251C157.101 76.4053 152.625 68.9302 157.497 65.5105L182.209 48.1643Z" fill="url(#paint2_radial_26_60)"/>
<path d="M198.507 95.2085C201.28 94.9627 203.679 97.1186 203.73 99.9012L203.811 104.273C203.862 107.066 201.529 109.312 198.741 109.154L168.586 107.448C162.643 107.112 162.504 98.4005 168.433 97.8748L198.507 95.2085Z" fill="url(#paint3_radial_26_60)"/>
<path d="M189.1 144.099C191.624 145.273 192.624 148.339 191.277 150.775L189.161 154.602C187.809 157.045 184.665 157.824 182.33 156.293L157.068 139.739C152.089 136.476 156.325 128.862 161.722 131.371L189.1 144.099Z" fill="url(#paint4_radial_26_60)"/>
<path d="M156.508 181.736C158.107 184.014 157.44 187.17 155.056 188.606L151.31 190.862C148.917 192.303 145.805 191.405 144.547 188.911L130.947 161.944C128.267 156.629 135.742 152.153 139.162 157.025L156.508 181.736Z" fill="url(#paint5_radial_26_60)"/>
<path d="M109.464 198.035C109.71 200.807 107.554 203.207 104.771 203.258L100.399 203.339C97.6069 203.39 95.3605 201.057 95.5182 198.269L97.224 168.114C97.5602 162.171 106.272 162.032 106.798 167.961L109.464 198.035Z" fill="url(#paint6_radial_26_60)"/>
<path d="M60.5732 188.628C59.3999 191.152 56.3331 192.152 53.8975 190.805L50.0708 188.689C47.627 187.337 46.8484 184.193 48.379 181.857L64.9338 156.595C68.1963 151.617 75.8104 155.852 73.3011 161.25L60.5732 188.628Z" fill="url(#paint7_radial_26_60)"/>
<path d="M22.936 156.036C20.658 157.635 17.502 156.968 16.0663 154.583L13.8103 150.837C12.3697 148.445 13.2675 145.333 15.7609 144.075L42.7287 130.475C48.0434 127.795 52.5197 135.27 47.6478 138.69L22.936 156.036Z" fill="url(#paint8_radial_26_60)"/>
<path d="M6.63729 108.992C3.86501 109.238 1.46549 107.082 1.4142 104.299L1.3336 99.9268C1.28213 97.1347 3.61578 94.8883 6.40389 95.046L36.5587 96.7519C42.5014 97.0881 42.6405 105.8 36.7115 106.325L6.63729 108.992Z" fill="url(#paint9_radial_26_60)"/>
<path d="M16.0443 60.101C13.5205 58.9277 12.5204 55.8609 13.8674 53.4254L15.9837 49.5986C17.3351 47.1549 20.4794 46.3762 22.8151 47.9069L48.077 64.4616C53.0554 67.7241 48.82 75.3382 43.4225 72.829L16.0443 60.101Z" fill="url(#paint10_radial_26_60)"/>
<path d="M48.6364 22.4638C47.0374 20.1858 47.7047 17.0298 50.089 15.5941L53.8351 13.3382C56.2274 11.8976 59.3397 12.7953 60.5972 15.2888L74.1973 42.2566C76.8775 47.5712 69.4024 52.0475 65.9827 47.1757L48.6364 22.4638Z" fill="url(#paint11_radial_26_60)"/>
<path d="M118.031 27.72C118.571 24.8781 121.463 23.1383 124.227 23.9928C126.814 24.7924 128.245 27.5552 127.405 30.1292L103.827 102.429L118.031 27.72Z" fill="url(#paint12_radial_26_60)"/>
<path d="M153.28 45.1808C155.169 42.9898 158.544 42.9292 160.51 45.051C162.35 47.0369 162.208 50.1449 160.194 51.9544L103.625 102.779L153.28 45.1808Z" fill="url(#paint13_radial_26_60)"/>
<path d="M175.077 77.927C177.808 76.974 180.761 78.6089 181.403 81.4296C182.004 84.0695 180.327 86.69 177.678 87.2501L103.275 102.981L175.077 77.927Z" fill="url(#paint14_radial_26_60)"/>
<path d="M177.58 117.184C180.422 117.725 182.162 120.617 181.308 123.381C180.508 125.967 177.745 127.398 175.171 126.559L102.871 102.981L177.58 117.184Z" fill="url(#paint15_radial_26_60)"/>
<path d="M160.119 152.434C162.31 154.323 162.371 157.698 160.249 159.664C158.263 161.504 155.155 161.362 153.346 159.348L102.521 102.779L160.119 152.434Z" fill="url(#paint16_radial_26_60)"/>
<path d="M127.373 174.231C128.326 176.962 126.691 179.915 123.871 180.557C121.231 181.157 118.61 179.48 118.05 176.831L102.319 102.429L127.373 174.231Z" fill="url(#paint17_radial_26_60)"/>
<path d="M88.1158 176.734C87.5756 179.576 84.6833 181.316 81.9195 180.461C79.3329 179.661 77.9021 176.899 78.7415 174.325L102.319 102.025L88.1158 176.734Z" fill="url(#paint18_radial_26_60)"/>
<path d="M52.8663 159.273C50.9775 161.464 47.6027 161.525 45.6365 159.403C43.7963 157.417 43.9385 154.309 45.9525 152.499L102.521 101.675L52.8663 159.273Z" fill="url(#paint19_radial_26_60)"/>
<path d="M31.0697 126.527C28.3384 127.48 25.3855 125.845 24.7436 123.024C24.1429 120.384 25.8201 117.764 28.4689 117.204L102.871 101.473L31.0697 126.527Z" fill="url(#paint20_radial_26_60)"/>
<path d="M28.5664 87.2695C25.7245 86.7292 23.9847 83.8369 24.8391 81.0731C25.6388 78.4865 28.4016 77.0557 30.9756 77.8951L103.275 101.473L28.5664 87.2695Z" fill="url(#paint21_radial_26_60)"/>
<path d="M46.0272 52.0199C43.8362 50.1311 43.7756 46.7564 45.8974 44.7901C47.8833 42.9499 50.9913 43.0921 52.8008 45.1061L103.625 101.675L46.0272 52.0199Z" fill="url(#paint22_radial_26_60)"/>
<path d="M78.7735 30.2233C77.8204 27.492 79.4553 24.5391 82.276 23.8972C84.9159 23.2965 87.5364 24.9737 88.0965 27.6225L103.827 102.025L78.7735 30.2233Z" fill="url(#paint23_radial_26_60)"/>
<path d="M72.1676 66.7424C70.4003 66.7424 68.9676 68.1751 68.9676 69.9424V133.933C68.9676 135.7 70.4003 137.133 72.1676 137.133H136.158C137.925 137.133 139.358 135.7 139.358 133.933V69.9424C139.358 68.1751 137.925 66.7424 136.158 66.7424H72.1676ZM86.2555 87.2311C86.2555 85.4638 87.6882 84.0311 89.4555 84.0311H118.868C120.635 84.0311 122.068 85.4638 122.068 87.2311V116.644C122.068 118.411 120.635 119.844 118.868 119.844H89.4555C87.6882 119.844 86.2555 118.411 86.2555 116.644V87.2311Z" fill="#E85102"/>
<defs>
<radialGradient id="paint0_radial_26_60" cx="0" cy="0" r="1" gradientUnits="userSpaceOnUse" gradientTransform="translate(102.572 102.1) rotate(90) scale(83.7881 101.24)">
<stop offset="0.552885" stop-color="#E85102" stop-opacity="0"/>
<stop offset="0.745192" stop-color="#E85102" stop-opacity="0.3"/>
<stop offset="0.846154" stop-color="#E85102" stop-opacity="0.6"/>
<stop offset="1" stop-color="#E85102"/>
</radialGradient>
<radialGradient id="paint1_radial_26_60" cx="0" cy="0" r="1" gradientUnits="userSpaceOnUse" gradientTransform="translate(102.572 102.1) rotate(90) scale(83.7881 101.24)">
<stop offset="0.552885" stop-color="#E85102" stop-opacity="0"/>
<stop offset="0.745192" stop-color="#E85102" stop-opacity="0.3"/>
<stop offset="0.846154" stop-color="#E85102" stop-opacity="0.6"/>
<stop offset="1" stop-color="#E85102"/>
</radialGradient>
<radialGradient id="paint2_radial_26_60" cx="0" cy="0" r="1" gradientUnits="userSpaceOnUse" gradientTransform="translate(102.572 102.1) rotate(90) scale(83.7881 101.24)">
<stop offset="0.552885" stop-color="#E85102" stop-opacity="0"/>
<stop offset="0.745192" stop-color="#E85102" stop-opacity="0.3"/>
<stop offset="0.846154" stop-color="#E85102" stop-opacity="0.6"/>
<stop offset="1" stop-color="#E85102"/>
</radialGradient>
<radialGradient id="paint3_radial_26_60" cx="0" cy="0" r="1" gradientUnits="userSpaceOnUse" gradientTransform="translate(102.572 102.1) rotate(90) scale(83.7881 101.24)">
<stop offset="0.552885" stop-color="#E85102" stop-opacity="0"/>
<stop offset="0.745192" stop-color="#E85102" stop-opacity="0.3"/>
<stop offset="0.846154" stop-color="#E85102" stop-opacity="0.6"/>
<stop offset="1" stop-color="#E85102"/>
</radialGradient>
<radialGradient id="paint4_radial_26_60" cx="0" cy="0" r="1" gradientUnits="userSpaceOnUse" gradientTransform="translate(102.572 102.1) rotate(90) scale(83.7881 101.24)">
<stop offset="0.552885" stop-color="#E85102" stop-opacity="0"/>
<stop offset="0.745192" stop-color="#E85102" stop-opacity="0.3"/>
<stop offset="0.846154" stop-color="#E85102" stop-opacity="0.6"/>
<stop offset="1" stop-color="#E85102"/>
</radialGradient>
<radialGradient id="paint5_radial_26_60" cx="0" cy="0" r="1" gradientUnits="userSpaceOnUse" gradientTransform="translate(102.572 102.1) rotate(90) scale(83.7881 101.24)">
<stop offset="0.552885" stop-color="#E85102" stop-opacity="0"/>
<stop offset="0.745192" stop-color="#E85102" stop-opacity="0.3"/>
<stop offset="0.846154" stop-color="#E85102" stop-opacity="0.6"/>
<stop offset="1" stop-color="#E85102"/>
</radialGradient>
<radialGradient id="paint6_radial_26_60" cx="0" cy="0" r="1" gradientUnits="userSpaceOnUse" gradientTransform="translate(102.572 102.1) rotate(90) scale(83.7881 101.24)">
<stop offset="0.552885" stop-color="#E85102" stop-opacity="0"/>
<stop offset="0.745192" stop-color="#E85102" stop-opacity="0.3"/>
<stop offset="0.846154" stop-color="#E85102" stop-opacity="0.6"/>
<stop offset="1" stop-color="#E85102"/>
</radialGradient>
<radialGradient id="paint7_radial_26_60" cx="0" cy="0" r="1" gradientUnits="userSpaceOnUse" gradientTransform="translate(102.572 102.1) rotate(90) scale(83.7881 101.24)">
<stop offset="0.552885" stop-color="#E85102" stop-opacity="0"/>
<stop offset="0.745192" stop-color="#E85102" stop-opacity="0.3"/>
<stop offset="0.846154" stop-color="#E85102" stop-opacity="0.6"/>
<stop offset="1" stop-color="#E85102"/>
</radialGradient>
<radialGradient id="paint8_radial_26_60" cx="0" cy="0" r="1" gradientUnits="userSpaceOnUse" gradientTransform="translate(102.572 102.1) rotate(90) scale(83.7881 101.24)">
<stop offset="0.552885" stop-color="#E85102" stop-opacity="0"/>
<stop offset="0.745192" stop-color="#E85102" stop-opacity="0.3"/>
<stop offset="0.846154" stop-color="#E85102" stop-opacity="0.6"/>
<stop offset="1" stop-color="#E85102"/>
</radialGradient>
<radialGradient id="paint9_radial_26_60" cx="0" cy="0" r="1" gradientUnits="userSpaceOnUse" gradientTransform="translate(102.572 102.1) rotate(90) scale(83.7881 101.24)">
<stop offset="0.552885" stop-color="#E85102" stop-opacity="0"/>
<stop offset="0.745192" stop-color="#E85102" stop-opacity="0.3"/>
<stop offset="0.846154" stop-color="#E85102" stop-opacity="0.6"/>
<stop offset="1" stop-color="#E85102"/>
</radialGradient>
<radialGradient id="paint10_radial_26_60" cx="0" cy="0" r="1" gradientUnits="userSpaceOnUse" gradientTransform="translate(102.572 102.1) rotate(90) scale(83.7881 101.24)">
<stop offset="0.552885" stop-color="#E85102" stop-opacity="0"/>
<stop offset="0.745192" stop-color="#E85102" stop-opacity="0.3"/>
<stop offset="0.846154" stop-color="#E85102" stop-opacity="0.6"/>
<stop offset="1" stop-color="#E85102"/>
</radialGradient>
<radialGradient id="paint11_radial_26_60" cx="0" cy="0" r="1" gradientUnits="userSpaceOnUse" gradientTransform="translate(102.572 102.1) rotate(90) scale(83.7881 101.24)">
<stop offset="0.552885" stop-color="#E85102" stop-opacity="0"/>
<stop offset="0.745192" stop-color="#E85102" stop-opacity="0.3"/>
<stop offset="0.846154" stop-color="#E85102" stop-opacity="0.6"/>
<stop offset="1" stop-color="#E85102"/>
</radialGradient>
<radialGradient id="paint12_radial_26_60" cx="0" cy="0" r="1" gradientUnits="userSpaceOnUse" gradientTransform="translate(103.073 101.154) rotate(-103.93) scale(79.7242 80.8295)">
<stop offset="0.466346" stop-color="#E85102" stop-opacity="0"/>
<stop offset="0.629808" stop-color="#E85102" stop-opacity="0.3"/>
<stop offset="0.788462" stop-color="#E85102" stop-opacity="0.6"/>
<stop offset="1" stop-color="#E85102"/>
</radialGradient>
<radialGradient id="paint13_radial_26_60" cx="0" cy="0" r="1" gradientUnits="userSpaceOnUse" gradientTransform="translate(103.073 101.154) rotate(-103.93) scale(79.7242 80.8295)">
<stop offset="0.466346" stop-color="#E85102" stop-opacity="0"/>
<stop offset="0.629808" stop-color="#E85102" stop-opacity="0.3"/>
<stop offset="0.788462" stop-color="#E85102" stop-opacity="0.6"/>
<stop offset="1" stop-color="#E85102"/>
</radialGradient>
<radialGradient id="paint14_radial_26_60" cx="0" cy="0" r="1" gradientUnits="userSpaceOnUse" gradientTransform="translate(103.073 101.154) rotate(-103.93) scale(79.7242 80.8295)">
<stop offset="0.466346" stop-color="#E85102" stop-opacity="0"/>
<stop offset="0.629808" stop-color="#E85102" stop-opacity="0.3"/>
<stop offset="0.788462" stop-color="#E85102" stop-opacity="0.6"/>
<stop offset="1" stop-color="#E85102"/>
</radialGradient>
<radialGradient id="paint15_radial_26_60" cx="0" cy="0" r="1" gradientUnits="userSpaceOnUse" gradientTransform="translate(103.073 101.154) rotate(-103.93) scale(79.7242 80.8295)">
<stop offset="0.466346" stop-color="#E85102" stop-opacity="0"/>
<stop offset="0.629808" stop-color="#E85102" stop-opacity="0.3"/>
<stop offset="0.788462" stop-color="#E85102" stop-opacity="0.6"/>
<stop offset="1" stop-color="#E85102"/>
</radialGradient>
<radialGradient id="paint16_radial_26_60" cx="0" cy="0" r="1" gradientUnits="userSpaceOnUse" gradientTransform="translate(103.073 101.154) rotate(-103.93) scale(79.7242 80.8295)">
<stop offset="0.466346" stop-color="#E85102" stop-opacity="0"/>
<stop offset="0.629808" stop-color="#E85102" stop-opacity="0.3"/>
<stop offset="0.788462" stop-color="#E85102" stop-opacity="0.6"/>
<stop offset="1" stop-color="#E85102"/>
</radialGradient>
<radialGradient id="paint17_radial_26_60" cx="0" cy="0" r="1" gradientUnits="userSpaceOnUse" gradientTransform="translate(103.073 101.154) rotate(-103.93) scale(79.7242 80.8295)">
<stop offset="0.466346" stop-color="#E85102" stop-opacity="0"/>
<stop offset="0.629808" stop-color="#E85102" stop-opacity="0.3"/>
<stop offset="0.788462" stop-color="#E85102" stop-opacity="0.6"/>
<stop offset="1" stop-color="#E85102"/>
</radialGradient>
<radialGradient id="paint18_radial_26_60" cx="0" cy="0" r="1" gradientUnits="userSpaceOnUse" gradientTransform="translate(103.073 101.154) rotate(-103.93) scale(79.7242 80.8295)">
<stop offset="0.466346" stop-color="#E85102" stop-opacity="0"/>
<stop offset="0.629808" stop-color="#E85102" stop-opacity="0.3"/>
<stop offset="0.788462" stop-color="#E85102" stop-opacity="0.6"/>
<stop offset="1" stop-color="#E85102"/>
</radialGradient>
<radialGradient id="paint19_radial_26_60" cx="0" cy="0" r="1" gradientUnits="userSpaceOnUse" gradientTransform="translate(103.073 101.154) rotate(-103.93) scale(79.7242 80.8295)">
<stop offset="0.466346" stop-color="#E85102" stop-opacity="0"/>
<stop offset="0.629808" stop-color="#E85102" stop-opacity="0.3"/>
<stop offset="0.788462" stop-color="#E85102" stop-opacity="0.6"/>
<stop offset="1" stop-color="#E85102"/>
</radialGradient>
<radialGradient id="paint20_radial_26_60" cx="0" cy="0" r="1" gradientUnits="userSpaceOnUse" gradientTransform="translate(103.073 101.154) rotate(-103.93) scale(79.7242 80.8295)">
<stop offset="0.466346" stop-color="#E85102" stop-opacity="0"/>
<stop offset="0.629808" stop-color="#E85102" stop-opacity="0.3"/>
<stop offset="0.788462" stop-color="#E85102" stop-opacity="0.6"/>
<stop offset="1" stop-color="#E85102"/>
</radialGradient>
<radialGradient id="paint21_radial_26_60" cx="0" cy="0" r="1" gradientUnits="userSpaceOnUse" gradientTransform="translate(103.073 101.154) rotate(-103.93) scale(79.7242 80.8295)">
<stop offset="0.466346" stop-color="#E85102" stop-opacity="0"/>
<stop offset="0.629808" stop-color="#E85102" stop-opacity="0.3"/>
<stop offset="0.788462" stop-color="#E85102" stop-opacity="0.6"/>
<stop offset="1" stop-color="#E85102"/>
</radialGradient>
<radialGradient id="paint22_radial_26_60" cx="0" cy="0" r="1" gradientUnits="userSpaceOnUse" gradientTransform="translate(103.073 101.154) rotate(-103.93) scale(79.7242 80.8295)">
<stop offset="0.466346" stop-color="#E85102" stop-opacity="0"/>
<stop offset="0.629808" stop-color="#E85102" stop-opacity="0.3"/>
<stop offset="0.788462" stop-color="#E85102" stop-opacity="0.6"/>
<stop offset="1" stop-color="#E85102"/>
</radialGradient>
<radialGradient id="paint23_radial_26_60" cx="0" cy="0" r="1" gradientUnits="userSpaceOnUse" gradientTransform="translate(103.073 101.154) rotate(-103.93) scale(79.7242 80.8295)">
<stop offset="0.466346" stop-color="#E85102" stop-opacity="0"/>
<stop offset="0.629808" stop-color="#E85102" stop-opacity="0.3"/>
<stop offset="0.788462" stop-color="#E85102" stop-opacity="0.6"/>
<stop offset="1" stop-color="#E85102"/>
</radialGradient>
</defs>
</svg>
