<svg width="50" height="50" viewBox="0 0 50 50" fill="none" xmlns="http://www.w3.org/2000/svg" xmlns:xlink="http://www.w3.org/1999/xlink">
<g id="Repeat group 1_inner" data-figma-trr="r12u1-0f">
<path d="M23.3986 1.48333C23.3391 0.812438 23.8608 0.231754 24.5343 0.21934L25.5923 0.199835C26.268 0.187379 26.8117 0.752124 26.7735 1.42685L26.3607 8.72432C26.2793 10.1625 24.1711 10.1961 24.0439 8.76129L23.3986 1.48333Z" fill="url(#paint0_linear_609_468)"/>
</g>
<use xlink:href="#Repeat%20group%201_inner" transform="translate(15.5876 -8.99958) rotate(30)"/>
<use xlink:href="#Repeat%20group%201_inner" transform="translate(33.5867 -8.99963) rotate(60)"/>
<use xlink:href="#Repeat%20group%201_inner" transform="translate(49.1744 -0.000136225) rotate(90)"/>
<use xlink:href="#Repeat%20group%201_inner" transform="translate(58.174 15.5875) rotate(120)"/>
<use xlink:href="#Repeat%20group%201_inner" transform="translate(58.174 33.5866) rotate(150)"/>
<use xlink:href="#Repeat%20group%201_inner" transform="translate(49.1745 49.1743) rotate(-180)"/>
<use xlink:href="#Repeat%20group%201_inner" transform="translate(33.5869 58.1738) rotate(-150)"/>
<use xlink:href="#Repeat%20group%201_inner" transform="translate(15.5878 58.1739) rotate(-120)"/>
<use xlink:href="#Repeat%20group%201_inner" transform="translate(0.000137006 49.1744) rotate(-90)"/>
<use xlink:href="#Repeat%20group%201_inner" transform="translate(-8.99944 33.5868) rotate(-60)"/>
<use xlink:href="#Repeat%20group%201_inner" transform="translate(-8.99949 15.5877) rotate(-30)"/>
<g id="Repeat group 2_inner" data-figma-trr="r12u1-0f">
<path d="M28.8075 6.70091C28.9383 6.01317 29.6382 5.59214 30.307 5.79891C30.933 5.99244 31.2793 6.66103 31.0761 7.28394L25.3703 24.7805L28.8075 6.70091Z" fill="url(#paint1_linear_609_468)"/>
</g>
<use xlink:href="#Repeat%20group%202_inner" transform="translate(12.4909 -7.21159) rotate(30)"/>
<use xlink:href="#Repeat%20group%202_inner" transform="translate(26.9141 -7.21159) rotate(60)"/>
<use xlink:href="#Repeat%20group%202_inner" transform="translate(39.4049 1.71594e-05) rotate(90)"/>
<use xlink:href="#Repeat%20group%202_inner" transform="translate(46.6165 12.4909) rotate(120)"/>
<use xlink:href="#Repeat%20group%202_inner" transform="translate(46.6165 26.9141) rotate(150)"/>
<use xlink:href="#Repeat%20group%202_inner" transform="translate(39.4049 39.4049) rotate(-180)"/>
<use xlink:href="#Repeat%20group%202_inner" transform="translate(26.914 46.6165) rotate(-150)"/>
<use xlink:href="#Repeat%20group%202_inner" transform="translate(12.4908 46.6165) rotate(-120)"/>
<use xlink:href="#Repeat%20group%202_inner" transform="translate(-1.65331e-05 39.4049) rotate(-90)"/>
<use xlink:href="#Repeat%20group%202_inner" transform="translate(-7.21161 26.914) rotate(-60)"/>
<use xlink:href="#Repeat%20group%202_inner" transform="translate(-7.2116 12.4908) rotate(-30)"/>
<g filter="url(#filter0_dddd_609_468)">
<path d="M16.9341 16.917C16.9341 16.4893 17.2808 16.1426 17.7085 16.1426H33.1941C33.6218 16.1426 33.9685 16.4893 33.9685 16.917V32.4026C33.9685 32.8303 33.6218 33.177 33.1941 33.177H17.7085C17.2808 33.177 16.9341 32.8303 16.9341 32.4026V16.917Z" fill="#E85102"/>
<path d="M21.1177 21.1015C21.1177 20.6739 21.4644 20.3271 21.8921 20.3271H29.0099C29.4376 20.3271 29.7843 20.6739 29.7843 21.1015V28.2194C29.7843 28.6471 29.4376 28.9938 29.0099 28.9938H21.8921C21.4644 28.9938 21.1177 28.6471 21.1177 28.2194V21.1015Z" fill="#E3E9E9"/>
</g>
<defs>
<filter id="filter0_dddd_609_468" x="13.8365" y="15.3682" width="23.2299" height="28.263" filterUnits="userSpaceOnUse" color-interpolation-filters="sRGB">
<feFlood flood-opacity="0" result="BackgroundImageFix"/>
<feColorMatrix in="SourceAlpha" type="matrix" values="0 0 0 0 0 0 0 0 0 0 0 0 0 0 0 0 0 0 127 0" result="hardAlpha"/>
<feOffset dy="0.3872"/>
<feGaussianBlur stdDeviation="0.5808"/>
<feColorMatrix type="matrix" values="0 0 0 0 0.909804 0 0 0 0 0.317647 0 0 0 0 0.00784314 0 0 0 0.16 0"/>
<feBlend mode="normal" in2="BackgroundImageFix" result="effect1_dropShadow_609_468"/>
<feColorMatrix in="SourceAlpha" type="matrix" values="0 0 0 0 0 0 0 0 0 0 0 0 0 0 0 0 0 0 127 0" result="hardAlpha"/>
<feOffset dy="1.936"/>
<feGaussianBlur stdDeviation="0.968"/>
<feColorMatrix type="matrix" values="0 0 0 0 0.909804 0 0 0 0 0.317647 0 0 0 0 0.00784314 0 0 0 0.12 0"/>
<feBlend mode="normal" in2="effect1_dropShadow_609_468" result="effect2_dropShadow_609_468"/>
<feColorMatrix in="SourceAlpha" type="matrix" values="0 0 0 0 0 0 0 0 0 0 0 0 0 0 0 0 0 0 127 0" result="hardAlpha"/>
<feOffset dy="4.2592"/>
<feGaussianBlur stdDeviation="1.3552"/>
<feColorMatrix type="matrix" values="0 0 0 0 0.909804 0 0 0 0 0.317647 0 0 0 0 0.00784314 0 0 0 0.05 0"/>
<feBlend mode="normal" in2="effect2_dropShadow_609_468" result="effect3_dropShadow_609_468"/>
<feColorMatrix in="SourceAlpha" type="matrix" values="0 0 0 0 0 0 0 0 0 0 0 0 0 0 0 0 0 0 127 0" result="hardAlpha"/>
<feOffset dy="7.3568"/>
<feGaussianBlur stdDeviation="1.5488"/>
<feColorMatrix type="matrix" values="0 0 0 0 0.909804 0 0 0 0 0.317647 0 0 0 0 0.00784314 0 0 0 0.01 0"/>
<feBlend mode="normal" in2="effect3_dropShadow_609_468" result="effect4_dropShadow_609_468"/>
<feBlend mode="normal" in="SourceGraphic" in2="effect4_dropShadow_609_468" result="shape"/>
</filter>
<linearGradient id="paint0_linear_609_468" x1="25.0664" y1="0.176758" x2="25.0664" y2="24.6996" gradientUnits="userSpaceOnUse">
<stop stop-color="#E85102"/>
<stop offset="0.153846" stop-color="#E85102" stop-opacity="0.6"/>
<stop offset="0.25" stop-color="#E85102" stop-opacity="0.3"/>
<stop offset="0.447115" stop-color="#E85102" stop-opacity="0"/>
</linearGradient>
<linearGradient id="paint1_linear_609_468" x1="30.2615" y1="5.73502" x2="25.1725" y2="24.7275" gradientUnits="userSpaceOnUse">
<stop stop-color="#E85102"/>
<stop offset="0.153846" stop-color="#E85102" stop-opacity="0.6"/>
<stop offset="0.25" stop-color="#E85102" stop-opacity="0.3"/>
<stop offset="0.447115" stop-color="#E85102" stop-opacity="0"/>
</linearGradient>
</defs>
</svg>
