<svg width="201" height="89" viewBox="0 0 201 89" fill="none" xmlns="http://www.w3.org/2000/svg">
<path d="M81.1749 78.4953V55.8713H85.4309V78.4953H81.1749Z" fill="#2A2A4C"/>
<path d="M71.7547 78.4953V55.8713H76.0427V78.4953H71.7547ZM68.1387 78.4953V74.7833H71.7547V78.4953H68.1387ZM68.1387 78.4953C68.0107 78.4953 67.9147 78.4527 67.8507 78.3673C67.7653 78.282 67.7013 78.1647 67.6587 78.0153C67.5947 77.8447 67.552 77.642 67.5307 77.4073C67.5093 77.1727 67.4987 76.9167 67.4987 76.6393C67.4987 76.2553 67.52 75.9353 67.5627 75.6793C67.6053 75.402 67.68 75.1887 67.7867 75.0393C67.872 74.8687 67.9893 74.7833 68.1387 74.7833V78.4953Z" fill="#2A2A4C"/>
<path d="M64.7867 78.4954V74.7834H68.1467V78.4954H64.7867ZM57.1387 78.4954C57.0107 78.4954 56.9147 78.4527 56.8507 78.3674C56.7653 78.282 56.7013 78.1647 56.6587 78.0154C56.5947 77.8447 56.552 77.642 56.5307 77.4074C56.5093 77.1727 56.4987 76.9167 56.4987 76.6394C56.4987 76.2554 56.52 75.9354 56.5627 75.6794C56.6053 75.402 56.68 75.1887 56.7867 75.0394C56.872 74.8687 56.9893 74.7834 57.1387 74.7834V78.4954ZM57.1387 78.4954V74.7834H62.9947L60.4987 76.8633V62.4314H64.7867V78.4954H57.1387ZM68.1467 78.4954V74.7834C68.2747 74.7834 68.3813 74.826 68.4667 74.9114C68.552 74.9967 68.616 75.1247 68.6587 75.2954C68.7013 75.466 68.7333 75.6687 68.7547 75.9034C68.776 76.1167 68.7867 76.362 68.7867 76.6394C68.7867 76.9167 68.776 77.1727 68.7547 77.4074C68.7333 77.642 68.7013 77.8447 68.6587 78.0154C68.616 78.1647 68.552 78.282 68.4667 78.3674C68.3813 78.4527 68.2747 78.4954 68.1467 78.4954ZM60.4987 59.4874V55.8394H64.7867V59.4874H60.4987Z" fill="#2A2A4C"/>
<path d="M61.2099 53.3113C60.8899 51.8393 60.9006 50.6553 61.2419 49.7593C61.5833 48.842 62.3513 48.3833 63.5459 48.3833C64.3566 48.3833 64.9646 48.5966 65.3699 49.0233C65.7753 49.4286 66.0206 50.0046 66.1059 50.7513C66.1913 51.4766 66.1273 52.33 65.9139 53.3113L64.5059 53.0233C64.7619 51.8073 64.8046 50.9753 64.6339 50.5273C64.4633 50.058 64.1006 49.8233 63.5459 49.8233C62.9913 49.8233 62.6286 50.058 62.4579 50.5273C62.3086 50.9753 62.3619 51.7966 62.6179 52.9913L61.2099 53.3113ZM58.8099 53.3113V51.8713H65.9139V53.3113H58.8099Z" fill="#2A2A4C"/>
<path d="M53.7382 78.4954V74.7834H57.1302V78.4954H53.7382ZM34.8262 78.4954C34.6982 78.4954 34.6022 78.4528 34.5382 78.3674C34.4528 78.2821 34.3888 78.1648 34.3462 78.0154C34.2822 77.8448 34.2395 77.6421 34.2182 77.4074C34.1968 77.1728 34.1862 76.9168 34.1862 76.6394C34.1862 76.2554 34.2075 75.9354 34.2502 75.6794C34.2928 75.4021 34.3675 75.1888 34.4742 75.0394C34.5595 74.8688 34.6768 74.7834 34.8262 74.7834V78.4954ZM34.8262 78.4954V74.7834H51.4342L49.4822 76.4474V70.5594C49.4822 69.4074 49.3542 68.5114 49.0982 67.8714C48.8422 67.2101 48.3942 66.7514 47.7542 66.4954C47.1355 66.2181 46.2715 66.0794 45.1622 66.0794C44.2875 66.0794 43.4235 66.1434 42.5702 66.2714C41.7382 66.3781 41.0875 66.5274 40.6182 66.7194L43.2742 64.2234C43.1462 64.7141 43.0182 65.3328 42.8902 66.0794C42.7835 66.8261 42.6875 67.6261 42.6022 68.4794C42.5168 69.3114 42.4742 70.1328 42.4742 70.9434C42.4742 71.6901 42.5062 72.4688 42.5702 73.2794C42.6555 74.0901 42.7408 74.8048 42.8262 75.4234C42.9328 76.0421 43.0182 76.4688 43.0822 76.7034L39.0182 77.8234C38.9328 77.5248 38.8262 77.0341 38.6982 76.3514C38.5702 75.6688 38.4528 74.8581 38.3462 73.9194C38.2608 72.9808 38.2182 71.9888 38.2182 70.9434C38.2182 69.8768 38.2715 68.8528 38.3782 67.8714C38.4848 66.8688 38.6022 65.9728 38.7302 65.1834C38.8795 64.3728 39.0182 63.7221 39.1462 63.2314C39.6582 63.0394 40.4582 62.8474 41.5462 62.6554C42.6342 62.4634 43.8395 62.3674 45.1622 62.3674C47.0822 62.3674 48.6715 62.6341 49.9302 63.1674C51.2102 63.7008 52.1595 64.5648 52.7782 65.7594C53.4182 66.9541 53.7382 68.5648 53.7382 70.5914V78.4954H34.8262ZM57.1302 78.4954V74.7834C57.2368 74.7834 57.3328 74.8261 57.4182 74.9114C57.5035 74.9968 57.5675 75.1248 57.6102 75.2954C57.6528 75.4661 57.6848 75.6688 57.7062 75.9034C57.7488 76.1168 57.7702 76.3621 57.7702 76.6394C57.7702 76.9168 57.7488 77.1728 57.7062 77.4074C57.6848 77.6421 57.6528 77.8448 57.6102 78.0154C57.5675 78.1648 57.5035 78.2821 57.4182 78.3674C57.3328 78.4528 57.2368 78.4954 57.1302 78.4954Z" fill="#2A2A4C"/>
<path d="M43.4287 59.3113C43.1087 57.8393 43.1194 56.6553 43.4607 55.7593C43.802 54.842 44.57 54.3833 45.7647 54.3833C46.5754 54.3833 47.1834 54.5966 47.5887 55.0233C47.994 55.4286 48.2394 56.0046 48.3247 56.7513C48.41 57.4766 48.346 58.33 48.1327 59.3113L46.7247 59.0233C46.9807 57.8073 47.0234 56.9753 46.8527 56.5273C46.682 56.058 46.3194 55.8233 45.7647 55.8233C45.21 55.8233 44.8474 56.058 44.6767 56.5273C44.5274 56.9753 44.5807 57.7966 44.8367 58.9913L43.4287 59.3113ZM41.0287 59.3113V57.8713H48.1327V59.3113H41.0287Z" fill="#2A2A4C"/>
<path d="M26.8262 78.4954V74.7834H34.8262V78.4954H26.8262ZM34.8262 78.4954V74.7834C34.9542 74.7834 35.0502 74.8261 35.1142 74.9114C35.1995 74.9968 35.2635 75.1248 35.3062 75.2954C35.3702 75.4661 35.4128 75.6688 35.4342 75.9034C35.4555 76.1168 35.4662 76.3621 35.4662 76.6394C35.4662 76.9168 35.4555 77.1728 35.4342 77.4074C35.4128 77.6421 35.3702 77.8448 35.3062 78.0154C35.2635 78.1648 35.1995 78.2821 35.1142 78.3674C35.0502 78.4528 34.9542 78.4954 34.8262 78.4954ZM26.8262 78.4954C26.6982 78.4954 26.6022 78.4528 26.5382 78.3674C26.4528 78.2821 26.3888 78.1648 26.3462 78.0154C26.2822 77.8448 26.2395 77.6421 26.2182 77.4074C26.1968 77.1728 26.1862 76.9168 26.1862 76.6394C26.1862 76.2554 26.2075 75.9354 26.2502 75.6794C26.2928 75.4021 26.3675 75.1888 26.4742 75.0394C26.5595 74.8688 26.6768 74.7834 26.8262 74.7834V78.4954Z" fill="#2A2A4C"/>
<path d="M18.8262 78.4954V74.7834H26.8262V78.4954H18.8262ZM26.8262 78.4954V74.7834C26.9542 74.7834 27.0502 74.8261 27.1142 74.9114C27.1995 74.9968 27.2635 75.1248 27.3062 75.2954C27.3702 75.4661 27.4128 75.6688 27.4342 75.9034C27.4555 76.1168 27.4662 76.3621 27.4662 76.6394C27.4662 76.9168 27.4555 77.1728 27.4342 77.4074C27.4128 77.6421 27.3702 77.8448 27.3062 78.0154C27.2635 78.1648 27.1995 78.2821 27.1142 78.3674C27.0502 78.4528 26.9542 78.4954 26.8262 78.4954ZM18.8262 78.4954C18.6982 78.4954 18.6022 78.4528 18.5382 78.3674C18.4528 78.2821 18.3888 78.1648 18.3462 78.0154C18.2822 77.8448 18.2395 77.6421 18.2182 77.4074C18.1968 77.1728 18.1862 76.9168 18.1862 76.6394C18.1862 76.2554 18.2075 75.9354 18.2502 75.6794C18.2928 75.4021 18.3675 75.1888 18.4742 75.0394C18.5595 74.8688 18.6768 74.7834 18.8262 74.7834V78.4954Z" fill="#2A2A4C"/>
<path d="M15.4617 78.4954V74.7834H18.8217V78.4954H15.4617ZM6.8217 86.4314C6.03237 86.4314 5.20037 86.3674 4.3257 86.2394C3.47237 86.1327 2.55503 85.9834 1.5737 85.7914L2.2137 82.3674C3.28037 82.4954 4.18703 82.5914 4.9337 82.6554C5.68037 82.7194 6.3097 82.7514 6.8217 82.7514C8.3577 82.7514 9.46704 82.4741 10.1497 81.9194C10.8324 81.3647 11.1737 80.5327 11.1737 79.4234V65.3754L12.2297 66.1434H8.2297C7.35503 66.1434 6.65103 66.2501 6.1177 66.4634C5.58437 66.6554 5.1897 67.0714 4.9337 67.7114C4.69903 68.3301 4.5817 69.2794 4.5817 70.5594C4.5817 71.7754 4.68837 72.6927 4.9017 73.3114C5.13637 73.9087 5.52037 74.3034 6.0537 74.4954C6.58704 74.6874 7.31237 74.7834 8.2297 74.7834H11.1737V78.4954H8.2297C6.41637 78.4954 4.92303 78.2074 3.7497 77.6314C2.57637 77.0554 1.7017 76.1807 1.1257 75.0074C0.571034 73.8341 0.293701 72.3514 0.293701 70.5594C0.293701 68.7674 0.571034 67.2741 1.1257 66.0794C1.7017 64.8634 2.57637 63.9567 3.7497 63.3594C4.92303 62.7407 6.41637 62.4314 8.2297 62.4314H15.4617V79.4234C15.4617 80.8741 15.099 82.1221 14.3737 83.1674C13.6697 84.2341 12.667 85.0447 11.3657 85.5994C10.0857 86.1541 8.57103 86.4314 6.8217 86.4314ZM18.8217 78.4954V74.7834C18.9497 74.7834 19.0457 74.8261 19.1097 74.9114C19.195 74.9967 19.259 75.1247 19.3017 75.2954C19.3657 75.4661 19.4084 75.6687 19.4297 75.9034C19.451 76.1167 19.4617 76.3621 19.4617 76.6394C19.4617 76.9167 19.451 77.1727 19.4297 77.4074C19.4084 77.6421 19.3657 77.8447 19.3017 78.0154C19.259 78.1647 19.195 78.2821 19.1097 78.3674C19.0457 78.4527 18.9497 78.4954 18.8217 78.4954Z" fill="#2A2A4C"/>
<path d="M4.9469 59.3114V57.8714H12.0509V59.3114H4.9469ZM10.1629 56.1114C9.3949 56.1114 8.80823 55.8234 8.4029 55.2474C7.99757 54.65 7.7949 53.8287 7.7949 52.7834V51.6954H9.2349V52.7834C9.2349 53.5087 9.32023 54.01 9.4909 54.2874C9.66157 54.5434 9.88557 54.6714 10.1629 54.6714C10.6109 54.6714 10.9096 54.3834 11.0589 53.8074C11.2296 53.2313 11.2082 52.3034 10.9949 51.0234L12.4029 50.7354C12.7016 52.4207 12.6696 53.7434 12.3069 54.7034C11.9442 55.642 11.2296 56.1114 10.1629 56.1114ZM6.8349 56.1114C5.78957 56.1114 5.0749 55.642 4.6909 54.7034C4.32823 53.7434 4.29623 52.4207 4.5949 50.7354L6.0349 51.0234C5.80023 52.3034 5.76823 53.2313 5.9389 53.8074C6.10957 54.3834 6.40823 54.6714 6.8349 54.6714C7.13357 54.6714 7.36823 54.5434 7.5389 54.2874C7.70957 54.01 7.7949 53.5087 7.7949 52.7834V51.6954H9.2349V52.7834C9.2349 53.8287 9.03223 54.65 8.6269 55.2474C8.22157 55.8234 7.62423 56.1114 6.8349 56.1114Z" fill="#2A2A4C"/>
<path d="M69.8262 33.4954V29.7834H83.5862L82.1462 30.9674V25.0474C82.1462 23.7674 81.7408 22.7967 80.9302 22.1354C80.1408 21.4741 78.8822 21.1434 77.1542 21.1434C76.6635 21.1434 75.9915 21.1861 75.1382 21.2714C74.2848 21.3354 73.3568 21.4421 72.3542 21.5914L71.9382 18.1994C72.8555 17.9861 73.7835 17.8047 74.7222 17.6554C75.6822 17.5061 76.6208 17.4314 77.5382 17.4314C79.2875 17.4314 80.8235 17.7407 82.1462 18.3594C83.4688 18.9567 84.5035 19.8207 85.2502 20.9514C86.0182 22.0821 86.4022 23.4474 86.4022 25.0474V33.4954H69.8262ZM69.8262 33.4954C69.6982 33.4954 69.6022 33.4527 69.5382 33.3674C69.4528 33.2821 69.3888 33.1647 69.3462 33.0154C69.2822 32.8447 69.2395 32.6421 69.2182 32.4074C69.1968 32.1727 69.1862 31.9167 69.1862 31.6394C69.1862 31.2554 69.2075 30.9354 69.2502 30.6794C69.2928 30.4021 69.3675 30.1887 69.4742 30.0394C69.5595 29.8687 69.6768 29.7834 69.8262 29.7834V33.4954ZM76.0022 40.3114V36.6634H80.2902V40.3114H76.0022Z" fill="#2A2A4C"/>
<path d="M74.5599 44.6873V43.2473H81.6639V44.6873H74.5599Z" fill="#2A2A4C"/>
<path d="M66.4242 33.4954V29.7834H69.8162V33.4954H66.4242ZM39.5762 33.4954C39.4482 33.4954 39.3522 33.4527 39.2882 33.3674C39.2028 33.2821 39.1388 33.1647 39.0962 33.0154C39.0322 32.8447 38.9895 32.6421 38.9682 32.4074C38.9468 32.1727 38.9362 31.9167 38.9362 31.6394C38.9362 31.2554 38.9575 30.9354 39.0002 30.6794C39.0428 30.4021 39.1175 30.1887 39.2242 30.0394C39.3095 29.8687 39.4268 29.7834 39.5762 29.7834V33.4954ZM58.3922 33.4954C57.5175 33.4954 56.6428 33.3354 55.7682 33.0154C54.9148 32.6741 54.1255 32.1727 53.4002 31.5114L56.0242 28.7914C56.4508 29.1327 56.8455 29.3887 57.2082 29.5594C57.5922 29.7087 57.9868 29.7834 58.3922 29.7834H64.3762L62.1682 31.7994V24.6954C62.1682 24.3541 62.1255 23.8421 62.0402 23.1594C61.9762 22.4554 61.8695 21.6661 61.7202 20.7914C61.5922 19.8954 61.4322 18.9887 61.2402 18.0714L65.4642 17.4314C65.6135 18.1994 65.7522 19.0634 65.8802 20.0234C66.0295 20.9621 66.1575 21.8581 66.2642 22.7114C66.3708 23.5434 66.4242 24.2047 66.4242 24.6954V33.4954H58.3922ZM39.5762 33.4954V29.7834H44.2482L43.2882 30.7754V20.6954H47.5762V33.4954H39.5762ZM47.5762 33.4954V29.7834H50.1682C50.8508 29.7834 51.3735 29.6874 51.7362 29.4954C52.0988 29.2821 52.3442 28.8661 52.4722 28.2474C52.6215 27.6074 52.6962 26.6581 52.6962 25.3994V19.0954H56.9842V25.3994C56.9842 27.2981 56.7388 28.8447 56.2482 30.0394C55.7788 31.2341 55.0428 32.1087 54.0402 32.6634C53.0375 33.2181 51.7468 33.4954 50.1682 33.4954H47.5762ZM69.8162 33.4954V29.7834C69.9228 29.7834 70.0188 29.8261 70.1042 29.9114C70.1895 29.9967 70.2535 30.1247 70.2962 30.2954C70.3388 30.4661 70.3708 30.6687 70.3922 30.9034C70.4348 31.1167 70.4562 31.3621 70.4562 31.6394C70.4562 31.9167 70.4348 32.1727 70.3922 32.4074C70.3708 32.6421 70.3388 32.8447 70.2962 33.0154C70.2535 33.1647 70.1895 33.2821 70.1042 33.3674C70.0188 33.4527 69.9228 33.4954 69.8162 33.4954Z" fill="#2A2A4C"/>
<path d="M54.8744 14.5113C54.2984 14.5113 53.7651 14.3726 53.2744 14.0953C52.7838 13.8179 52.3891 13.4446 52.0904 12.9753C51.8131 12.4846 51.6744 11.9619 51.6744 11.4073C51.6744 10.8099 51.8131 10.2766 52.0904 9.80727C52.3891 9.33794 52.7838 8.95394 53.2744 8.65528C53.7651 8.35661 54.2984 8.20728 54.8744 8.20728C55.4504 8.20728 55.9731 8.35661 56.4424 8.65528C56.9331 8.93261 57.3171 9.31661 57.5944 9.80727C57.8718 10.2766 58.0104 10.8099 58.0104 11.4073C58.0104 11.9619 57.8718 12.4846 57.5944 12.9753C57.3171 13.4446 56.9331 13.8179 56.4424 14.0953C55.9731 14.3726 55.4504 14.5113 54.8744 14.5113ZM54.8744 13.0713C55.3438 13.0713 55.7384 12.9113 56.0584 12.5913C56.3998 12.2499 56.5704 11.8553 56.5704 11.4073C56.5704 10.9166 56.3998 10.5113 56.0584 10.1913C55.7384 9.84994 55.3438 9.67928 54.8744 9.67928C54.3838 9.67928 53.9678 9.84994 53.6264 10.1913C53.2851 10.5113 53.1144 10.9166 53.1144 11.4073C53.1144 11.8553 53.2851 12.2499 53.6264 12.5913C53.9678 12.9113 54.3838 13.0713 54.8744 13.0713Z" fill="#2A2A4C"/>
<path d="M31.5762 33.4954V29.7834H39.5762V33.4954H31.5762ZM39.5762 33.4954V29.7834C39.7042 29.7834 39.8002 29.8261 39.8642 29.9114C39.9495 29.9968 40.0135 30.1248 40.0562 30.2954C40.1202 30.4661 40.1628 30.6688 40.1842 30.9034C40.2055 31.1168 40.2162 31.3621 40.2162 31.6394C40.2162 31.9168 40.2055 32.1728 40.1842 32.4074C40.1628 32.6421 40.1202 32.8448 40.0562 33.0154C40.0135 33.1648 39.9495 33.2821 39.8642 33.3674C39.8002 33.4528 39.7042 33.4954 39.5762 33.4954ZM31.5762 33.4954C31.4482 33.4954 31.3522 33.4528 31.2882 33.3674C31.2028 33.2821 31.1388 33.1648 31.0962 33.0154C31.0322 32.8448 30.9895 32.6421 30.9682 32.4074C30.9468 32.1728 30.9362 31.9168 30.9362 31.6394C30.9362 31.2554 30.9575 30.9354 31.0002 30.6794C31.0428 30.4021 31.1175 30.1888 31.2242 30.0394C31.3095 29.8688 31.4268 29.7834 31.5762 29.7834V33.4954Z" fill="#2A2A4C"/>
<path d="M23.5762 33.4954V29.7834H31.5762V33.4954H23.5762ZM31.5762 33.4954V29.7834C31.7042 29.7834 31.8002 29.8261 31.8642 29.9114C31.9495 29.9968 32.0135 30.1248 32.0562 30.2954C32.1202 30.4661 32.1628 30.6688 32.1842 30.9034C32.2055 31.1168 32.2162 31.3621 32.2162 31.6394C32.2162 31.9168 32.2055 32.1728 32.1842 32.4074C32.1628 32.6421 32.1202 32.8448 32.0562 33.0154C32.0135 33.1648 31.9495 33.2821 31.8642 33.3674C31.8002 33.4528 31.7042 33.4954 31.5762 33.4954ZM23.5762 33.4954C23.4482 33.4954 23.3522 33.4528 23.2882 33.3674C23.2028 33.2821 23.1388 33.1648 23.0962 33.0154C23.0322 32.8448 22.9895 32.6421 22.9682 32.4074C22.9468 32.1728 22.9362 31.9168 22.9362 31.6394C22.9362 31.2554 22.9575 30.9354 23.0002 30.6794C23.0428 30.4021 23.1175 30.1888 23.2242 30.0394C23.3095 29.8688 23.4268 29.7834 23.5762 29.7834V33.4954Z" fill="#2A2A4C"/>
<path d="M15.5762 33.4954V29.7834H23.5762V33.4954H15.5762ZM23.5762 33.4954V29.7834C23.7042 29.7834 23.8002 29.8261 23.8642 29.9114C23.9495 29.9968 24.0135 30.1248 24.0562 30.2954C24.1202 30.4661 24.1628 30.6688 24.1842 30.9034C24.2055 31.1168 24.2162 31.3621 24.2162 31.6394C24.2162 31.9168 24.2055 32.1728 24.1842 32.4074C24.1628 32.6421 24.1202 32.8448 24.0562 33.0154C24.0135 33.1648 23.9495 33.2821 23.8642 33.3674C23.8002 33.4528 23.7042 33.4954 23.5762 33.4954ZM15.5762 33.4954C15.4482 33.4954 15.3522 33.4528 15.2882 33.3674C15.2028 33.2821 15.1388 33.1648 15.0962 33.0154C15.0322 32.8448 14.9895 32.6421 14.9682 32.4074C14.9468 32.1728 14.9362 31.9168 14.9362 31.6394C14.9362 31.2554 14.9575 30.9354 15.0002 30.6794C15.0428 30.4021 15.1175 30.1888 15.2242 30.0394C15.3095 29.8688 15.4268 29.7834 15.5762 29.7834V33.4954Z" fill="#2A2A4C"/>
<path d="M11.4377 33.4954V29.7834H15.5657V33.4954H11.4377ZM5.22967 41.4314C4.95234 41.4314 4.65367 41.4207 4.33367 41.3994C4.01367 41.3781 3.68301 41.3461 3.34167 41.3034L3.50167 37.6554C3.84301 37.6767 4.16301 37.6981 4.46167 37.7194C4.78167 37.7407 5.01634 37.7514 5.16568 37.7514C5.99768 37.7514 6.65901 37.4207 7.14967 36.7594C7.66167 36.0981 7.91768 35.1701 7.91768 33.9754V17.4314H12.2057V33.9754C12.2057 35.4261 11.907 36.7167 11.3097 37.8474C10.7337 38.9781 9.92301 39.8527 8.87768 40.4714C7.83234 41.1114 6.61634 41.4314 5.22967 41.4314ZM15.5657 33.4954V29.7834C15.6937 29.7834 15.7897 29.8261 15.8537 29.9114C15.939 29.9967 16.003 30.1247 16.0457 30.2954C16.1097 30.4661 16.1523 30.6687 16.1737 30.9034C16.195 31.1167 16.2057 31.3621 16.2057 31.6394C16.2057 31.9167 16.195 32.1727 16.1737 32.4074C16.1523 32.6421 16.1097 32.8447 16.0457 33.0154C16.003 33.1647 15.939 33.2821 15.8537 33.3674C15.7897 33.4527 15.6937 33.4954 15.5657 33.4954Z" fill="#2A2A4C"/>
<path d="M8.64744 14.3113C8.32744 12.8393 8.3381 11.6553 8.67944 10.7593C9.02077 9.84197 9.78877 9.3833 10.9834 9.3833C11.7941 9.3833 12.4021 9.59663 12.8074 10.0233C13.2128 10.4286 13.4581 11.0046 13.5434 11.7513C13.6288 12.4766 13.5648 13.33 13.3514 14.3113L11.9434 14.0233C12.1994 12.8073 12.2421 11.9753 12.0714 11.5273C11.9008 11.058 11.5381 10.8233 10.9834 10.8233C10.4288 10.8233 10.0661 11.058 9.89544 11.5273C9.7461 11.9753 9.79944 12.7966 10.0554 13.9913L8.64744 14.3113ZM6.24744 14.3113V12.8713H13.3514V14.3113H6.24744Z" fill="#2A2A4C"/>
<path d="M160.325 88.4436C151.595 88.4436 143.519 85.6473 136.943 80.9016H183.706C177.13 85.6473 169.054 88.4436 160.325 88.4436Z" fill="url(#paint0_linear_18_423)"/>
<path fill-rule="evenodd" clip-rule="evenodd" d="M151.662 9.20951C156.446 9.20951 160.325 5.33122 160.325 0.547119C160.325 5.33122 164.203 9.20951 168.987 9.20951C164.203 9.20951 160.325 13.0878 160.325 17.8719C160.325 13.0878 156.446 9.20951 151.662 9.20951Z" fill="#EE2F24"/>
<path d="M168.888 16.7697C169.328 16.7708 169.683 17.1282 169.689 17.568C169.76 23.5037 170.625 28.6838 172.033 33.1877L172.177 33.6407L172.316 34.0623C177.676 50.0689 189.961 57.2593 197.248 59.4167C198.379 59.7517 199.059 60.967 198.607 62.0575C197.947 63.6537 196.998 65.8277 196.136 67.3692C195.104 69.2128 193.41 71.5516 192.424 72.8701C191.959 73.4929 191.153 73.7507 190.412 73.5163C177.197 69.3396 163.624 61.2848 161.183 27.9856L161.113 26.9664C161.045 25.9396 160.988 24.8894 160.942 23.815C160.871 22.1491 160.825 20.4252 160.806 18.6411C160.795 17.5982 161.643 16.7532 162.686 16.7556L168.888 16.7697Z" fill="url(#paint1_linear_18_423)"/>
<path d="M157.623 16.7559C158.666 16.7535 159.514 17.5985 159.502 18.6414C159.481 20.6729 159.424 22.6265 159.334 24.5054C159.288 25.4631 159.233 26.4017 159.17 27.3212C156.849 61.1902 143.103 69.3386 129.793 73.5432C129.056 73.7759 128.256 73.5231 127.791 72.906C126.853 71.6606 125.279 69.4893 124.275 67.6706C123.403 66.0903 122.394 63.7496 121.7 62.0601C121.251 60.9676 121.931 59.7511 123.063 59.4157C130.409 57.2401 142.829 49.9522 148.119 33.6792C149.63 29.0298 150.559 23.6468 150.621 17.44C150.625 17.0709 150.923 16.7711 151.292 16.77L157.623 16.7559ZM158.721 22.0914C158.769 22.2077 158.815 22.3252 158.858 22.444C158.815 22.3252 158.769 22.2077 158.721 22.0914ZM153.918 17.3616H153.918H153.918Z" fill="url(#paint2_linear_18_423)"/>
<path d="M146.462 34.7068H128.335C125.715 34.7068 123.907 32.0979 125.131 29.7816C125.278 29.5041 125.428 29.2285 125.581 28.9548C126.213 27.8238 127.43 27.1648 128.726 27.1648H148.497C148.099 29.3252 147.582 31.3485 146.966 33.2419C146.805 33.7389 146.636 34.2271 146.462 34.7068Z" fill="#38BBDD"/>
<path fill-rule="evenodd" clip-rule="evenodd" d="M125.197 36.1211H145.918C144.775 38.9405 143.405 41.4455 141.893 43.6631H125.049C122.789 43.6631 121.023 41.6831 121.528 39.4806C121.583 39.239 121.64 38.9982 121.7 38.7584C122.095 37.1713 123.562 36.1211 125.197 36.1211Z" fill="#38BBDD"/>
<path fill-rule="evenodd" clip-rule="evenodd" d="M140.688 45.0771C138.36 48.1804 135.759 50.6651 133.162 52.6191H123.942C122.009 52.6191 120.371 51.158 120.334 49.2263C120.329 48.9665 120.326 48.7061 120.326 48.4451C120.326 46.5392 121.932 45.0771 123.838 45.0771H140.688Z" fill="#38BBDD"/>
<path fill-rule="evenodd" clip-rule="evenodd" d="M125.048 54.0332H131.148C128.052 56.0573 125.064 57.3487 122.662 58.06C122.286 58.1715 121.934 58.3462 121.619 58.5705C121.594 58.4755 121.57 58.3805 121.546 58.2852C120.984 56.0649 122.758 54.0332 125.048 54.0332Z" fill="#38BBDD"/>
<path d="M158.228 43.6631C158.788 41.3299 159.27 38.8209 159.665 36.1211H160.637C161.03 38.8211 161.509 41.33 162.068 43.6631H158.228Z" fill="url(#paint3_linear_18_423)"/>
<path d="M157.872 45.0771H162.421C163.142 47.8396 163.979 50.3443 164.916 52.6191H155.367C156.308 50.344 157.148 47.8392 157.872 45.0771Z" fill="url(#paint4_linear_18_423)"/>
<path d="M165.525 54.0332C166.822 56.9183 168.291 59.4108 169.898 61.5752H150.371C151.982 59.4102 153.455 56.9176 154.757 54.0332H165.525Z" fill="url(#paint5_linear_18_423)"/>
<path d="M149.262 62.9893H171.006C173.712 66.2663 176.731 68.6783 179.878 70.5312H140.385C143.533 68.6766 146.553 66.2638 149.262 62.9893Z" fill="url(#paint6_linear_18_423)"/>
<path d="M189.986 74.8649C190.085 74.8963 190.186 74.9228 190.286 74.9443C188.835 76.5843 187.251 78.1042 185.551 79.4873H135.099C133.372 78.0827 131.765 76.5369 130.295 74.8675C132.771 74.0828 135.286 73.155 137.755 71.9453H182.513C184.985 73.1542 187.504 74.0806 189.986 74.8649Z" fill="url(#paint7_linear_18_423)"/>
<path fill-rule="evenodd" clip-rule="evenodd" d="M173.381 32.7588C172.833 31.0054 172.369 29.1426 172.005 27.1648H192.117C193.413 27.1648 194.629 27.8238 195.262 28.9548C195.415 29.2285 195.564 29.5041 195.711 29.7816C196.935 32.0979 195.127 34.7068 192.507 34.7068H174.039C173.908 34.3471 173.781 33.9826 173.657 33.6132L173.52 33.198L173.381 32.7588Z" fill="#38BBDD"/>
<path fill-rule="evenodd" clip-rule="evenodd" d="M174.583 36.1211H195.645C197.281 36.1211 198.747 37.1713 199.142 38.7584C199.202 38.9983 199.259 39.239 199.315 39.4806C199.819 41.6831 198.053 43.6631 195.793 43.6631H178.608C177.096 41.4455 175.726 38.9405 174.583 36.1211Z" fill="#38BBDD"/>
<path fill-rule="evenodd" clip-rule="evenodd" d="M187.147 52.6191C184.549 50.6651 181.948 48.1804 179.62 45.0771H196.812C198.717 45.0771 200.323 46.5392 200.323 48.4451C200.323 48.7061 200.321 48.9665 200.316 49.2263C200.279 51.158 198.64 52.6191 196.708 52.6191H187.147Z" fill="#38BBDD"/>
<path fill-rule="evenodd" clip-rule="evenodd" d="M197.649 58.0608C195.247 57.3496 192.258 56.058 189.161 54.0332H195.601C197.891 54.0332 199.665 56.0649 199.104 58.2852C199.061 58.4546 199.017 58.6236 198.972 58.7921C198.592 58.4603 198.141 58.2064 197.649 58.0608Z" fill="#38BBDD"/>
<path fill-rule="evenodd" clip-rule="evenodd" d="M160.152 32.2854C160.241 33.1086 160.338 33.9156 160.442 34.7067H159.861C159.966 33.9156 160.063 33.1086 160.152 32.2854Z" fill="url(#paint8_linear_18_423)"/>
<defs>
<linearGradient id="paint0_linear_18_423" x1="136.943" y1="84.6726" x2="183.706" y2="84.6726" gradientUnits="userSpaceOnUse">
<stop stop-color="#105930"/>
<stop offset="1" stop-color="#42A66B"/>
</linearGradient>
<linearGradient id="paint1_linear_18_423" x1="179.777" y1="16.7556" x2="179.777" y2="73.6018" gradientUnits="userSpaceOnUse">
<stop stop-color="#EE3124"/>
<stop offset="0.000100017" stop-color="#F05323"/>
<stop offset="1" stop-color="#F57B20"/>
</linearGradient>
<linearGradient id="paint2_linear_18_423" x1="140.531" y1="16.7559" x2="140.531" y2="73.6286" gradientUnits="userSpaceOnUse">
<stop stop-color="#EE3124"/>
<stop offset="0.000100017" stop-color="#F05323"/>
<stop offset="1" stop-color="#F57B20"/>
</linearGradient>
<linearGradient id="paint3_linear_18_423" x1="157.729" y1="39.8921" x2="163.051" y2="39.8921" gradientUnits="userSpaceOnUse">
<stop stop-color="#105930"/>
<stop offset="1" stop-color="#42A66B"/>
</linearGradient>
<linearGradient id="paint4_linear_18_423" x1="154.802" y1="48.8481" x2="165.978" y2="48.8481" gradientUnits="userSpaceOnUse">
<stop stop-color="#105930"/>
<stop offset="1" stop-color="#42A66B"/>
</linearGradient>
<linearGradient id="paint5_linear_18_423" x1="149.571" y1="57.8042" x2="171.209" y2="57.8042" gradientUnits="userSpaceOnUse">
<stop stop-color="#105930"/>
<stop offset="1" stop-color="#42A66B"/>
</linearGradient>
<linearGradient id="paint6_linear_18_423" x1="123.053" y1="66.7602" x2="197.597" y2="66.7602" gradientUnits="userSpaceOnUse">
<stop stop-color="#105930"/>
<stop offset="1" stop-color="#42A66B"/>
</linearGradient>
<linearGradient id="paint7_linear_18_423" x1="127.954" y1="75.7163" x2="192.695" y2="75.7163" gradientUnits="userSpaceOnUse">
<stop stop-color="#105930"/>
<stop offset="1" stop-color="#42A66B"/>
</linearGradient>
<linearGradient id="paint8_linear_18_423" x1="159.786" y1="33.4961" x2="160.59" y2="33.4961" gradientUnits="userSpaceOnUse">
<stop stop-color="#105930"/>
<stop offset="1" stop-color="#42A66B"/>
</linearGradient>
</defs>
</svg>
