<svg width="626" height="128" viewBox="0 0 626 128" fill="none" xmlns="http://www.w3.org/2000/svg">
<path d="M59.2205 4.04067C59.0668 2.308 60.4143 0.808298 62.1534 0.776238L64.8861 0.725864C66.6311 0.693695 68.0352 2.15223 67.9366 3.89479L66.8704 22.7416C66.6603 26.4558 61.2155 26.5427 60.8869 22.8371L59.2205 4.04067Z" fill="url(#paint0_radial_39_32)"/>
<path d="M89.7772 9.92005C90.5105 8.34271 92.4273 7.71764 93.9495 8.55946L96.3412 9.88216C97.8685 10.7268 98.3552 12.692 97.3986 14.1518L87.0518 29.9405C85.0128 33.052 80.254 30.4049 81.8222 27.0314L89.7772 9.92005Z" fill="url(#paint1_radial_39_32)"/>
<path d="M113.3 30.2901C114.724 29.2908 116.697 29.7078 117.594 31.198L119.004 33.5393C119.904 35.0345 119.343 36.9797 117.785 37.7656L100.93 46.2656C97.6083 47.9408 94.8107 43.2689 97.8555 41.1315L113.3 30.2901Z" fill="url(#paint2_radial_39_32)"/>
<path d="M123.487 59.6928C125.22 59.5391 126.72 60.8866 126.752 62.6257L126.802 65.3584C126.834 67.1034 125.376 68.5075 123.633 68.4089L104.786 67.3427C101.072 67.1326 100.985 61.6878 104.691 61.3592L123.487 59.6928Z" fill="url(#paint3_radial_39_32)"/>
<path d="M117.608 90.2495C119.185 90.9828 119.81 92.8996 118.968 94.4218L117.646 96.8135C116.801 98.3408 114.836 98.8275 113.376 97.8708L97.5873 87.5241C94.4758 85.4851 97.123 80.7262 100.496 82.2945L117.608 90.2495Z" fill="url(#paint4_radial_39_32)"/>
<path d="M97.2377 113.773C98.2371 115.196 97.82 117.169 96.3299 118.066L93.9885 119.476C92.4933 120.377 90.5481 119.816 89.7622 118.257L81.2622 101.402C79.587 98.0806 84.259 95.283 86.3963 98.3278L97.2377 113.773Z" fill="url(#paint5_radial_39_32)"/>
<path d="M67.8351 123.959C67.9887 125.692 66.6413 127.192 64.9021 127.224L62.1694 127.274C60.4244 127.306 59.0204 125.848 59.1189 124.105L60.1851 105.259C60.3952 101.544 65.84 101.457 66.1686 105.163L67.8351 123.959Z" fill="url(#paint6_radial_39_32)"/>
<path d="M37.2783 118.08C36.545 119.657 34.6282 120.282 33.106 119.441L30.7143 118.118C29.187 117.273 28.7003 115.308 29.657 113.848L40.0037 98.0596C42.0428 94.9481 46.8016 97.5953 45.2333 100.969L37.2783 118.08Z" fill="url(#paint7_radial_39_32)"/>
<path d="M13.7551 97.71C12.3313 98.7094 10.3588 98.2923 9.46149 96.8021L8.05154 94.4608C7.15115 92.9656 7.71227 91.0204 9.27067 90.2345L26.1255 81.7345C29.4472 80.0593 32.2449 84.7313 29.2 86.8686L13.7551 97.71Z" fill="url(#paint8_radial_39_32)"/>
<path d="M3.56838 68.3074C1.83571 68.461 0.336008 67.1135 0.303948 65.3744L0.253574 62.6417C0.221405 60.8967 1.67994 59.4926 3.4225 59.5912L22.2693 60.6574C25.9835 60.8675 26.0704 66.3123 22.3648 66.6409L3.56838 68.3074Z" fill="url(#paint9_radial_39_32)"/>
<path d="M9.44776 37.7506C7.87041 37.0173 7.24535 35.1005 8.08717 33.5783L9.40987 31.1866C10.2545 29.6593 12.2197 29.1726 13.6795 30.1293L29.4682 40.476C32.5797 42.5151 29.9326 47.2739 26.5591 45.7056L9.44776 37.7506Z" fill="url(#paint10_radial_39_32)"/>
<path d="M29.8179 14.2273C28.8185 12.8036 29.2355 10.8311 30.7257 9.93377L33.067 8.52383C34.5622 7.62344 36.5074 8.18456 37.2933 9.74295L45.7934 26.5978C47.4685 29.9195 42.7966 32.7171 40.6592 29.6723L29.8179 14.2273Z" fill="url(#paint11_radial_39_32)"/>
<path d="M73.1893 17.5125C73.527 15.7363 75.3347 14.6489 77.062 15.1829C78.6787 15.6827 79.5729 17.4095 79.0483 19.0182L64.3122 64.2056L73.1893 17.5125Z" fill="url(#paint12_radial_39_32)"/>
<path d="M95.2203 28.4255C96.4008 27.0561 98.51 27.0182 99.7389 28.3444C100.889 29.5855 100.8 31.5281 99.5414 32.659L64.186 64.4244L95.2203 28.4255Z" fill="url(#paint13_radial_39_32)"/>
<path d="M108.843 48.8919C110.55 48.2962 112.396 49.318 112.797 51.081C113.172 52.7309 112.124 54.3687 110.469 54.7188L63.9672 64.5506L108.843 48.8919Z" fill="url(#paint14_radial_39_32)"/>
<path d="M110.408 73.4277C112.184 73.7654 113.271 75.5731 112.737 77.3004C112.237 78.9171 110.511 79.8113 108.902 79.2867L63.7146 64.5506L110.408 73.4277Z" fill="url(#paint15_radial_39_32)"/>
<path d="M99.4948 95.4587C100.864 96.6392 100.902 98.7484 99.5758 99.9773C98.3347 101.127 96.3922 101.039 95.2613 99.7798L63.4959 64.4244L99.4948 95.4587Z" fill="url(#paint16_radial_39_32)"/>
<path d="M79.0284 109.082C79.624 110.789 78.6022 112.634 76.8393 113.035C75.1893 113.411 73.5515 112.363 73.2015 110.707L63.3696 64.2056L79.0284 109.082Z" fill="url(#paint17_radial_39_32)"/>
<path d="M54.4925 110.646C54.1548 112.422 52.3471 113.51 50.6198 112.976C49.0031 112.476 48.1089 110.749 48.6335 109.14L63.3696 63.953L54.4925 110.646Z" fill="url(#paint18_radial_39_32)"/>
<path d="M32.4615 99.7331C31.281 101.103 29.1718 101.14 27.9429 99.8142C26.7927 98.5731 26.8816 96.6305 28.1404 95.4996L63.4959 63.7343L32.4615 99.7331Z" fill="url(#paint19_radial_39_32)"/>
<path d="M18.8386 79.2667C17.1316 79.8624 15.286 78.8406 14.8848 77.0776C14.5094 75.4277 15.5576 73.7899 17.2132 73.4398L63.7146 63.608L18.8386 79.2667Z" fill="url(#paint20_radial_39_32)"/>
<path d="M17.2741 54.7309C15.4979 54.3932 14.4105 52.5855 14.9445 50.8582C15.4443 49.2415 17.1711 48.3473 18.7798 48.8719L63.9672 63.608L17.2741 54.7309Z" fill="url(#paint21_radial_39_32)"/>
<path d="M28.1871 32.6999C26.8177 31.5194 26.7798 29.4102 28.106 28.1813C29.3471 27.0311 31.2897 27.1201 32.4206 28.3788L64.186 63.7343L28.1871 32.6999Z" fill="url(#paint22_radial_39_32)"/>
<path d="M48.6535 19.077C48.0578 17.37 49.0797 15.5244 50.8426 15.1232C52.4925 14.7478 54.1303 15.796 54.4804 17.4516L64.3122 63.953L48.6535 19.077Z" fill="url(#paint23_radial_39_32)"/>
<path d="M44.5248 41.9015C43.4203 41.9015 42.5248 42.7969 42.5248 43.9015V83.8954C42.5248 85 43.4203 85.8954 44.5248 85.8954H84.5188C85.6234 85.8954 86.5188 85 86.5188 83.8954V43.9015C86.5188 42.7969 85.6234 41.9015 84.5188 41.9015H44.5248ZM53.3298 54.7069C53.3298 53.6024 54.2252 52.7069 55.3298 52.7069H73.7126C74.8172 52.7069 75.7126 53.6024 75.7126 54.7069V73.0898C75.7126 74.1944 74.8172 75.0898 73.7126 75.0898H55.3298C54.2252 75.0898 53.3298 74.1944 53.3298 73.0898V54.7069Z" fill="#E85102"/>
<path d="M581.497 114.6V110.28H594.698C595.594 110.28 596.042 109.8 596.042 108.84V101.544H595.273C594.985 102.184 594.538 102.808 593.93 103.416C593.354 103.992 592.569 104.472 591.577 104.856C590.585 105.24 589.337 105.432 587.833 105.432C586.041 105.432 584.442 105.032 583.034 104.232C581.626 103.432 580.521 102.296 579.721 100.824C578.921 99.3519 578.521 97.6079 578.521 95.5919V81.3359H583.465V95.2079C583.465 97.2559 583.977 98.7759 585.001 99.7679C586.025 100.728 587.449 101.208 589.273 101.208C591.289 101.208 592.905 100.536 594.121 99.1919C595.369 97.8479 595.993 95.8959 595.993 93.3359V81.3359H600.938V109.848C600.938 111.288 600.506 112.44 599.642 113.304C598.81 114.168 597.657 114.6 596.185 114.6H581.497Z" fill="#111111"/>
<path d="M565.657 105C564.217 105 563.065 104.568 562.201 103.704C561.369 102.84 560.953 101.688 560.953 100.248V85.512H554.425V81.336H560.953V73.512H565.897V81.336H572.953V85.512H565.897V99.384C565.897 100.344 566.345 100.824 567.241 100.824H572.185V105H565.657Z" fill="#111111"/>
<path d="M540.484 105.672C538.084 105.672 535.989 105.176 534.197 104.184C532.405 103.16 530.997 101.736 529.973 99.9121C528.981 98.0561 528.484 95.9121 528.484 93.4801V92.9041C528.484 90.4401 528.981 88.2961 529.973 86.4721C530.965 84.6161 532.34 83.1921 534.1 82.2001C535.892 81.1761 537.956 80.6641 540.292 80.6641C542.564 80.6641 544.549 81.1761 546.245 82.2001C547.973 83.1921 549.316 84.5841 550.276 86.3761C551.236 88.1681 551.716 90.2641 551.716 92.6641V94.5361H533.525C533.589 96.6161 534.277 98.2801 535.589 99.5281C536.933 100.744 538.597 101.352 540.581 101.352C542.437 101.352 543.828 100.936 544.757 100.104C545.716 99.2721 546.453 98.3121 546.965 97.2241L551.044 99.3361C550.596 100.232 549.941 101.176 549.077 102.168C548.245 103.16 547.14 103.992 545.764 104.664C544.388 105.336 542.628 105.672 540.484 105.672ZM533.573 90.7441H546.676C546.548 88.9521 545.909 87.5601 544.757 86.5681C543.604 85.5441 542.101 85.0321 540.245 85.0321C538.389 85.0321 536.869 85.5441 535.685 86.5681C534.533 87.5601 533.829 88.9521 533.573 90.7441Z" fill="#111111"/>
<path d="M517.355 105V81.336H522.299V105H517.355ZM519.851 78.12C518.891 78.12 518.075 77.816 517.403 77.208C516.763 76.568 516.443 75.752 516.443 74.76C516.443 73.768 516.763 72.968 517.403 72.36C518.075 71.72 518.891 71.4 519.851 71.4C520.843 71.4 521.659 71.72 522.299 72.36C522.939 72.968 523.259 73.768 523.259 74.76C523.259 75.752 522.939 76.568 522.299 77.208C521.659 77.816 520.843 78.12 519.851 78.12Z" fill="#111111"/>
<path d="M499.941 105.672C497.669 105.672 495.605 105.192 493.749 104.232C491.925 103.272 490.469 101.88 489.381 100.056C488.325 98.2321 487.797 96.0401 487.797 93.4801V92.8561C487.797 90.2961 488.325 88.1201 489.381 86.3281C490.469 84.5041 491.925 83.1121 493.749 82.1521C495.605 81.1601 497.669 80.6641 499.941 80.6641C502.213 80.6641 504.149 81.0801 505.749 81.9121C507.349 82.7441 508.629 83.8481 509.589 85.2241C510.581 86.6001 511.221 88.1201 511.509 89.7841L506.709 90.7921C506.549 89.7361 506.213 88.7761 505.701 87.9121C505.189 87.0481 504.469 86.3601 503.541 85.8481C502.613 85.3361 501.445 85.0801 500.037 85.0801C498.661 85.0801 497.413 85.4001 496.293 86.0401C495.205 86.6481 494.341 87.5441 493.701 88.7281C493.061 89.8801 492.741 91.2881 492.741 92.9521V93.3841C492.741 95.0481 493.061 96.4721 493.701 97.6561C494.341 98.8401 495.205 99.7361 496.293 100.344C497.413 100.952 498.661 101.256 500.037 101.256C502.117 101.256 503.701 100.728 504.789 99.6721C505.877 98.5841 506.565 97.2081 506.853 95.5441L511.653 96.6481C511.269 98.2801 510.581 99.7841 509.589 101.16C508.629 102.536 507.349 103.64 505.749 104.472C504.149 105.272 502.213 105.672 499.941 105.672Z" fill="#111111"/>
<path d="M470.506 105.672C468.138 105.672 466.026 105.192 464.17 104.232C462.346 103.24 460.906 101.832 459.85 100.008C458.794 98.1841 458.266 96.0241 458.266 93.5281V92.8081C458.266 90.3121 458.794 88.1681 459.85 86.3761C460.906 84.5521 462.346 83.1441 464.17 82.1521C466.026 81.1601 468.138 80.6641 470.506 80.6641C472.874 80.6641 474.986 81.1601 476.842 82.1521C478.698 83.1441 480.154 84.5521 481.21 86.3761C482.266 88.1681 482.794 90.3121 482.794 92.8081V93.5281C482.794 96.0241 482.266 98.1841 481.21 100.008C480.154 101.832 478.698 103.24 476.842 104.232C474.986 105.192 472.874 105.672 470.506 105.672ZM470.506 101.256C472.682 101.256 474.442 100.568 475.786 99.1921C477.162 97.7841 477.85 95.8481 477.85 93.3841V92.9521C477.85 90.4881 477.178 88.5681 475.834 87.1921C474.49 85.7841 472.714 85.0801 470.506 85.0801C468.362 85.0801 466.602 85.7841 465.226 87.1921C463.882 88.5681 463.21 90.4881 463.21 92.9521V93.3841C463.21 95.8481 463.882 97.7841 465.226 99.1921C466.602 100.568 468.362 101.256 470.506 101.256Z" fill="#111111"/>
<path d="M441.448 105.672C438.92 105.672 436.68 105.224 434.728 104.328C432.776 103.432 431.24 102.12 430.12 100.392C429.032 98.632 428.488 96.504 428.488 94.008V92.808H433.624V94.008C433.624 96.376 434.328 98.152 435.736 99.336C437.176 100.52 439.08 101.112 441.448 101.112C443.848 101.112 445.656 100.616 446.872 99.624C448.088 98.6 448.696 97.288 448.696 95.688C448.696 94.632 448.408 93.768 447.832 93.096C447.256 92.424 446.44 91.896 445.384 91.512C444.328 91.096 443.064 90.712 441.592 90.36L439.816 89.928C437.672 89.416 435.8 88.792 434.2 88.056C432.632 87.288 431.416 86.28 430.552 85.032C429.688 83.784 429.256 82.184 429.256 80.232C429.256 78.248 429.736 76.552 430.696 75.144C431.688 73.736 433.048 72.648 434.776 71.88C436.504 71.112 438.536 70.728 440.872 70.728C443.208 70.728 445.288 71.128 447.112 71.928C448.968 72.728 450.424 73.912 451.48 75.48C452.536 77.048 453.064 79.016 453.064 81.384V83.112H447.928V81.384C447.928 79.944 447.624 78.776 447.016 77.88C446.44 76.984 445.624 76.328 444.568 75.912C443.512 75.496 442.28 75.288 440.872 75.288C438.824 75.288 437.224 75.72 436.072 76.584C434.952 77.416 434.392 78.584 434.392 80.088C434.392 81.112 434.632 81.96 435.112 82.632C435.624 83.272 436.36 83.8 437.32 84.216C438.28 84.632 439.48 85 440.92 85.32L442.696 85.752C444.872 86.232 446.792 86.856 448.456 87.624C450.12 88.36 451.432 89.368 452.392 90.648C453.352 91.928 453.832 93.576 453.832 95.592C453.832 97.608 453.32 99.368 452.296 100.872C451.304 102.376 449.88 103.56 448.024 104.424C446.168 105.256 443.976 105.672 441.448 105.672Z" fill="#111111"/>
<path d="M386.078 93.2881V92.5681C386.078 90.0721 386.574 87.9441 387.566 86.1841C388.59 84.4241 389.934 83.0641 391.598 82.1041C393.262 81.1441 395.086 80.6641 397.07 80.6641C399.374 80.6641 401.134 81.0961 402.35 81.9601C403.598 82.8241 404.51 83.7521 405.086 84.7441H405.854V81.3361H410.654V109.848C410.654 111.288 410.222 112.44 409.358 113.304C408.526 114.168 407.374 114.6 405.902 114.6H389.966V110.28H404.366C405.294 110.28 405.758 109.8 405.758 108.84V101.304H404.99C404.638 101.88 404.142 102.472 403.502 103.08C402.862 103.688 402.014 104.184 400.958 104.568C399.934 104.952 398.638 105.144 397.07 105.144C395.086 105.144 393.246 104.68 391.55 103.752C389.886 102.792 388.558 101.432 387.566 99.6721C386.574 97.8801 386.078 95.7521 386.078 93.2881ZM398.414 100.824C400.558 100.824 402.318 100.152 403.694 98.8081C405.102 97.4321 405.806 95.5441 405.806 93.1441V92.7121C405.806 90.2481 405.118 88.3601 403.742 87.0481C402.366 85.7041 400.59 85.0321 398.414 85.0321C396.302 85.0321 394.542 85.7041 393.134 87.0481C391.758 88.3601 391.07 90.2481 391.07 92.7121V93.1441C391.07 95.5441 391.758 97.4321 393.134 98.8081C394.542 100.152 396.302 100.824 398.414 100.824Z" fill="#111111"/>
<path d="M357.699 105V81.336H362.547V84.888H363.315C363.763 83.928 364.563 83.032 365.715 82.2C366.867 81.368 368.579 80.952 370.851 80.952C372.643 80.952 374.227 81.352 375.603 82.152C377.011 82.952 378.115 84.088 378.915 85.56C379.715 87 380.115 88.744 380.115 90.792V105H375.171V91.176C375.171 89.128 374.659 87.624 373.635 86.664C372.611 85.672 371.203 85.176 369.411 85.176C367.363 85.176 365.715 85.848 364.467 87.192C363.251 88.536 362.643 90.488 362.643 93.048V105H357.699Z" fill="#111111"/>
<path d="M345.418 105V81.336H350.362V105H345.418ZM347.914 78.12C346.954 78.12 346.138 77.816 345.466 77.208C344.826 76.568 344.506 75.752 344.506 74.76C344.506 73.768 344.826 72.968 345.466 72.36C346.138 71.72 346.954 71.4 347.914 71.4C348.906 71.4 349.722 71.72 350.362 72.36C351.002 72.968 351.322 73.768 351.322 74.76C351.322 75.752 351.002 76.568 350.362 77.208C349.722 77.816 348.906 78.12 347.914 78.12Z" fill="#111111"/>
<path d="M332.313 105C330.873 105 329.721 104.568 328.857 103.704C328.025 102.84 327.609 101.688 327.609 100.248V85.512H321.081V81.336H327.609V73.512H332.553V81.336H339.609V85.512H332.553V99.384C332.553 100.344 333.001 100.824 333.897 100.824H338.841V105H332.313Z" fill="#111111"/>
<path d="M303.021 105.432C301.229 105.432 299.629 105.032 298.221 104.232C296.813 103.432 295.709 102.296 294.909 100.824C294.109 99.3519 293.709 97.5919 293.709 95.5439V81.3359H298.653V95.2079C298.653 97.2559 299.165 98.7759 300.189 99.7679C301.213 100.728 302.637 101.208 304.461 101.208C306.477 101.208 308.093 100.536 309.309 99.1919C310.557 97.8159 311.181 95.8479 311.181 93.2879V81.3359H316.125V105H311.277V101.448H310.509C310.061 102.408 309.261 103.32 308.109 104.184C306.957 105.016 305.261 105.432 303.021 105.432Z" fill="#111111"/>
<path d="M263.199 114.6V81.3361H268.047V84.7441H268.815C269.423 83.6881 270.335 82.7441 271.551 81.9121C272.799 81.0801 274.575 80.6641 276.879 80.6641C278.863 80.6641 280.671 81.1441 282.303 82.1041C283.967 83.0641 285.295 84.4561 286.287 86.2801C287.311 88.0721 287.823 90.2481 287.823 92.8081V93.5281C287.823 96.0881 287.327 98.2801 286.335 100.104C285.343 101.896 284.015 103.272 282.351 104.232C280.687 105.192 278.863 105.672 276.879 105.672C275.343 105.672 274.047 105.48 272.991 105.096C271.935 104.712 271.087 104.232 270.447 103.656C269.807 103.048 269.295 102.424 268.911 101.784H268.143V114.6H263.199ZM275.439 101.352C277.615 101.352 279.391 100.664 280.767 99.2881C282.143 97.9121 282.831 95.9441 282.831 93.3841V92.9521C282.831 90.4241 282.127 88.4721 280.719 87.0961C279.343 85.7201 277.583 85.0321 275.439 85.0321C273.327 85.0321 271.567 85.7201 270.159 87.0961C268.783 88.4721 268.095 90.4241 268.095 92.9521V93.3841C268.095 95.9441 268.783 97.9121 270.159 99.2881C271.567 100.664 273.327 101.352 275.439 101.352Z" fill="#111111"/>
<path d="M222.043 105V81.336H226.891V84.12H227.659C228.107 83.288 228.827 82.552 229.819 81.912C230.811 81.272 232.155 80.952 233.851 80.952C235.611 80.952 237.019 81.32 238.075 82.056C239.163 82.76 239.979 83.672 240.523 84.792H241.291C241.835 83.704 242.619 82.792 243.643 82.056C244.699 81.32 246.187 80.952 248.107 80.952C249.643 80.952 251.003 81.272 252.187 81.912C253.371 82.52 254.315 83.448 255.019 84.696C255.723 85.912 256.075 87.432 256.075 89.256V105H251.131V89.64C251.131 88.2 250.731 87.096 249.931 86.328C249.163 85.528 248.059 85.128 246.619 85.128C245.083 85.128 243.851 85.624 242.923 86.616C241.995 87.608 241.531 89.032 241.531 90.888V105H236.587V89.64C236.587 88.2 236.187 87.096 235.387 86.328C234.619 85.528 233.515 85.128 232.075 85.128C230.539 85.128 229.307 85.624 228.379 86.616C227.451 87.608 226.987 89.032 226.987 90.888V105H222.043Z" fill="#111111"/>
<path d="M203.6 105.672C201.232 105.672 199.12 105.192 197.264 104.232C195.44 103.24 194 101.832 192.944 100.008C191.888 98.1841 191.36 96.0241 191.36 93.5281V92.8081C191.36 90.3121 191.888 88.1681 192.944 86.3761C194 84.5521 195.44 83.1441 197.264 82.1521C199.12 81.1601 201.232 80.6641 203.6 80.6641C205.968 80.6641 208.08 81.1601 209.936 82.1521C211.792 83.1441 213.248 84.5521 214.304 86.3761C215.36 88.1681 215.888 90.3121 215.888 92.8081V93.5281C215.888 96.0241 215.36 98.1841 214.304 100.008C213.248 101.832 211.792 103.24 209.936 104.232C208.08 105.192 205.968 105.672 203.6 105.672ZM203.6 101.256C205.776 101.256 207.536 100.568 208.88 99.1921C210.256 97.7841 210.944 95.8481 210.944 93.3841V92.9521C210.944 90.4881 210.272 88.5681 208.928 87.1921C207.584 85.7841 205.808 85.0801 203.6 85.0801C201.456 85.0801 199.696 85.7841 198.32 87.1921C196.976 88.5681 196.304 90.4881 196.304 92.9521V93.3841C196.304 95.8481 196.976 97.7841 198.32 99.1921C199.696 100.568 201.456 101.256 203.6 101.256Z" fill="#111111"/>
<path d="M174.004 105.672C169.908 105.672 166.66 104.52 164.26 102.216C161.86 99.88 160.66 96.52 160.66 92.136V84.264C160.66 79.88 161.86 76.536 164.26 74.232C166.66 71.896 169.908 70.728 174.004 70.728C178.036 70.728 181.14 71.848 183.316 74.088C185.524 76.328 186.628 79.384 186.628 83.256V83.544H181.492V83.112C181.492 80.84 180.868 78.984 179.62 77.544C178.404 76.104 176.532 75.384 174.004 75.384C171.444 75.384 169.444 76.168 168.004 77.736C166.564 79.272 165.844 81.416 165.844 84.168V92.232C165.844 94.952 166.564 97.096 168.004 98.664C169.444 100.232 171.444 101.016 174.004 101.016C176.532 101.016 178.404 100.296 179.62 98.856C180.868 97.384 181.492 95.528 181.492 93.288V92.472H186.628V93.144C186.628 97.016 185.524 100.072 183.316 102.312C181.14 104.552 178.036 105.672 174.004 105.672Z" fill="#111111"/>
<path d="M371.663 47.672C369.711 47.672 367.903 47.192 366.239 46.232C364.575 45.272 363.231 43.896 362.207 42.104C361.215 40.28 360.719 38.088 360.719 35.528V34.808C360.719 32.28 361.215 30.104 362.207 28.28C363.199 26.456 364.527 25.064 366.191 24.104C367.855 23.144 369.679 22.664 371.663 22.664C373.199 22.664 374.479 22.856 375.503 23.24C376.559 23.624 377.423 24.12 378.095 24.728C378.767 25.304 379.279 25.912 379.631 26.552H380.399V13.4H385.343V47H380.495V43.64H379.727C379.119 44.664 378.191 45.592 376.943 46.424C375.727 47.256 373.967 47.672 371.663 47.672ZM373.055 43.352C375.199 43.352 376.959 42.664 378.335 41.288C379.743 39.912 380.447 37.944 380.447 35.384V34.952C380.447 32.424 379.759 30.472 378.383 29.096C377.007 27.72 375.231 27.032 373.055 27.032C370.943 27.032 369.183 27.72 367.775 29.096C366.399 30.472 365.711 32.424 365.711 34.952V35.384C365.711 37.944 366.399 39.912 367.775 41.288C369.183 42.664 370.943 43.352 373.055 43.352Z" fill="#111111"/>
<path d="M344.688 47.6719C342.288 47.6719 340.192 47.1759 338.4 46.1839C336.608 45.1599 335.2 43.7359 334.176 41.9119C333.184 40.0559 332.688 37.9119 332.688 35.4799V34.9039C332.688 32.4399 333.184 30.2959 334.176 28.4719C335.168 26.6159 336.544 25.1919 338.304 24.1999C340.096 23.1759 342.16 22.6639 344.496 22.6639C346.768 22.6639 348.752 23.1759 350.448 24.1999C352.176 25.1919 353.52 26.5839 354.48 28.3759C355.44 30.1679 355.92 32.2639 355.92 34.6639V36.5359H337.728C337.792 38.6159 338.48 40.2799 339.792 41.5279C341.136 42.7439 342.8 43.3519 344.784 43.3519C346.64 43.3519 348.032 42.9359 348.96 42.1039C349.92 41.2719 350.656 40.3119 351.168 39.2239L355.248 41.3359C354.8 42.2319 354.144 43.1759 353.28 44.1679C352.448 45.1599 351.344 45.9919 349.968 46.6639C348.592 47.3359 346.832 47.6719 344.688 47.6719ZM337.776 32.7439H350.88C350.752 30.9519 350.112 29.5599 348.96 28.5679C347.808 27.5439 346.304 27.0319 344.448 27.0319C342.592 27.0319 341.072 27.5439 339.888 28.5679C338.736 29.5599 338.032 30.9519 337.776 32.7439Z" fill="#111111"/>
<path d="M316.425 47.6719C314.153 47.6719 312.089 47.1919 310.233 46.2319C308.409 45.2719 306.953 43.8799 305.865 42.0559C304.809 40.2319 304.281 38.0399 304.281 35.4799V34.8559C304.281 32.2959 304.809 30.1199 305.865 28.3279C306.953 26.5039 308.409 25.1119 310.233 24.1519C312.089 23.1599 314.153 22.6639 316.425 22.6639C318.697 22.6639 320.633 23.0799 322.233 23.9119C323.833 24.7439 325.113 25.8479 326.073 27.2239C327.065 28.5999 327.705 30.1199 327.993 31.7839L323.193 32.7919C323.033 31.7359 322.697 30.7759 322.185 29.9119C321.673 29.0479 320.953 28.3599 320.025 27.8479C319.097 27.3359 317.929 27.0799 316.521 27.0799C315.145 27.0799 313.897 27.3999 312.777 28.0399C311.689 28.6479 310.825 29.5439 310.185 30.7279C309.545 31.8799 309.225 33.2879 309.225 34.9519V35.3839C309.225 37.0479 309.545 38.4719 310.185 39.6559C310.825 40.8399 311.689 41.7359 312.777 42.3439C313.897 42.9519 315.145 43.2559 316.521 43.2559C318.601 43.2559 320.185 42.7279 321.273 41.6719C322.361 40.5839 323.049 39.2079 323.337 37.5439L328.137 38.6479C327.753 40.2799 327.065 41.7839 326.073 43.1599C325.113 44.5359 323.833 45.6399 322.233 46.4719C320.633 47.2719 318.697 47.6719 316.425 47.6719Z" fill="#111111"/>
<path d="M275.902 47V23.336H280.75V26.888H281.518C281.966 25.928 282.766 25.032 283.918 24.2C285.07 23.368 286.782 22.952 289.054 22.952C290.846 22.952 292.43 23.352 293.806 24.152C295.214 24.952 296.318 26.088 297.118 27.56C297.918 29 298.318 30.744 298.318 32.792V47H293.374V33.176C293.374 31.128 292.862 29.624 291.838 28.664C290.814 27.672 289.406 27.176 287.614 27.176C285.566 27.176 283.918 27.848 282.67 29.192C281.454 30.536 280.846 32.488 280.846 35.048V47H275.902Z" fill="#111111"/>
<path d="M255.543 47.6719C253.847 47.6719 252.327 47.3839 250.983 46.8079C249.671 46.2319 248.615 45.3839 247.815 44.2639C247.047 43.1439 246.663 41.7839 246.663 40.1839C246.663 38.5519 247.047 37.2079 247.815 36.1519C248.615 35.0639 249.687 34.2479 251.031 33.7039C252.407 33.1599 253.959 32.8879 255.687 32.8879H262.887V31.3519C262.887 29.9759 262.471 28.8719 261.639 28.0399C260.807 27.2079 259.527 26.7919 257.799 26.7919C256.103 26.7919 254.807 27.1919 253.911 27.9919C253.015 28.7919 252.423 29.8319 252.135 31.1119L247.527 29.6239C247.911 28.3439 248.519 27.1919 249.351 26.1679C250.215 25.1119 251.351 24.2639 252.759 23.6239C254.167 22.9839 255.863 22.6639 257.847 22.6639C260.919 22.6639 263.335 23.4479 265.095 25.0159C266.855 26.5839 267.735 28.8079 267.735 31.6879V41.4319C267.735 42.3919 268.183 42.8719 269.079 42.8719H271.095V46.9999H267.399C266.279 46.9999 265.367 46.7119 264.663 46.1359C263.959 45.5599 263.607 44.7759 263.607 43.7839V43.6399H262.887C262.631 44.1199 262.247 44.6799 261.735 45.3199C261.223 45.9599 260.471 46.5199 259.479 46.9999C258.487 47.4479 257.175 47.6719 255.543 47.6719ZM256.263 43.5919C258.247 43.5919 259.847 43.0319 261.063 41.9119C262.279 40.7599 262.887 39.1919 262.887 37.2079V36.7279H255.975C254.663 36.7279 253.607 37.0159 252.807 37.5919C252.007 38.1359 251.607 38.9519 251.607 40.0399C251.607 41.1279 252.023 41.9919 252.855 42.6319C253.687 43.2719 254.823 43.5919 256.263 43.5919Z" fill="#111111"/>
<path d="M228.218 46.9999L220.25 23.3359H225.482L231.77 43.3519H232.538L238.826 23.3359H244.058L236.09 46.9999H228.218Z" fill="#111111"/>
<path d="M201.788 47.672C199.836 47.672 198.028 47.192 196.364 46.232C194.7 45.272 193.356 43.896 192.332 42.104C191.34 40.28 190.844 38.088 190.844 35.528V34.808C190.844 32.28 191.34 30.104 192.332 28.28C193.324 26.456 194.652 25.064 196.316 24.104C197.98 23.144 199.804 22.664 201.788 22.664C203.324 22.664 204.604 22.856 205.628 23.24C206.684 23.624 207.548 24.12 208.22 24.728C208.892 25.304 209.404 25.912 209.756 26.552H210.524V13.4H215.468V47H210.62V43.64H209.852C209.244 44.664 208.316 45.592 207.068 46.424C205.852 47.256 204.092 47.672 201.788 47.672ZM203.18 43.352C205.324 43.352 207.084 42.664 208.46 41.288C209.868 39.912 210.572 37.944 210.572 35.384V34.952C210.572 32.424 209.884 30.472 208.508 29.096C207.132 27.72 205.356 27.032 203.18 27.032C201.068 27.032 199.308 27.72 197.9 29.096C196.524 30.472 195.836 32.424 195.836 34.952V35.384C195.836 37.944 196.524 39.912 197.9 41.288C199.308 42.664 201.068 43.352 203.18 43.352Z" fill="#111111"/>
<path d="M159.028 47L168.628 13.4H177.748L187.3 47H181.972L179.764 39.08H166.612L164.404 47H159.028ZM167.908 34.28H178.468L173.572 16.616H172.804L167.908 34.28Z" fill="#111111"/>
<defs>
<radialGradient id="paint0_radial_39_32" cx="0" cy="0" r="1" gradientUnits="userSpaceOnUse" gradientTransform="translate(63.5278 64.0001) rotate(90) scale(52.3676 63.2747)">
<stop offset="0.552885" stop-color="#E85102" stop-opacity="0"/>
<stop offset="0.745192" stop-color="#E85102" stop-opacity="0.3"/>
<stop offset="0.846154" stop-color="#E85102" stop-opacity="0.6"/>
<stop offset="1" stop-color="#E85102"/>
</radialGradient>
<radialGradient id="paint1_radial_39_32" cx="0" cy="0" r="1" gradientUnits="userSpaceOnUse" gradientTransform="translate(63.5278 64.0001) rotate(90) scale(52.3676 63.2747)">
<stop offset="0.552885" stop-color="#E85102" stop-opacity="0"/>
<stop offset="0.745192" stop-color="#E85102" stop-opacity="0.3"/>
<stop offset="0.846154" stop-color="#E85102" stop-opacity="0.6"/>
<stop offset="1" stop-color="#E85102"/>
</radialGradient>
<radialGradient id="paint2_radial_39_32" cx="0" cy="0" r="1" gradientUnits="userSpaceOnUse" gradientTransform="translate(63.5278 64.0001) rotate(90) scale(52.3676 63.2747)">
<stop offset="0.552885" stop-color="#E85102" stop-opacity="0"/>
<stop offset="0.745192" stop-color="#E85102" stop-opacity="0.3"/>
<stop offset="0.846154" stop-color="#E85102" stop-opacity="0.6"/>
<stop offset="1" stop-color="#E85102"/>
</radialGradient>
<radialGradient id="paint3_radial_39_32" cx="0" cy="0" r="1" gradientUnits="userSpaceOnUse" gradientTransform="translate(63.5278 64.0001) rotate(90) scale(52.3676 63.2747)">
<stop offset="0.552885" stop-color="#E85102" stop-opacity="0"/>
<stop offset="0.745192" stop-color="#E85102" stop-opacity="0.3"/>
<stop offset="0.846154" stop-color="#E85102" stop-opacity="0.6"/>
<stop offset="1" stop-color="#E85102"/>
</radialGradient>
<radialGradient id="paint4_radial_39_32" cx="0" cy="0" r="1" gradientUnits="userSpaceOnUse" gradientTransform="translate(63.5278 64.0001) rotate(90) scale(52.3676 63.2747)">
<stop offset="0.552885" stop-color="#E85102" stop-opacity="0"/>
<stop offset="0.745192" stop-color="#E85102" stop-opacity="0.3"/>
<stop offset="0.846154" stop-color="#E85102" stop-opacity="0.6"/>
<stop offset="1" stop-color="#E85102"/>
</radialGradient>
<radialGradient id="paint5_radial_39_32" cx="0" cy="0" r="1" gradientUnits="userSpaceOnUse" gradientTransform="translate(63.5278 64.0001) rotate(90) scale(52.3676 63.2747)">
<stop offset="0.552885" stop-color="#E85102" stop-opacity="0"/>
<stop offset="0.745192" stop-color="#E85102" stop-opacity="0.3"/>
<stop offset="0.846154" stop-color="#E85102" stop-opacity="0.6"/>
<stop offset="1" stop-color="#E85102"/>
</radialGradient>
<radialGradient id="paint6_radial_39_32" cx="0" cy="0" r="1" gradientUnits="userSpaceOnUse" gradientTransform="translate(63.5278 64.0001) rotate(90) scale(52.3676 63.2747)">
<stop offset="0.552885" stop-color="#E85102" stop-opacity="0"/>
<stop offset="0.745192" stop-color="#E85102" stop-opacity="0.3"/>
<stop offset="0.846154" stop-color="#E85102" stop-opacity="0.6"/>
<stop offset="1" stop-color="#E85102"/>
</radialGradient>
<radialGradient id="paint7_radial_39_32" cx="0" cy="0" r="1" gradientUnits="userSpaceOnUse" gradientTransform="translate(63.5278 64.0001) rotate(90) scale(52.3676 63.2747)">
<stop offset="0.552885" stop-color="#E85102" stop-opacity="0"/>
<stop offset="0.745192" stop-color="#E85102" stop-opacity="0.3"/>
<stop offset="0.846154" stop-color="#E85102" stop-opacity="0.6"/>
<stop offset="1" stop-color="#E85102"/>
</radialGradient>
<radialGradient id="paint8_radial_39_32" cx="0" cy="0" r="1" gradientUnits="userSpaceOnUse" gradientTransform="translate(63.5278 64.0001) rotate(90) scale(52.3676 63.2747)">
<stop offset="0.552885" stop-color="#E85102" stop-opacity="0"/>
<stop offset="0.745192" stop-color="#E85102" stop-opacity="0.3"/>
<stop offset="0.846154" stop-color="#E85102" stop-opacity="0.6"/>
<stop offset="1" stop-color="#E85102"/>
</radialGradient>
<radialGradient id="paint9_radial_39_32" cx="0" cy="0" r="1" gradientUnits="userSpaceOnUse" gradientTransform="translate(63.5278 64.0001) rotate(90) scale(52.3676 63.2747)">
<stop offset="0.552885" stop-color="#E85102" stop-opacity="0"/>
<stop offset="0.745192" stop-color="#E85102" stop-opacity="0.3"/>
<stop offset="0.846154" stop-color="#E85102" stop-opacity="0.6"/>
<stop offset="1" stop-color="#E85102"/>
</radialGradient>
<radialGradient id="paint10_radial_39_32" cx="0" cy="0" r="1" gradientUnits="userSpaceOnUse" gradientTransform="translate(63.5278 64.0001) rotate(90) scale(52.3676 63.2747)">
<stop offset="0.552885" stop-color="#E85102" stop-opacity="0"/>
<stop offset="0.745192" stop-color="#E85102" stop-opacity="0.3"/>
<stop offset="0.846154" stop-color="#E85102" stop-opacity="0.6"/>
<stop offset="1" stop-color="#E85102"/>
</radialGradient>
<radialGradient id="paint11_radial_39_32" cx="0" cy="0" r="1" gradientUnits="userSpaceOnUse" gradientTransform="translate(63.5278 64.0001) rotate(90) scale(52.3676 63.2747)">
<stop offset="0.552885" stop-color="#E85102" stop-opacity="0"/>
<stop offset="0.745192" stop-color="#E85102" stop-opacity="0.3"/>
<stop offset="0.846154" stop-color="#E85102" stop-opacity="0.6"/>
<stop offset="1" stop-color="#E85102"/>
</radialGradient>
<radialGradient id="paint12_radial_39_32" cx="0" cy="0" r="1" gradientUnits="userSpaceOnUse" gradientTransform="translate(63.8409 63.4088) rotate(-103.93) scale(49.8276 50.5184)">
<stop offset="0.466346" stop-color="#E85102" stop-opacity="0"/>
<stop offset="0.629808" stop-color="#E85102" stop-opacity="0.3"/>
<stop offset="0.788462" stop-color="#E85102" stop-opacity="0.6"/>
<stop offset="1" stop-color="#E85102"/>
</radialGradient>
<radialGradient id="paint13_radial_39_32" cx="0" cy="0" r="1" gradientUnits="userSpaceOnUse" gradientTransform="translate(63.8409 63.4088) rotate(-103.93) scale(49.8276 50.5184)">
<stop offset="0.466346" stop-color="#E85102" stop-opacity="0"/>
<stop offset="0.629808" stop-color="#E85102" stop-opacity="0.3"/>
<stop offset="0.788462" stop-color="#E85102" stop-opacity="0.6"/>
<stop offset="1" stop-color="#E85102"/>
</radialGradient>
<radialGradient id="paint14_radial_39_32" cx="0" cy="0" r="1" gradientUnits="userSpaceOnUse" gradientTransform="translate(63.8409 63.4088) rotate(-103.93) scale(49.8276 50.5184)">
<stop offset="0.466346" stop-color="#E85102" stop-opacity="0"/>
<stop offset="0.629808" stop-color="#E85102" stop-opacity="0.3"/>
<stop offset="0.788462" stop-color="#E85102" stop-opacity="0.6"/>
<stop offset="1" stop-color="#E85102"/>
</radialGradient>
<radialGradient id="paint15_radial_39_32" cx="0" cy="0" r="1" gradientUnits="userSpaceOnUse" gradientTransform="translate(63.8409 63.4088) rotate(-103.93) scale(49.8276 50.5184)">
<stop offset="0.466346" stop-color="#E85102" stop-opacity="0"/>
<stop offset="0.629808" stop-color="#E85102" stop-opacity="0.3"/>
<stop offset="0.788462" stop-color="#E85102" stop-opacity="0.6"/>
<stop offset="1" stop-color="#E85102"/>
</radialGradient>
<radialGradient id="paint16_radial_39_32" cx="0" cy="0" r="1" gradientUnits="userSpaceOnUse" gradientTransform="translate(63.8409 63.4088) rotate(-103.93) scale(49.8276 50.5184)">
<stop offset="0.466346" stop-color="#E85102" stop-opacity="0"/>
<stop offset="0.629808" stop-color="#E85102" stop-opacity="0.3"/>
<stop offset="0.788462" stop-color="#E85102" stop-opacity="0.6"/>
<stop offset="1" stop-color="#E85102"/>
</radialGradient>
<radialGradient id="paint17_radial_39_32" cx="0" cy="0" r="1" gradientUnits="userSpaceOnUse" gradientTransform="translate(63.8409 63.4088) rotate(-103.93) scale(49.8276 50.5184)">
<stop offset="0.466346" stop-color="#E85102" stop-opacity="0"/>
<stop offset="0.629808" stop-color="#E85102" stop-opacity="0.3"/>
<stop offset="0.788462" stop-color="#E85102" stop-opacity="0.6"/>
<stop offset="1" stop-color="#E85102"/>
</radialGradient>
<radialGradient id="paint18_radial_39_32" cx="0" cy="0" r="1" gradientUnits="userSpaceOnUse" gradientTransform="translate(63.8409 63.4088) rotate(-103.93) scale(49.8276 50.5184)">
<stop offset="0.466346" stop-color="#E85102" stop-opacity="0"/>
<stop offset="0.629808" stop-color="#E85102" stop-opacity="0.3"/>
<stop offset="0.788462" stop-color="#E85102" stop-opacity="0.6"/>
<stop offset="1" stop-color="#E85102"/>
</radialGradient>
<radialGradient id="paint19_radial_39_32" cx="0" cy="0" r="1" gradientUnits="userSpaceOnUse" gradientTransform="translate(63.8409 63.4088) rotate(-103.93) scale(49.8276 50.5184)">
<stop offset="0.466346" stop-color="#E85102" stop-opacity="0"/>
<stop offset="0.629808" stop-color="#E85102" stop-opacity="0.3"/>
<stop offset="0.788462" stop-color="#E85102" stop-opacity="0.6"/>
<stop offset="1" stop-color="#E85102"/>
</radialGradient>
<radialGradient id="paint20_radial_39_32" cx="0" cy="0" r="1" gradientUnits="userSpaceOnUse" gradientTransform="translate(63.8409 63.4088) rotate(-103.93) scale(49.8276 50.5184)">
<stop offset="0.466346" stop-color="#E85102" stop-opacity="0"/>
<stop offset="0.629808" stop-color="#E85102" stop-opacity="0.3"/>
<stop offset="0.788462" stop-color="#E85102" stop-opacity="0.6"/>
<stop offset="1" stop-color="#E85102"/>
</radialGradient>
<radialGradient id="paint21_radial_39_32" cx="0" cy="0" r="1" gradientUnits="userSpaceOnUse" gradientTransform="translate(63.8409 63.4088) rotate(-103.93) scale(49.8276 50.5184)">
<stop offset="0.466346" stop-color="#E85102" stop-opacity="0"/>
<stop offset="0.629808" stop-color="#E85102" stop-opacity="0.3"/>
<stop offset="0.788462" stop-color="#E85102" stop-opacity="0.6"/>
<stop offset="1" stop-color="#E85102"/>
</radialGradient>
<radialGradient id="paint22_radial_39_32" cx="0" cy="0" r="1" gradientUnits="userSpaceOnUse" gradientTransform="translate(63.8409 63.4088) rotate(-103.93) scale(49.8276 50.5184)">
<stop offset="0.466346" stop-color="#E85102" stop-opacity="0"/>
<stop offset="0.629808" stop-color="#E85102" stop-opacity="0.3"/>
<stop offset="0.788462" stop-color="#E85102" stop-opacity="0.6"/>
<stop offset="1" stop-color="#E85102"/>
</radialGradient>
<radialGradient id="paint23_radial_39_32" cx="0" cy="0" r="1" gradientUnits="userSpaceOnUse" gradientTransform="translate(63.8409 63.4088) rotate(-103.93) scale(49.8276 50.5184)">
<stop offset="0.466346" stop-color="#E85102" stop-opacity="0"/>
<stop offset="0.629808" stop-color="#E85102" stop-opacity="0.3"/>
<stop offset="0.788462" stop-color="#E85102" stop-opacity="0.6"/>
<stop offset="1" stop-color="#E85102"/>
</radialGradient>
</defs>
</svg>
