<svg width="626" height="128" viewBox="0 0 626 128" fill="none" xmlns="http://www.w3.org/2000/svg" xmlns:xlink="http://www.w3.org/1999/xlink">
<g id="Repeat group 1_inner" data-figma-trr="r12u1-0f">
<path d="M59.2204 4.04067C59.0668 2.30799 60.4143 0.808295 62.1534 0.776234L64.8861 0.72586C66.6311 0.693691 68.0352 2.15223 67.9366 3.89479L66.8704 22.7416C66.6603 26.4558 61.2155 26.5427 60.8869 22.8371L59.2204 4.04067Z" fill="url(#paint0_linear_23_411)"/>
</g>
<use xlink:href="#Repeat%20group%201_inner" transform="translate(40.2574 -23.2426) rotate(30)"/>
<use xlink:href="#Repeat%20group%201_inner" transform="translate(86.7427 -23.2426) rotate(60)"/>
<use xlink:href="#Repeat%20group%201_inner" transform="translate(127 7.29005e-05) rotate(90)"/>
<use xlink:href="#Repeat%20group%201_inner" transform="translate(150.243 40.2575) rotate(120)"/>
<use xlink:href="#Repeat%20group%201_inner" transform="translate(150.243 86.7427) rotate(150)"/>
<use xlink:href="#Repeat%20group%201_inner" transform="translate(127 127) rotate(-180)"/>
<use xlink:href="#Repeat%20group%201_inner" transform="translate(86.7425 150.243) rotate(-150)"/>
<use xlink:href="#Repeat%20group%201_inner" transform="translate(40.2573 150.243) rotate(-120)"/>
<use xlink:href="#Repeat%20group%201_inner" transform="translate(-7.08821e-05 127) rotate(-90)"/>
<use xlink:href="#Repeat%20group%201_inner" transform="translate(-23.2427 86.7426) rotate(-60)"/>
<use xlink:href="#Repeat%20group%201_inner" transform="translate(-23.2426 40.2574) rotate(-30)"/>
<g id="Repeat group 2_inner" data-figma-trr="r12u1-0f">
<path d="M73.1893 17.5124C73.527 15.7363 75.3347 14.6489 77.0621 15.1829C78.6787 15.6827 79.5729 17.4094 79.0483 19.0182L64.3123 64.2056L73.1893 17.5124Z" fill="url(#paint1_linear_23_411)"/>
</g>
<use xlink:href="#Repeat%20group%202_inner" transform="translate(32.2591 -18.6248) rotate(30)"/>
<use xlink:href="#Repeat%20group%202_inner" transform="translate(69.5087 -18.6248) rotate(60)"/>
<use xlink:href="#Repeat%20group%202_inner" transform="translate(101.768 -1.07324e-05) rotate(90)"/>
<use xlink:href="#Repeat%20group%202_inner" transform="translate(120.393 32.2591) rotate(120)"/>
<use xlink:href="#Repeat%20group%202_inner" transform="translate(120.393 69.5087) rotate(150)"/>
<use xlink:href="#Repeat%20group%202_inner" transform="translate(101.768 101.768) rotate(-180)"/>
<use xlink:href="#Repeat%20group%202_inner" transform="translate(69.5087 120.393) rotate(-150)"/>
<use xlink:href="#Repeat%20group%202_inner" transform="translate(32.2591 120.393) rotate(-120)"/>
<use xlink:href="#Repeat%20group%202_inner" transform="translate(1.23498e-05 101.768) rotate(-90)"/>
<use xlink:href="#Repeat%20group%202_inner" transform="translate(-18.6248 69.5087) rotate(-60)"/>
<use xlink:href="#Repeat%20group%202_inner" transform="translate(-18.6248 32.2591) rotate(-30)"/>
<g filter="url(#filter0_dddd_23_411)">
<rect x="42.5248" y="41.9015" width="43.994" height="43.994" rx="2" fill="#E85102"/>
<rect x="53.3297" y="52.7069" width="22.3829" height="22.3829" rx="2" fill="#E3E9E9"/>
</g>
<path d="M160.036 46.5L169.636 12.9H178.756L188.308 46.5H182.98L180.772 38.58H167.62L165.412 46.5H160.036ZM168.916 33.78H179.476L174.58 16.116H173.812L168.916 33.78ZM202.796 47.172C200.844 47.172 199.036 46.692 197.372 45.732C195.708 44.772 194.364 43.396 193.34 41.604C192.348 39.78 191.852 37.588 191.852 35.028V34.308C191.852 31.78 192.348 29.604 193.34 27.78C194.332 25.956 195.66 24.564 197.324 23.604C198.988 22.644 200.812 22.164 202.796 22.164C204.332 22.164 205.612 22.356 206.636 22.74C207.692 23.124 208.556 23.62 209.228 24.228C209.9 24.804 210.412 25.412 210.764 26.052H211.532V12.9H216.476V46.5H211.628V43.14H210.86C210.252 44.164 209.324 45.092 208.076 45.924C206.86 46.756 205.1 47.172 202.796 47.172ZM204.188 42.852C206.332 42.852 208.092 42.164 209.468 40.788C210.876 39.412 211.58 37.444 211.58 34.884V34.452C211.58 31.924 210.892 29.972 209.516 28.596C208.14 27.22 206.364 26.532 204.188 26.532C202.076 26.532 200.316 27.22 198.908 28.596C197.532 29.972 196.844 31.924 196.844 34.452V34.884C196.844 37.444 197.532 39.412 198.908 40.788C200.316 42.164 202.076 42.852 204.188 42.852ZM229.226 46.5L221.258 22.836H226.49L232.778 42.852H233.546L239.834 22.836H245.066L237.098 46.5H229.226ZM256.551 47.172C254.855 47.172 253.335 46.884 251.991 46.308C250.679 45.732 249.623 44.884 248.823 43.764C248.055 42.644 247.671 41.284 247.671 39.684C247.671 38.052 248.055 36.708 248.823 35.652C249.623 34.564 250.695 33.748 252.039 33.204C253.415 32.66 254.967 32.388 256.695 32.388H263.895V30.852C263.895 29.476 263.479 28.372 262.647 27.54C261.815 26.708 260.535 26.292 258.807 26.292C257.111 26.292 255.815 26.692 254.919 27.492C254.023 28.292 253.431 29.332 253.143 30.612L248.535 29.124C248.919 27.844 249.527 26.692 250.359 25.668C251.223 24.612 252.359 23.764 253.767 23.124C255.175 22.484 256.871 22.164 258.855 22.164C261.927 22.164 264.343 22.948 266.103 24.516C267.863 26.084 268.743 28.308 268.743 31.188V40.932C268.743 41.892 269.191 42.372 270.087 42.372H272.103V46.5H268.407C267.287 46.5 266.375 46.212 265.671 45.636C264.967 45.06 264.615 44.276 264.615 43.284V43.14H263.895C263.639 43.62 263.255 44.18 262.743 44.82C262.231 45.46 261.479 46.02 260.487 46.5C259.495 46.948 258.183 47.172 256.551 47.172ZM257.271 43.092C259.255 43.092 260.855 42.532 262.071 41.412C263.287 40.26 263.895 38.692 263.895 36.708V36.228H256.983C255.671 36.228 254.615 36.516 253.815 37.092C253.015 37.636 252.615 38.452 252.615 39.54C252.615 40.628 253.031 41.492 253.863 42.132C254.695 42.772 255.831 43.092 257.271 43.092ZM276.91 46.5V22.836H281.758V26.388H282.526C282.974 25.428 283.774 24.532 284.926 23.7C286.078 22.868 287.79 22.452 290.062 22.452C291.854 22.452 293.438 22.852 294.814 23.652C296.222 24.452 297.326 25.588 298.126 27.06C298.926 28.5 299.326 30.244 299.326 32.292V46.5H294.382V32.676C294.382 30.628 293.87 29.124 292.846 28.164C291.822 27.172 290.414 26.676 288.622 26.676C286.574 26.676 284.926 27.348 283.678 28.692C282.462 30.036 281.854 31.988 281.854 34.548V46.5H276.91ZM317.433 47.172C315.161 47.172 313.097 46.692 311.241 45.732C309.417 44.772 307.961 43.38 306.873 41.556C305.817 39.732 305.289 37.54 305.289 34.98V34.356C305.289 31.796 305.817 29.62 306.873 27.828C307.961 26.004 309.417 24.612 311.241 23.652C313.097 22.66 315.161 22.164 317.433 22.164C319.705 22.164 321.641 22.58 323.241 23.412C324.841 24.244 326.121 25.348 327.081 26.724C328.073 28.1 328.713 29.62 329.001 31.284L324.201 32.292C324.041 31.236 323.705 30.276 323.193 29.412C322.681 28.548 321.961 27.86 321.033 27.348C320.105 26.836 318.937 26.58 317.529 26.58C316.153 26.58 314.905 26.9 313.785 27.54C312.697 28.148 311.833 29.044 311.193 30.228C310.553 31.38 310.233 32.788 310.233 34.452V34.884C310.233 36.548 310.553 37.972 311.193 39.156C311.833 40.34 312.697 41.236 313.785 41.844C314.905 42.452 316.153 42.756 317.529 42.756C319.609 42.756 321.193 42.228 322.281 41.172C323.369 40.084 324.057 38.708 324.345 37.044L329.145 38.148C328.761 39.78 328.073 41.284 327.081 42.66C326.121 44.036 324.841 45.14 323.241 45.972C321.641 46.772 319.705 47.172 317.433 47.172ZM345.696 47.172C343.296 47.172 341.2 46.676 339.408 45.684C337.616 44.66 336.208 43.236 335.184 41.412C334.192 39.556 333.696 37.412 333.696 34.98V34.404C333.696 31.94 334.192 29.796 335.184 27.972C336.176 26.116 337.552 24.692 339.312 23.7C341.104 22.676 343.168 22.164 345.504 22.164C347.776 22.164 349.76 22.676 351.456 23.7C353.184 24.692 354.528 26.084 355.488 27.876C356.448 29.668 356.928 31.764 356.928 34.164V36.036H338.736C338.8 38.116 339.488 39.78 340.8 41.028C342.144 42.244 343.808 42.852 345.792 42.852C347.648 42.852 349.04 42.436 349.968 41.604C350.928 40.772 351.664 39.812 352.176 38.724L356.256 40.836C355.808 41.732 355.152 42.676 354.288 43.668C353.456 44.66 352.352 45.492 350.976 46.164C349.6 46.836 347.84 47.172 345.696 47.172ZM338.784 32.244H351.888C351.76 30.452 351.12 29.06 349.968 28.068C348.816 27.044 347.312 26.532 345.456 26.532C343.6 26.532 342.08 27.044 340.896 28.068C339.744 29.06 339.04 30.452 338.784 32.244ZM372.671 47.172C370.719 47.172 368.911 46.692 367.247 45.732C365.583 44.772 364.239 43.396 363.215 41.604C362.223 39.78 361.727 37.588 361.727 35.028V34.308C361.727 31.78 362.223 29.604 363.215 27.78C364.207 25.956 365.535 24.564 367.199 23.604C368.863 22.644 370.687 22.164 372.671 22.164C374.207 22.164 375.487 22.356 376.511 22.74C377.567 23.124 378.431 23.62 379.103 24.228C379.775 24.804 380.287 25.412 380.639 26.052H381.407V12.9H386.351V46.5H381.503V43.14H380.735C380.127 44.164 379.199 45.092 377.951 45.924C376.735 46.756 374.975 47.172 372.671 47.172ZM374.063 42.852C376.207 42.852 377.967 42.164 379.343 40.788C380.751 39.412 381.455 37.444 381.455 34.884V34.452C381.455 31.924 380.767 29.972 379.391 28.596C378.015 27.22 376.239 26.532 374.063 26.532C371.951 26.532 370.191 27.22 368.783 28.596C367.407 29.972 366.719 31.924 366.719 34.452V34.884C366.719 37.444 367.407 39.412 368.783 40.788C370.191 42.164 371.951 42.852 374.063 42.852ZM175.012 105.172C170.916 105.172 167.668 104.02 165.268 101.716C162.868 99.38 161.668 96.02 161.668 91.636V83.764C161.668 79.38 162.868 76.036 165.268 73.732C167.668 71.396 170.916 70.228 175.012 70.228C179.044 70.228 182.148 71.348 184.324 73.588C186.532 75.828 187.636 78.884 187.636 82.756V83.044H182.5V82.612C182.5 80.34 181.876 78.484 180.628 77.044C179.412 75.604 177.54 74.884 175.012 74.884C172.452 74.884 170.452 75.668 169.012 77.236C167.572 78.772 166.852 80.916 166.852 83.668V91.732C166.852 94.452 167.572 96.596 169.012 98.164C170.452 99.732 172.452 100.516 175.012 100.516C177.54 100.516 179.412 99.796 180.628 98.356C181.876 96.884 182.5 95.028 182.5 92.788V91.972H187.636V92.644C187.636 96.516 186.532 99.572 184.324 101.812C182.148 104.052 179.044 105.172 175.012 105.172ZM204.608 105.172C202.24 105.172 200.128 104.692 198.272 103.732C196.448 102.74 195.008 101.332 193.952 99.508C192.896 97.684 192.368 95.524 192.368 93.028V92.308C192.368 89.812 192.896 87.668 193.952 85.876C195.008 84.052 196.448 82.644 198.272 81.652C200.128 80.66 202.24 80.164 204.608 80.164C206.976 80.164 209.088 80.66 210.944 81.652C212.8 82.644 214.256 84.052 215.312 85.876C216.368 87.668 216.896 89.812 216.896 92.308V93.028C216.896 95.524 216.368 97.684 215.312 99.508C214.256 101.332 212.8 102.74 210.944 103.732C209.088 104.692 206.976 105.172 204.608 105.172ZM204.608 100.756C206.784 100.756 208.544 100.068 209.888 98.692C211.264 97.284 211.952 95.348 211.952 92.884V92.452C211.952 89.988 211.28 88.068 209.936 86.692C208.592 85.284 206.816 84.58 204.608 84.58C202.464 84.58 200.704 85.284 199.328 86.692C197.984 88.068 197.312 89.988 197.312 92.452V92.884C197.312 95.348 197.984 97.284 199.328 98.692C200.704 100.068 202.464 100.756 204.608 100.756ZM223.051 104.5V80.836H227.899V83.62H228.667C229.115 82.788 229.835 82.052 230.827 81.412C231.819 80.772 233.163 80.452 234.859 80.452C236.619 80.452 238.027 80.82 239.083 81.556C240.171 82.26 240.987 83.172 241.531 84.292H242.299C242.843 83.204 243.627 82.292 244.651 81.556C245.707 80.82 247.195 80.452 249.115 80.452C250.651 80.452 252.011 80.772 253.195 81.412C254.379 82.02 255.323 82.948 256.027 84.196C256.731 85.412 257.083 86.932 257.083 88.756V104.5H252.139V89.14C252.139 87.7 251.739 86.596 250.939 85.828C250.171 85.028 249.067 84.628 247.627 84.628C246.091 84.628 244.859 85.124 243.931 86.116C243.003 87.108 242.539 88.532 242.539 90.388V104.5H237.595V89.14C237.595 87.7 237.195 86.596 236.395 85.828C235.627 85.028 234.523 84.628 233.083 84.628C231.547 84.628 230.315 85.124 229.387 86.116C228.459 87.108 227.995 88.532 227.995 90.388V104.5H223.051ZM264.207 114.1V80.836H269.055V84.244H269.823C270.431 83.188 271.343 82.244 272.559 81.412C273.807 80.58 275.583 80.164 277.887 80.164C279.871 80.164 281.679 80.644 283.311 81.604C284.975 82.564 286.303 83.956 287.295 85.78C288.319 87.572 288.831 89.748 288.831 92.308V93.028C288.831 95.588 288.335 97.78 287.343 99.604C286.351 101.396 285.023 102.772 283.359 103.732C281.695 104.692 279.871 105.172 277.887 105.172C276.351 105.172 275.055 104.98 273.999 104.596C272.943 104.212 272.095 103.732 271.455 103.156C270.815 102.548 270.303 101.924 269.919 101.284H269.151V114.1H264.207ZM276.447 100.852C278.623 100.852 280.399 100.164 281.775 98.788C283.151 97.412 283.839 95.444 283.839 92.884V92.452C283.839 89.924 283.135 87.972 281.727 86.596C280.351 85.22 278.591 84.532 276.447 84.532C274.335 84.532 272.575 85.22 271.167 86.596C269.791 87.972 269.103 89.924 269.103 92.452V92.884C269.103 95.444 269.791 97.412 271.167 98.788C272.575 100.164 274.335 100.852 276.447 100.852ZM304.029 104.932C302.237 104.932 300.637 104.532 299.229 103.732C297.821 102.932 296.717 101.796 295.917 100.324C295.117 98.852 294.717 97.092 294.717 95.044V80.836H299.661V94.708C299.661 96.756 300.173 98.276 301.197 99.268C302.221 100.228 303.645 100.708 305.469 100.708C307.485 100.708 309.101 100.036 310.317 98.692C311.565 97.316 312.189 95.348 312.189 92.788V80.836H317.133V104.5H312.285V100.948H311.517C311.069 101.908 310.269 102.82 309.117 103.684C307.965 104.516 306.269 104.932 304.029 104.932ZM333.321 104.5C331.881 104.5 330.729 104.068 329.865 103.204C329.033 102.34 328.617 101.188 328.617 99.748V85.012H322.089V80.836H328.617V73.012H333.561V80.836H340.617V85.012H333.561V98.884C333.561 99.844 334.009 100.324 334.905 100.324H339.849V104.5H333.321ZM346.426 104.5V80.836H351.37V104.5H346.426ZM348.922 77.62C347.962 77.62 347.146 77.316 346.474 76.708C345.834 76.068 345.514 75.252 345.514 74.26C345.514 73.268 345.834 72.468 346.474 71.86C347.146 71.22 347.962 70.9 348.922 70.9C349.914 70.9 350.73 71.22 351.37 71.86C352.01 72.468 352.33 73.268 352.33 74.26C352.33 75.252 352.01 76.068 351.37 76.708C350.73 77.316 349.914 77.62 348.922 77.62ZM358.707 104.5V80.836H363.555V84.388H364.323C364.771 83.428 365.571 82.532 366.723 81.7C367.875 80.868 369.587 80.452 371.859 80.452C373.651 80.452 375.235 80.852 376.611 81.652C378.019 82.452 379.123 83.588 379.923 85.06C380.723 86.5 381.123 88.244 381.123 90.292V104.5H376.179V90.676C376.179 88.628 375.667 87.124 374.643 86.164C373.619 85.172 372.211 84.676 370.419 84.676C368.371 84.676 366.723 85.348 365.475 86.692C364.259 88.036 363.651 89.988 363.651 92.548V104.5H358.707ZM387.086 92.788V92.068C387.086 89.572 387.582 87.444 388.574 85.684C389.598 83.924 390.942 82.564 392.606 81.604C394.27 80.644 396.094 80.164 398.078 80.164C400.382 80.164 402.142 80.596 403.358 81.46C404.606 82.324 405.518 83.252 406.094 84.244H406.862V80.836H411.662V109.348C411.662 110.788 411.23 111.94 410.366 112.804C409.534 113.668 408.382 114.1 406.91 114.1H390.974V109.78H405.374C406.302 109.78 406.766 109.3 406.766 108.34V100.804H405.998C405.646 101.38 405.15 101.972 404.51 102.58C403.87 103.188 403.022 103.684 401.966 104.068C400.942 104.452 399.646 104.644 398.078 104.644C396.094 104.644 394.254 104.18 392.558 103.252C390.894 102.292 389.566 100.932 388.574 99.172C387.582 97.38 387.086 95.252 387.086 92.788ZM399.422 100.324C401.566 100.324 403.326 99.652 404.702 98.308C406.11 96.932 406.814 95.044 406.814 92.644V92.212C406.814 89.748 406.126 87.86 404.75 86.548C403.374 85.204 401.598 84.532 399.422 84.532C397.31 84.532 395.55 85.204 394.142 86.548C392.766 87.86 392.078 89.748 392.078 92.212V92.644C392.078 95.044 392.766 96.932 394.142 98.308C395.55 99.652 397.31 100.324 399.422 100.324ZM442.456 105.172C439.928 105.172 437.688 104.724 435.736 103.828C433.784 102.932 432.248 101.62 431.128 99.892C430.04 98.132 429.496 96.004 429.496 93.508V92.308H434.632V93.508C434.632 95.876 435.336 97.652 436.744 98.836C438.184 100.02 440.088 100.612 442.456 100.612C444.856 100.612 446.664 100.116 447.88 99.124C449.096 98.1 449.704 96.788 449.704 95.188C449.704 94.132 449.416 93.268 448.84 92.596C448.264 91.924 447.448 91.396 446.392 91.012C445.336 90.596 444.072 90.212 442.6 89.86L440.824 89.428C438.68 88.916 436.808 88.292 435.208 87.556C433.64 86.788 432.424 85.78 431.56 84.532C430.696 83.284 430.264 81.684 430.264 79.732C430.264 77.748 430.744 76.052 431.704 74.644C432.696 73.236 434.056 72.148 435.784 71.38C437.512 70.612 439.544 70.228 441.88 70.228C444.216 70.228 446.296 70.628 448.12 71.428C449.976 72.228 451.432 73.412 452.488 74.98C453.544 76.548 454.072 78.516 454.072 80.884V82.612H448.936V80.884C448.936 79.444 448.632 78.276 448.024 77.38C447.448 76.484 446.632 75.828 445.576 75.412C444.52 74.996 443.288 74.788 441.88 74.788C439.832 74.788 438.232 75.22 437.08 76.084C435.96 76.916 435.4 78.084 435.4 79.588C435.4 80.612 435.64 81.46 436.12 82.132C436.632 82.772 437.368 83.3 438.328 83.716C439.288 84.132 440.488 84.5 441.928 84.82L443.704 85.252C445.88 85.732 447.8 86.356 449.464 87.124C451.128 87.86 452.44 88.868 453.4 90.148C454.36 91.428 454.84 93.076 454.84 95.092C454.84 97.108 454.328 98.868 453.304 100.372C452.312 101.876 450.888 103.06 449.032 103.924C447.176 104.756 444.984 105.172 442.456 105.172ZM471.514 105.172C469.146 105.172 467.034 104.692 465.178 103.732C463.354 102.74 461.914 101.332 460.858 99.508C459.802 97.684 459.274 95.524 459.274 93.028V92.308C459.274 89.812 459.802 87.668 460.858 85.876C461.914 84.052 463.354 82.644 465.178 81.652C467.034 80.66 469.146 80.164 471.514 80.164C473.882 80.164 475.994 80.66 477.85 81.652C479.706 82.644 481.162 84.052 482.218 85.876C483.274 87.668 483.802 89.812 483.802 92.308V93.028C483.802 95.524 483.274 97.684 482.218 99.508C481.162 101.332 479.706 102.74 477.85 103.732C475.994 104.692 473.882 105.172 471.514 105.172ZM471.514 100.756C473.69 100.756 475.45 100.068 476.794 98.692C478.17 97.284 478.858 95.348 478.858 92.884V92.452C478.858 89.988 478.186 88.068 476.842 86.692C475.498 85.284 473.722 84.58 471.514 84.58C469.37 84.58 467.61 85.284 466.234 86.692C464.89 88.068 464.218 89.988 464.218 92.452V92.884C464.218 95.348 464.89 97.284 466.234 98.692C467.61 100.068 469.37 100.756 471.514 100.756ZM500.949 105.172C498.677 105.172 496.613 104.692 494.757 103.732C492.933 102.772 491.477 101.38 490.389 99.556C489.333 97.732 488.805 95.54 488.805 92.98V92.356C488.805 89.796 489.333 87.62 490.389 85.828C491.477 84.004 492.933 82.612 494.757 81.652C496.613 80.66 498.677 80.164 500.949 80.164C503.221 80.164 505.157 80.58 506.757 81.412C508.357 82.244 509.637 83.348 510.597 84.724C511.589 86.1 512.229 87.62 512.517 89.284L507.717 90.292C507.557 89.236 507.221 88.276 506.709 87.412C506.197 86.548 505.477 85.86 504.549 85.348C503.621 84.836 502.453 84.58 501.045 84.58C499.669 84.58 498.421 84.9 497.301 85.54C496.213 86.148 495.349 87.044 494.709 88.228C494.069 89.38 493.749 90.788 493.749 92.452V92.884C493.749 94.548 494.069 95.972 494.709 97.156C495.349 98.34 496.213 99.236 497.301 99.844C498.421 100.452 499.669 100.756 501.045 100.756C503.125 100.756 504.709 100.228 505.797 99.172C506.885 98.084 507.573 96.708 507.861 95.044L512.661 96.148C512.277 97.78 511.589 99.284 510.597 100.66C509.637 102.036 508.357 103.14 506.757 103.972C505.157 104.772 503.221 105.172 500.949 105.172ZM518.363 104.5V80.836H523.307V104.5H518.363ZM520.859 77.62C519.899 77.62 519.083 77.316 518.411 76.708C517.771 76.068 517.451 75.252 517.451 74.26C517.451 73.268 517.771 72.468 518.411 71.86C519.083 71.22 519.899 70.9 520.859 70.9C521.851 70.9 522.667 71.22 523.307 71.86C523.947 72.468 524.267 73.268 524.267 74.26C524.267 75.252 523.947 76.068 523.307 76.708C522.667 77.316 521.851 77.62 520.859 77.62ZM541.493 105.172C539.093 105.172 536.997 104.676 535.205 103.684C533.413 102.66 532.005 101.236 530.981 99.412C529.989 97.556 529.493 95.412 529.493 92.98V92.404C529.493 89.94 529.989 87.796 530.981 85.972C531.973 84.116 533.349 82.692 535.109 81.7C536.901 80.676 538.965 80.164 541.301 80.164C543.573 80.164 545.557 80.676 547.253 81.7C548.981 82.692 550.325 84.084 551.285 85.876C552.245 87.668 552.725 89.764 552.725 92.164V94.036H534.533C534.597 96.116 535.285 97.78 536.597 99.028C537.941 100.244 539.605 100.852 541.589 100.852C543.445 100.852 544.837 100.436 545.765 99.604C546.725 98.772 547.461 97.812 547.973 96.724L552.053 98.836C551.605 99.732 550.949 100.676 550.085 101.668C549.253 102.66 548.149 103.492 546.773 104.164C545.397 104.836 543.637 105.172 541.493 105.172ZM534.581 90.244H547.685C547.557 88.452 546.917 87.06 545.765 86.068C544.613 85.044 543.109 84.532 541.253 84.532C539.397 84.532 537.877 85.044 536.693 86.068C535.541 87.06 534.837 88.452 534.581 90.244ZM566.665 104.5C565.225 104.5 564.073 104.068 563.209 103.204C562.377 102.34 561.961 101.188 561.961 99.748V85.012H555.433V80.836H561.961V73.012H566.905V80.836H573.961V85.012H566.905V98.884C566.905 99.844 567.353 100.324 568.249 100.324H573.193V104.5H566.665ZM582.506 114.1V109.78H595.706C596.602 109.78 597.05 109.3 597.05 108.34V101.044H596.282C595.994 101.684 595.546 102.308 594.938 102.916C594.362 103.492 593.578 103.972 592.586 104.356C591.594 104.74 590.346 104.932 588.842 104.932C587.05 104.932 585.45 104.532 584.042 103.732C582.634 102.932 581.53 101.796 580.73 100.324C579.93 98.852 579.53 97.108 579.53 95.092V80.836H584.474V94.708C584.474 96.756 584.986 98.276 586.01 99.268C587.034 100.228 588.458 100.708 590.282 100.708C592.298 100.708 593.914 100.036 595.13 98.692C596.378 97.348 597.002 95.396 597.002 92.836V80.836H601.946V109.348C601.946 110.788 601.514 111.94 600.65 112.804C599.818 113.668 598.666 114.1 597.194 114.1H582.506Z" fill="#111111"/>
<defs>
<filter id="filter0_dddd_23_411" x="34.5248" y="39.9015" width="59.994" height="72.994" filterUnits="userSpaceOnUse" color-interpolation-filters="sRGB">
<feFlood flood-opacity="0" result="BackgroundImageFix"/>
<feColorMatrix in="SourceAlpha" type="matrix" values="0 0 0 0 0 0 0 0 0 0 0 0 0 0 0 0 0 0 127 0" result="hardAlpha"/>
<feOffset dy="1"/>
<feGaussianBlur stdDeviation="1.5"/>
<feColorMatrix type="matrix" values="0 0 0 0 0.909804 0 0 0 0 0.317647 0 0 0 0 0.00784314 0 0 0 0.16 0"/>
<feBlend mode="normal" in2="BackgroundImageFix" result="effect1_dropShadow_23_411"/>
<feColorMatrix in="SourceAlpha" type="matrix" values="0 0 0 0 0 0 0 0 0 0 0 0 0 0 0 0 0 0 127 0" result="hardAlpha"/>
<feOffset dy="5"/>
<feGaussianBlur stdDeviation="2.5"/>
<feColorMatrix type="matrix" values="0 0 0 0 0.909804 0 0 0 0 0.317647 0 0 0 0 0.00784314 0 0 0 0.12 0"/>
<feBlend mode="normal" in2="effect1_dropShadow_23_411" result="effect2_dropShadow_23_411"/>
<feColorMatrix in="SourceAlpha" type="matrix" values="0 0 0 0 0 0 0 0 0 0 0 0 0 0 0 0 0 0 127 0" result="hardAlpha"/>
<feOffset dy="11"/>
<feGaussianBlur stdDeviation="3.5"/>
<feColorMatrix type="matrix" values="0 0 0 0 0.909804 0 0 0 0 0.317647 0 0 0 0 0.00784314 0 0 0 0.05 0"/>
<feBlend mode="normal" in2="effect2_dropShadow_23_411" result="effect3_dropShadow_23_411"/>
<feColorMatrix in="SourceAlpha" type="matrix" values="0 0 0 0 0 0 0 0 0 0 0 0 0 0 0 0 0 0 127 0" result="hardAlpha"/>
<feOffset dy="19"/>
<feGaussianBlur stdDeviation="4"/>
<feColorMatrix type="matrix" values="0 0 0 0 0.909804 0 0 0 0 0.317647 0 0 0 0 0.00784314 0 0 0 0.01 0"/>
<feBlend mode="normal" in2="effect3_dropShadow_23_411" result="effect4_dropShadow_23_411"/>
<feBlend mode="normal" in="SourceGraphic" in2="effect4_dropShadow_23_411" result="shape"/>
</filter>
<linearGradient id="paint0_linear_23_411" x1="63.5277" y1="0.66626" x2="63.5277" y2="64" gradientUnits="userSpaceOnUse">
<stop stop-color="#E85102"/>
<stop offset="0.153846" stop-color="#E85102" stop-opacity="0.6"/>
<stop offset="0.25" stop-color="#E85102" stop-opacity="0.3"/>
<stop offset="0.447115" stop-color="#E85102" stop-opacity="0"/>
</linearGradient>
<linearGradient id="paint1_linear_23_411" x1="76.9444" y1="15.0179" x2="63.8013" y2="64.0687" gradientUnits="userSpaceOnUse">
<stop stop-color="#E85102"/>
<stop offset="0.153846" stop-color="#E85102" stop-opacity="0.6"/>
<stop offset="0.25" stop-color="#E85102" stop-opacity="0.3"/>
<stop offset="0.447115" stop-color="#E85102" stop-opacity="0"/>
</linearGradient>
</defs>
</svg>
