<svg width="390" height="428" viewBox="0 0 390 428" fill="none" xmlns="http://www.w3.org/2000/svg">
<path d="M194.713 427.879C152.219 427.879 112.904 414.267 80.8919 391.165H308.533C276.521 414.267 237.206 427.879 194.713 427.879Z" fill="url(#paint0_linear_53_539)"/>
<path fill-rule="evenodd" clip-rule="evenodd" d="M152.544 42.1685C175.833 42.1685 194.712 23.289 194.712 0C194.712 23.289 213.592 42.1685 236.881 42.1685C213.592 42.1685 194.712 61.048 194.712 84.337C194.712 61.048 175.833 42.1685 152.544 42.1685Z" fill="#EE2F24"/>
<path d="M236.398 78.9718C238.539 78.9768 240.27 80.7167 240.296 82.8578C240.642 111.753 244.854 136.97 251.71 158.895L252.411 161.1L253.088 163.152C279.177 241.072 338.981 276.075 374.454 286.577C379.963 288.208 383.27 294.124 381.073 299.432C377.857 307.203 373.24 317.786 369.04 325.29C364.016 334.265 355.774 345.65 350.974 352.068C348.706 355.1 344.786 356.355 341.176 355.214C276.847 334.882 210.772 295.671 198.893 133.571L198.548 128.609C198.221 123.611 197.943 118.498 197.719 113.268C197.37 105.158 197.147 96.7664 197.054 88.0818C197.001 83.0047 201.128 78.8915 206.206 78.9031L236.398 78.9718Z" fill="url(#paint1_linear_53_539)"/>
<path d="M181.56 78.9041C186.637 78.8927 190.765 83.006 190.71 88.083C190.605 97.9721 190.328 107.482 189.89 116.629C189.666 121.291 189.399 125.86 189.092 130.336C177.792 295.21 110.876 334.877 46.084 355.345C42.4974 356.478 38.6029 355.247 36.3402 352.243C31.7745 346.18 24.1105 335.61 19.2229 326.757C14.9759 319.064 10.066 307.67 6.68675 299.445C4.50161 294.127 7.81234 288.205 13.3254 286.572C49.0817 275.981 109.544 240.504 135.293 161.287C142.65 138.653 147.173 112.449 147.476 82.2347C147.494 80.4376 148.947 78.9781 150.744 78.9731L181.56 78.9041ZM186.905 104.878C187.14 105.444 187.364 106.016 187.575 106.594C187.364 106.016 187.14 105.444 186.905 104.878ZM163.524 81.8526H163.526H163.524Z" fill="url(#paint2_linear_53_539)"/>
<path d="M127.227 166.289H38.9874C26.234 166.289 17.431 153.589 23.3901 142.314C24.1042 140.963 24.8337 139.621 25.5784 138.289C28.6566 132.783 34.5797 129.575 40.8879 129.575H137.133C135.199 140.092 132.68 149.941 129.685 159.158C128.898 161.578 128.078 163.954 127.227 166.289Z" fill="#38BBDD"/>
<path fill-rule="evenodd" clip-rule="evenodd" d="M23.7114 173.173H124.579C119.016 186.898 112.349 199.092 104.987 209.888H22.9902C11.9909 209.888 3.39319 200.249 5.84822 189.527C6.1175 188.351 6.39744 187.179 6.68792 186.012C8.60961 178.286 15.7501 173.173 23.7114 173.173Z" fill="#38BBDD"/>
<path fill-rule="evenodd" clip-rule="evenodd" d="M99.1228 216.772C87.7886 231.878 75.1282 243.974 62.4842 253.486H17.5995C8.1942 253.486 0.216537 246.373 0.0363978 236.97C0.0121693 235.705 0 234.437 0 233.167C0 223.889 7.81661 216.772 17.0943 216.772H99.1228Z" fill="#38BBDD"/>
<path fill-rule="evenodd" clip-rule="evenodd" d="M22.9871 260.37H52.6785C37.6078 270.223 23.0629 276.509 11.3712 279.972C9.53918 280.515 7.82518 281.365 6.293 282.457C6.17243 281.995 6.05351 281.532 5.93626 281.069C3.20203 270.26 11.838 260.37 22.9871 260.37Z" fill="#38BBDD"/>
<path d="M184.504 209.888C187.234 198.53 189.58 186.316 191.501 173.173H196.233C198.145 186.317 200.479 198.53 203.197 209.888H184.504Z" fill="url(#paint3_linear_53_539)"/>
<path d="M182.775 216.772H204.919C208.43 230.219 212.502 242.412 217.065 253.486H170.581C175.161 242.41 179.249 230.217 182.775 216.772Z" fill="url(#paint4_linear_53_539)"/>
<path d="M220.029 260.37C226.343 274.415 233.493 286.548 241.317 297.084H146.259C154.102 286.545 161.273 274.411 167.607 260.37H220.029Z" fill="url(#paint5_linear_53_539)"/>
<path d="M140.858 303.968H246.708C259.881 319.921 274.576 331.663 289.9 340.682H97.6474C112.969 331.654 127.671 319.908 140.858 303.968Z" fill="url(#paint6_linear_53_539)"/>
<path d="M339.102 361.779C339.587 361.932 340.075 362.061 340.565 362.166C333.499 370.149 325.788 377.548 317.513 384.281H71.9124C63.5082 377.443 55.6854 369.918 48.5296 361.792C60.5815 357.972 72.822 353.455 84.8411 347.566H302.726C314.761 353.451 327.023 357.961 339.102 361.779Z" fill="url(#paint7_linear_53_539)"/>
<path fill-rule="evenodd" clip-rule="evenodd" d="M258.27 156.807C255.602 148.271 253.342 139.203 251.571 129.575H349.476C355.784 129.575 361.707 132.783 364.786 138.289C365.53 139.621 366.26 140.963 366.974 142.314C372.933 153.589 364.13 166.289 351.377 166.289H261.475C260.837 164.538 260.217 162.764 259.614 160.966L258.949 158.945L258.27 156.807Z" fill="#38BBDD"/>
<path fill-rule="evenodd" clip-rule="evenodd" d="M264.124 173.173H366.653C374.614 173.173 381.754 178.286 383.676 186.012C383.967 187.179 384.247 188.351 384.516 189.527C386.971 200.249 378.373 209.888 367.374 209.888H283.716C276.354 199.092 269.686 186.898 264.124 173.173Z" fill="#38BBDD"/>
<path fill-rule="evenodd" clip-rule="evenodd" d="M325.282 253.486C312.637 243.974 299.976 231.878 288.641 216.772H372.331C381.609 216.772 389.425 223.889 389.425 233.167C389.425 234.437 389.413 235.705 389.389 236.97C389.209 246.373 381.231 253.486 371.826 253.486H325.282Z" fill="#38BBDD"/>
<path fill-rule="evenodd" clip-rule="evenodd" d="M376.408 279.976C364.715 276.514 350.164 270.227 335.088 260.37H366.438C377.587 260.37 386.223 270.26 383.489 281.069C383.28 281.893 383.066 282.716 382.847 283.536C380.998 281.921 378.803 280.685 376.408 279.976Z" fill="#38BBDD"/>
<path fill-rule="evenodd" clip-rule="evenodd" d="M193.873 154.502C194.307 158.51 194.777 162.438 195.281 166.289H192.457C192.965 162.438 193.437 158.51 193.873 154.502Z" fill="url(#paint8_linear_53_539)"/>
<defs>
<linearGradient id="paint0_linear_53_539" x1="80.8919" y1="409.522" x2="308.533" y2="409.522" gradientUnits="userSpaceOnUse">
<stop stop-color="#105930"/>
<stop offset="1" stop-color="#42A66B"/>
</linearGradient>
<linearGradient id="paint1_linear_53_539" x1="289.407" y1="78.9031" x2="289.407" y2="355.63" gradientUnits="userSpaceOnUse">
<stop stop-color="#EE3124"/>
<stop offset="0.000100017" stop-color="#F05323"/>
<stop offset="1" stop-color="#F57B20"/>
</linearGradient>
<linearGradient id="paint2_linear_53_539" x1="98.3588" y1="78.9041" x2="98.3588" y2="355.76" gradientUnits="userSpaceOnUse">
<stop stop-color="#EE3124"/>
<stop offset="0.000100017" stop-color="#F05323"/>
<stop offset="1" stop-color="#F57B20"/>
</linearGradient>
<linearGradient id="paint3_linear_53_539" x1="182.077" y1="191.531" x2="207.983" y2="191.531" gradientUnits="userSpaceOnUse">
<stop stop-color="#105930"/>
<stop offset="1" stop-color="#42A66B"/>
</linearGradient>
<linearGradient id="paint4_linear_53_539" x1="167.827" y1="235.129" x2="222.233" y2="235.129" gradientUnits="userSpaceOnUse">
<stop stop-color="#105930"/>
<stop offset="1" stop-color="#42A66B"/>
</linearGradient>
<linearGradient id="paint5_linear_53_539" x1="142.364" y1="278.727" x2="247.695" y2="278.727" gradientUnits="userSpaceOnUse">
<stop stop-color="#105930"/>
<stop offset="1" stop-color="#42A66B"/>
</linearGradient>
<linearGradient id="paint6_linear_53_539" x1="13.2727" y1="322.325" x2="376.153" y2="322.325" gradientUnits="userSpaceOnUse">
<stop stop-color="#105930"/>
<stop offset="1" stop-color="#42A66B"/>
</linearGradient>
<linearGradient id="paint7_linear_53_539" x1="37.134" y1="365.924" x2="352.291" y2="365.924" gradientUnits="userSpaceOnUse">
<stop stop-color="#105930"/>
<stop offset="1" stop-color="#42A66B"/>
</linearGradient>
<linearGradient id="paint8_linear_53_539" x1="192.091" y1="160.396" x2="196.004" y2="160.396" gradientUnits="userSpaceOnUse">
<stop stop-color="#105930"/>
<stop offset="1" stop-color="#42A66B"/>
</linearGradient>
</defs>
</svg>
