<?xml version="1.0" encoding="utf-8"?>
<!-- Generator: Adobe Illustrator 27.9.0, SVG Export Plug-In . SVG Version: 6.00 Build 0)  -->
<svg version="1.1" id="Layer_1" xmlns="http://www.w3.org/2000/svg" xmlns:xlink="http://www.w3.org/1999/xlink" x="0px" y="0px"
	 viewBox="0 0 2342 2004" style="enable-background:new 0 0 2342 2004;" xml:space="preserve">
<style type="text/css">
	.st0{fill-rule:evenodd;clip-rule:evenodd;fill:#CE2027;}
	.st1{fill-rule:evenodd;clip-rule:evenodd;fill:#04743C;}
	.st2{fill-rule:evenodd;clip-rule:evenodd;fill:#B46529;}
</style>
<path class="st0" d="M1457.5,183.7c-3.3,0.9-6.4,3.3-8.5,6.8c-6.4,10.3,1,17.2,32,29.9c20.4,8.4,31.8,13.6,54.8,25.1
	C1615,285,1687.9,338,1753,403.1c94.5,94.5,165.9,209,206.9,331.4c22.4,67,35.2,126.6,40.6,189.5c4.7,54.6,4.5,126.4-0.5,178.5
	c-7.6,79.5-26.7,154.7-61.1,241c-9.1,22.7-9.5,25.6-4.1,32.3c3.6,4.5,8.8,8.2,11.6,8.2c12.8,0,48-92.7,66.2-174.4
	c11-49.7,17.6-97.9,20.6-151.6c1.5-26.4,0.6-93.1-1.5-118c-10.1-117.5-38.4-221.8-87-321.5c-32.3-66.3-65.5-117-117.1-179
	c-38.9-46.7-65.2-73.6-104.4-106.3c-65.8-55-145-103.8-219.8-135.5C1476.7,186.4,1463.1,182.2,1457.5,183.7 M334.1,813.7
	c-4.6,2.3-6.5,5.7-11.1,20c-17.9,55.6-29.6,156.1-27.6,237.8c3.4,146.8,32.7,267.9,93.7,388c55.4,109.2,132.7,206.3,225.5,283.6
	c35.7,29.8,89.7,67.2,107.5,74.6c6.4,2.7,12.6,3,15.8,0.8c3-2.1,6.2-8.6,6.2-12.6c0-5.1-8.5-12.4-35.2-30.2
	c-51.5-34.3-90.4-66.1-132.8-108.6c-134.4-134.8-221.3-310.9-243.9-494.1c-8.3-67.1-9.3-134.6-3-202.5c3.5-38,8.4-69.6,17.1-109
	c5.5-25.3,6.9-36.6,4.9-41.5C348.4,813.7,340.2,810.6,334.1,813.7"/>
<path class="st1" d="M548.3,712.1c-7,4.5-17.6,24.7-31.7,60.2c-28.2,71-44.6,144.6-49.7,222c-1.5,23.6-0.6,88.8,1.5,109.7
	c12.4,120.9,48.2,223.7,111,319c53.3,80.8,120.8,149.7,195.6,199.7c24.4,16.3,34.4,20.4,41.8,17.4c4.2-1.7,8.1-7.8,8.1-12.5
	c0-3.5-0.7-4.6-6.2-9.9c-3.4-3.3-14.1-11.4-23.8-17.9c-56-38-99.6-76.9-139.9-124.9c-72.9-86.7-124.4-193.6-147-305.3
	c-21.5-105.9-15.1-226.9,17.4-331.8c6.8-21.9,12.8-37.7,28.6-75.3c9.1-21.6,14.3-35.4,14.6-38.4c0.4-4.3,0.2-5-2.6-7.6
	c-3.7-3.5-9.1-6.2-12.3-6.1C552.6,710,550,711,548.3,712.1 M1755.2,711.7c-1.8,0.9-4.7,2.9-6.4,4.5c-2.8,2.6-3,3.3-2.6,7.6
	c0.3,3,5.6,16.9,14.6,38.4c15.8,37.7,21.8,53.5,28.6,75.3c32.6,104.9,38.9,225.9,17.4,331.8c-33,162.8-125.1,310-254.4,407.1
	c-8.2,6.2-22.9,16.6-32.5,23.1c-9.6,6.5-20.3,14.6-23.8,17.9c-5.6,5.4-6.2,6.5-6.2,9.9c0,4.8,3.9,10.8,8.1,12.5
	c7.4,3.1,17.4-1.1,41.8-17.4c64.2-42.9,120.3-96.9,171.5-165.2c57.5-76.7,97.9-163.6,119.5-256.8c7.2-31,12-60.6,15.7-96.7
	c2.1-20.9,3-86.1,1.5-109.7c-3.5-54.1-12.4-105.2-27.1-156.3c-12.3-42.8-34.9-99.6-46.4-116.9
	C1767.7,710.7,1762.4,708.1,1755.2,711.7"/>
<path class="st2" d="M894.8,320.7c0.8,3.5,30.6,88.1,31.2,88.3c0.3,0.1,5.8-1.6,12.4-3.9c17.8-6.1,45.6-14,65.2-18.5
	c9.6-2.2,19-4.8,21-5.7c2.2-1.1,11.1-2.5,23.4-3.7c15-1.5,21.4-2.6,26-4.5c5.2-2.1,6.9-2.3,11.3-1.4c3.6,0.8,12.2,0.3,27.9-1.3
	c12.5-1.3,23.2-2,23.7-1.5c0.9,0.9,27.6,1.6,29.3,0.8c0.5-0.2,1.7-90.6,1.3-95.7c-0.1-0.9-12-0.9-12.3,0c-0.1,0.3-0.3,19.3-0.5,42.2
	c-0.2,22.9-0.3,41.9-0.4,42c-0.2,0.9-13.6,0-14.4-1c-0.6-0.7-4.3-0.8-8.5-0.4c-4.1,0.4-7.6,0.6-7.7,0.3c-0.1-0.3-1-7.1-1.9-15.2
	c-1.6-14.6-7.2-38.9-9.1-39.5c-0.5-0.2-3.4,0.5-6.5,1.4l-5.5,1.7l1.4,3.2c2.6,5.8,6.1,23.2,7.5,36.7c0.7,7.2,1.3,13.3,1.2,13.4
	c-0.3,1-20.4,2.1-22.9,1.2l-3.1-1.1l0.2-4.4c0.3-5.9-3.4-40.6-4.4-41.6c-1.3-1.3-11.7,0.1-11.6,1.6c0,0.7,1,9.8,2.1,20.3
	c2.3,21.7,1.9,25.7-2.4,27.6c-3.7,1.6-18.5,3.4-18.8,2.2c-0.1-0.5-1.2-9.9-2.4-20.8c-1.2-11-2.3-20.2-2.4-20.5
	c-0.3-0.7-11.6,0.7-11.9,1.4c-0.1,0.3,0.8,9.7,2,20.9c1.2,11.2,2.2,20.5,2.1,20.8c-0.1,0.2-3.9,0.9-8.4,1.4
	c-5.1,0.6-8.7,1.5-9.3,2.4c-1.3,1.8-12,4.2-12.6,2.9c-0.2-0.6-3.1-12.4-6.3-26.3s-6-25.8-6.3-26.3c-0.4-0.9-11.5,0.9-11.9,1.9
	c-0.1,0.2,2.7,12.6,6.1,27.5l6.3,27l-3,0.7c-10.1,2.5-44.1,12.4-50.7,14.6c-4.3,1.5-7.9,2.5-8.1,2.2c-0.1-0.3-6.4-18.2-13.9-39.8
	c-7.5-21.6-14-39.4-14.3-39.5c-0.4-0.1-3,0.6-5.8,1.6C894.6,318.2,894.3,318.5,894.8,320.7 M1064.6,270.6c0.4,2.4,0.8,5.1,0.9,6
	c0.1,1.1,1.3,1.4,4.4,1c2.4-0.3,4.9-0.6,5.7-0.6c0.9,0,1.2-2.3,0.8-6.5c-0.4-4.7-0.9-6.4-1.8-6.3c-0.7,0.1-2.8,0.3-4.8,0.5
	C1064.2,265.3,1063.8,265.8,1064.6,270.6 M876.3,385.7l12,25.3l-3.6,2.3c-2,1.3-13.1,6.4-24.8,11.4c-19,8.1-21.6,9-25.5,8.8
	c-9-0.5-13.7-6.2-18-21.8c-1.3-4.6-2.8-8.4-3.4-8.6c-0.6-0.2-3.3,0.3-6.1,1.1l-4.9,1.5l2.2,8.1c4.5,16.8,9.6,24.9,18.1,29
	c11,5.2,20.2,3.2,50.2-10.9c11.7-5.5,23.7-11.4,26.7-13l5.4-3l-3.5-6.9c-1.9-3.8-8.5-17.3-14.5-30.1l-11-23.3l-5.5,2.5l-5.5,2.5
	L876.3,385.7 M1056.1,285c0.2,3,1.4,11.7,1.7,11.7c0.6,0.1,10.7-1,11.3-1.2c0.4-0.2,0.4-3.2,0.1-6.7l-0.6-6.4l-3.5,0.1
	C1058.8,282.7,1056,283.5,1056.1,285 M1075.8,288.2c0.4,4.7,0.9,6.3,1.9,6.3c4-0.3,10.5-0.9,10.8-1c0.1-0.1,0-2.6-0.3-5.6
	c-0.3-3-0.6-6.1-0.6-6.7c-0.1-1-9.4-0.6-11.8,0.5C1075.4,281.8,1075.4,284.7,1075.8,288.2 M1194.4,275.6c-0.6,5.2-6,94-5.7,94.5
	c0.2,0.4,3,0.8,6.2,1l5.9,0.2l3-47.3c1.7-26,3-47.7,3-48.2c0-0.5-2.6-1.1-5.7-1.2C1194.8,274.3,1194.5,274.3,1194.4,275.6
	 M864.5,453.3c3.1,7,3.6,7.2,9.8,4.5l5.4-2.4l-2.6-5.9l-2.6-5.9l-5.9,2.6l-5.9,2.6L864.5,453.3 M1001.5,404.4
	c1.6,7.7,1.6,7.7,7.8,6.3c3.1-0.7,5.7-1.5,5.8-1.7c0.5-1.3-2.5-11.9-3.6-12.3c-0.6-0.2-3.4,0.2-6.2,1l-5,1.5L1001.5,404.4
	 M1282.2,295.9c-0.7,3.3-1.2,6.2-1.1,6.4c0.1,0.2,2.9,0.9,6.2,1.6l6,1.2l1.1-6.2c0.6-3.4,1-6.4,0.8-6.7c-0.3-0.6-10.6-2.9-11.3-2.5
	C1283.6,289.8,1282.9,292.6,1282.2,295.9 M1300.1,299.5l-1.2,6.5l2.8,0.6c1.6,0.3,4.3,0.8,6.1,1.1l3.3,0.5l1.3-5.8
	c0.7-3.2,1.1-6.2,0.9-6.7c-0.2-0.5-3-1.3-6.1-1.8l-5.7-0.9L1300.1,299.5 M1264.8,319.9c-3.9,3.5-6.4,7.4-8.6,13.2
	c-2.9,7.6-9.8,42.3-8.4,42.7c6.5,2,66.8,12.9,67,12.1c1.6-5.2,6.9-35.8,7.2-41c0.5-9.8-2.4-17.4-8.6-22.6
	C1301.1,314,1274,311.6,1264.8,319.9 M1269.6,333.5c-2.4,4.4-8.9,31.7-7.8,33c0.3,0.3,10,2.4,21.7,4.7l21.2,4.2l2.3-11.6
	c5.1-26.2,3.3-31.9-11.3-35.9C1281.5,324.1,1273.9,325.7,1269.6,333.5 M1114,471.6c-16.3,0.9-41.7,3.7-54.6,5.9
	c-87.7,15.1-174.2,54-245.7,110.7c-94,74.5-162.6,177.8-195.6,294.4c-11,38.7-15,69.9-17.2,131.3c-1.6,46.7,0.6,90,6.2,121.1
	c25.1,139.3,105.6,269.3,219.4,354.1c27.4,20.5,54.5,37,85.5,52.5c75.4,37.5,131.9,50.8,227.4,53.3c84.3,2.2,133.7-4.7,198.9-28
	c62.6-22.4,117-53.3,170-96.5c16.5-13.4,55.9-52.6,69.8-69.4c56.8-68.4,95.9-145.9,117.9-233.5c9.3-37.3,13-68.2,14.7-123.5
	c0.7-23.4-0.8-62.8-3.1-82.4c-3-25.7-11.5-62.1-21.5-92.7c-48.6-147.5-158.2-274.5-296.8-343.9c-53-26.5-118.9-46.1-173.2-51.6
	C1200.2,471.9,1131.2,470.6,1114,471.6 M1340.9,365.2c-5.5,19.4-10.9,36.5-12,38.1c-1.2,1.7-3.7,3.7-6.2,4.8
	c-3.4,1.5-5.1,1.6-9.1,0.4l-5-1.5l-2.1,4.5c-1.2,2.5-1.9,4.9-1.7,5.4c0.2,0.5,2.5,1.6,5.1,2.4c12.1,3.8,22.9-0.1,30.4-10.8
	c1.8-2.5,20.1-63.1,22.2-73.2c0.4-2.2,0-2.5-5.1-4.1c-3.1-0.9-5.8-1.6-6-1.5C1351.1,329.9,1346.4,345.9,1340.9,365.2 M1380.3,359.1
	c-8.6,24.7-15.5,45.1-15.3,45.4c0.2,0.3,2.8,1.3,5.8,2.2l5.5,1.7l14-40.5c7.7-22.3,14.8-42.7,15.7-45.3l1.7-4.9l-5.2-2.1
	c-2.9-1.1-5.5-1.9-5.9-1.8C1396.2,314.1,1388.9,334.4,1380.3,359.1 M1102,485c-18,1-29.5,2.7-51,7.7c-20.2,4.7-62.5,16.8-81.3,23.3
	c-44.8,15.6-100.6,46.2-142.7,78.4c-38.3,29.3-75.8,67-104.5,105.2c-55.2,73.4-91.7,162.5-105.9,259c-4.9,33-6.1,49.2-6.1,79.5
	c0,29.8,1.7,48.1,7.5,82.5c27.1,159.9,111.5,290.1,244.9,378.1c40.9,26.9,81.2,45.9,129.3,60.8c65.3,20.3,101.7,25.4,172.2,24.3
	c39-0.6,55-1.9,84.2-6.7c77.8-12.9,162.5-50,229.9-100.5c37.4-28.1,73.6-63.6,101.8-99.9c30.4-39.2,57.1-85.1,76.2-131
	c13.6-32.7,30.2-87.7,34.8-115.5c5.3-31.5,7.6-80.1,5.8-122.8c-1.8-44-4.1-60.8-12.3-93.5c-44-173.7-165.3-318.3-325.4-387.5
	c-42.6-18.5-93.9-33.1-131.7-37.6C1199.7,485.2,1133.2,483.3,1102,485 M1433.4,339.6l-2.2,5.9l5.9,2.3l5.9,2.3l2.5-6.3l2.5-6.3
	l-5.6-2.2c-3.1-1.2-5.8-2.1-6.1-2C1435.9,333.6,1434.7,336.4,1433.4,339.6 M1413.2,389.3c-7.4,18.1-14.3,34.3-15.5,35.9
	c-1.2,1.8-3.8,3.7-6.5,4.9c-4,1.8-5,1.8-9.6-0.1c-2.8-1.2-5.4-2-5.8-1.8c-0.4,0.2-1.7,2.4-2.9,4.9l-2.2,4.5l5.6,2.6
	c7.7,3.5,13.6,3.6,21.2,0.2c9.3-4.1,11.4-7.6,26.1-43.5c7.1-17.4,13.4-32.8,13.8-34.3c0.8-2.5,0.7-2.6-4.2-4.8
	c-2.8-1.2-5.4-2.1-5.9-1.9C1427,356.2,1420.5,371.2,1413.2,389.3 M1455.5,379.3c-5.8,3.7-12.4,13-16.9,24.1
	c-8,19.6-3.6,29.2,18.8,40.5c5.1,2.6,9.3,4.9,9.5,5.3c0.5,1.2-4.3,7.3-7.3,9.3c-5.6,3.7-14.8,1.1-28.9-8.1c-3.3-2.1-6.2-4-6.4-4.2
	c-0.7-0.4-6.9,7.2-6.5,8.1c0.9,1.9,17.5,12.3,23.5,14.6c8.7,3.4,15.1,3.7,22.3,1.1c7.9-2.9,10.4-6.2,22.5-29.9
	c5.5-10.9,13-25.6,16.7-32.8l6.6-13l-15.4-7.8c-8.5-4.3-17.3-8.4-19.6-9C1467.6,375.5,1460.4,376.2,1455.5,379.3 M1455.9,396.8
	c-2.2,3.3-5.2,9.3-6.7,13.4c-4.7,12.2-2.7,15.4,15.1,24.5c8,4.1,8.1,4.1,9.4,1.7c12.6-24.2,18.8-37.6,17.9-38.2
	c-3-2.1-19.2-9.6-21.7-10C1464.8,387.3,1460.3,390.1,1455.9,396.8 M1117.5,593.9c-7.4,3.8-24.6,19.1-41.8,37.5
	c-7.1,7.5-13.2,13.6-13.6,13.6c-0.4,0-2.3-3.6-4.1-8.1c-3.8-9.2-9-15.9-12.3-15.9c-6.2,0-21.4,14.4-23.6,22.4
	c-1.1,3.9-1,6.3,0.4,15.7c0.9,6.1,1.6,11.2,1.4,11.4c-0.2,0.2-10.4,5.1-22.8,11c-40.2,19.2-57.8,26.1-82.2,32.4
	c-29.3,7.5-30.6,8.9-34.3,34.7c-2.5,17.5-4.9,23.1-14.2,33.7c-7.9,8.9-4.3,12.7,6.5,6.9c12.6-6.8,15.1-11.7,15.2-29.3l0-12.5
	l14.8-4.8c56.8-18.6,96.5-39.8,143.9-76.9c9.4-7.4,20.3-15.8,24.2-18.7l7.1-5.2l7.4,4.1c4.1,2.2,8.6,4.1,10,4.1
	c2.7,0,8.9-4.8,10.9-8.4c1.7-3.1,1.2-7.4-1.7-14.4c-5.2-12.7-2-18.2,11.5-19.8c10.3-1.2,11.9-1.6,15-4.1c6.2-5.2,2.9-11.2-6.8-12.1
	C1124.4,590.9,1122.3,591.4,1117.5,593.9 M1235.1,608.5c-4,4.6-8.8,14.3-13.6,27.4c-5.9,16.2-13.6,22.5-22.7,18.7
	c-6.7-2.8-6.9-5.6-1.5-20.9c1.7-4.8,2.9-9,2.7-9.2c-0.2-0.2-5,3.4-10.7,8c-5.6,4.6-12.6,9.7-15.5,11.4c-6.3,3.6-15.3,6.1-21.8,6.1
	c-2.6,0-5,0.4-5.3,0.9c-1.4,2.2,10.3,10.1,14.9,10.1c1.7,0,6.5-1.2,10.7-2.7c9-3.2,10.3-2.7,11.4,4c2.6,15.6,18.1,16.6,31.4,2.1
	c8.8-9.6,26.1-46.9,26.1-56.2C1241,603.9,1239,604,1235.1,608.5 M1269.2,615.3c-4.5,4.8-14.5,30.4-15.8,40.6
	c-0.6,4.3-0.4,5.2,1.1,5.7c1.3,0.5,2.5-0.2,4.2-2.2c6-7.4,15.3-32.5,15.3-41.4C1274,612.4,1272.7,611.6,1269.2,615.3 M1328,626.7
	c-1.9,1-3.9,2.9-4.4,4.4c-1.2,3.5,0,9.6,2.5,12.1c1.7,1.7,2.7,1.9,6.2,1.3c7.2-1.4,10.2-0.9,13.6,1.9c8.4,7,20.2-2.3,12.6-9.9
	c-2.1-2.1-3.4-2.5-9.4-2.5h-7l-2.8-4.2C1336,624.8,1333.2,624.1,1328,626.7 M970.1,629.6c-2.5,3.2-2.8,9.9-0.5,13.1
	c1.9,2.7,6.6,3,9,0.5c2.5-2.5,5.3-9.2,4.7-11.4c-0.6-2.3-5.1-4.9-8.6-4.9C973.1,627,971.3,628.1,970.1,629.6 M954.3,641.4
	c-5.6,4.8-2.4,16.6,4.4,16.6c3.8,0,8.2-5.1,8.2-9.5c0-2.7-0.8-4.4-2.9-6.6C960.5,638.4,958,638.2,954.3,641.4 M1035,647.5
	c-2.5,3.1,2.2,7.1,6.9,5.8c2.9-0.7,2.7-2.7-0.5-5.2C1038.2,645.6,1036.7,645.5,1035,647.5 M1108.9,674.3c-1.1,1.2-2.7,3-3.5,3.9
	c-0.9,0.9-3.9,2.8-6.7,4.1c-9.4,4.5-13.4,10.4-10.2,15.2c1.2,1.8,2.5,2.5,5,2.5c3.5,0,8.6-3.2,8.6-5.4c0-2.7,3.7-4.7,7.3-4.1
	c2,0.4,4.4,0.2,5.6-0.5c2.3-1.3,6.1-8,6.1-10.9c0-2.4-2.9-5-6.9-6.2C1111.4,672.2,1110.6,672.4,1108.9,674.3 M1332.4,676.9
	c-6.5,3-20.1,11.1-21.5,12.7c-1.1,1.3-0.3,1.4,6.8,0.8c7.5-0.6,8.4-0.5,12.4,1.9c2.4,1.4,5.6,3.9,7.2,5.6c4.2,4.5,11.2,6.5,20.3,5.9
	c6.6-0.4,8.8-1.1,17.9-5.8c11.8-6,11.9-7,0.6-7c-10.4,0-15.6-2.1-29.9-12.2C1341.1,675.1,1337.4,674.6,1332.4,676.9 M1155,689.3
	c0,0.5-1,7-2.1,14.5c-2.4,15.9-4.5,24.2-6.2,24.2c-0.7,0-3.5-2.6-6.4-5.8c-2.8-3.2-5.5-5.4-5.9-5c-0.4,0.4-1,4.6-1.3,9.2
	c-0.3,4.6-0.9,8.8-1.4,9.2c-1.9,1.9-6.8-2.7-23.5-22c-1.8-2.1-3.5-3.7-3.7-3.5c-0.2,0.2,0.9,5.8,2.4,12.4
	c3.3,14.3,4.4,21.5,3.2,21.5c-0.5,0-5.3-3.2-10.7-7c-5.4-3.8-10.1-7-10.6-7c-1.9,0-1.7,2.4,0.8,9.2c3.8,10.4,4.5,13.8,2.8,13.8
	c-1.7,0-14.6-6.8-33.5-17.6c-8-4.6-14.9-8.4-15.3-8.4c-0.4,0,1.7,3,4.6,6.8c11.8,15,23.7,31.2,24.3,33.2c0.4,1.2,0.4,2.4,0.1,2.8
	c-0.3,0.3-4.2-0.2-8.6-1.2s-8.3-1.5-8.8-1.1c-0.7,0.7,1.7,3.2,7.2,7.2c5.3,3.9,3,4.4-19.2,4.4c-12.6,0-20.3,0.4-19.7,0.9
	c0.5,0.5,6.7,3.4,13.8,6.5c18.4,8,25.9,12.8,24.3,15.5c-0.3,0.6-2.7,1.3-5.3,1.6c-7.9,1-9.1,1.4-10.2,3.5c-1.5,2.7,1.9,6,6.2,6
	c9.8,0,6.5,4.9-8.4,12.5c-6.2,3.2-11.5,5.9-11.7,6.1c-1.6,1.4,2.3,1,14-1.2c7.4-1.4,18.9-2.8,25.6-3.1c10.9-0.5,13-0.3,19.3,1.7
	c3.9,1.3,6.9,2.8,6.7,3.4c-0.4,1.4-4.9,3.6-15.2,7.7c-10.8,4.2-18.8,4.7-33.5,2.1c-18.1-3.2-33-4.4-53.5-4
	c-18.4,0.3-19.2,0.4-24.6,3.1c-3.1,1.5-11.3,7.5-18.2,13.2c-15.9,13.2-28.2,22.4-32.4,24.1c-3.7,1.5-4.9,4.4-3.3,7.4
	c2.3,4.3,9.4,0.2,34.6-20.1c20.7-16.7,32.8-23.9,39.9-23.9c1.4,0,3.4,0.9,4.5,2c1.9,1.9,1.9,2.2,0.5,4.9c-4.3,8.3-26.5,24.3-51.2,37
	c-17.8,9.1-21,11.2-19.9,13.1c1,1.6,7.6,0.8,21.5-2.6c19.8-4.9,27.6-9.9,54.5-35.2c12.5-11.8,15.5-14.1,18.1-14.1
	c1.7,0,13.2,0.7,25.5,1.6s26.3,1.4,31,1.2c10.9-0.5,14.1-2.3,26.7-15l9.3-9.4l-13.1-3.8c-7.2-2.1-14.1-4.6-15.3-5.6
	c-2.1-1.7-2.1-1.8-0.4-9.1c1-4,3.8-11.6,6.3-16.9c4-8.3,5.8-10.7,14.7-19.6c11.5-11.4,19.2-16.9,28-19.7c5.3-1.7,8.8-2,26.1-2
	c22.7,0,27.7,1,37.7,7.7c14.9,9.9,31.9,33,36,48.9c2,7.7,1.2,8.5-18.9,21.2c-3.6,2.3-4.8,3.6-4.8,5.5c0,3.9,6.3,3.9,15.9,0.1
	c12.6-5,20.1-6.2,43.9-6.8c12-0.3,21.8-0.8,21.8-1.2c0-0.3-9.4-2.6-21-5.1c-11.6-2.5-21-4.7-21-5c0-0.3,4.1-3,9.2-6
	c5-3,9.2-6,9.2-6.5c0.1-0.5-3-1.3-6.8-1.7c-3.8-0.4-7.4-1.2-7.9-1.7c-1.7-1.7,6.7-8.8,19.2-16.1c6.1-3.6,11.1-6.8,11.1-7.1
	c0-0.3-9.2,0.6-20.4,2.1l-20.4,2.6l5.2-5.9c12.7-14.5,12.6-13.5,0.4-11.2c-9.7,1.9-11.7,1.9-11.7,0.1c0-0.8,3.7-6.7,8.3-13.2
	c10.8-15.5,10.5-14.9,7.6-13.3c-1.3,0.7-8.1,4.8-15,9.1c-7,4.3-12.9,7.8-13.1,7.8s-0.8-3.2-1.2-7c-0.6-6.6-0.8-7-3.1-7
	c-1.4,0-4.7,1.2-7.5,2.6c-2.8,1.4-5.3,2.3-5.7,2c-0.4-0.4-0.1-5,0.6-10.4c0.7-5.3,1.5-13,1.8-17c0.5-6.2,0.3-7.2-1-7.2
	c-1.8,0-5.5,4.6-8.5,10.6c-5.1,10.2-10.9,13.4-13.1,7.2c-0.6-1.7-1.1-5.5-1.1-8.4c0-2.9-0.4-5.5-0.9-5.8c-1-0.6-6,4.7-11.1,11.7
	c-1.9,2.6-3.7,4.4-4.1,4c-0.4-0.4-3.1-8.9-5.9-18.8C1157.3,693.2,1155.1,687,1155,689.3 M1298,714c-1.4,1.5-2,3.3-2,6.8
	c0,5.9,2,8.1,8.2,8.9c5.3,0.7,7.8,1.9,7.8,3.8c0,3.7,10.6,5.8,14.8,2.9c2.8-1.9,3-7.3,0.4-10.4c-1.5-1.9-2.9-2.2-9.1-2.4
	c-7.7-0.2-9.1-1-9.1-5.4c0-3-3.4-6.2-6.5-6.2C1301.1,712,1299.1,712.9,1298,714 M1474.9,719.2c-1.6,1.8-3.8,4.3-4.9,5.6
	c-1.4,1.6-2.6,2.1-4,1.7c-3.5-1.1-2.1,1.3,2.9,5.3c5.7,4.5,10.5,6.7,12.7,5.8c1.3-0.5,1.5-1.5,1-5.9c-0.6-5-0.5-5.4,1.9-6.5
	c3.4-1.5,3.2-3.5-0.5-6.6C1479.9,715.2,1478.5,715.3,1474.9,719.2 M816.5,722c-2.6,4.2,18.3,32.1,29.4,39.2c4.7,3,9.1,3.7,9.1,1.6
	c0-4.7-28.2-36.6-36.1-40.8C817.8,721.3,816.9,721.4,816.5,722 M1371.7,729.7c-2.9,2.9,3.8,13.1,12.7,19.2c5.8,3.9,8.7,4.4,16.2,2.7
	c9.2-2.1,17.5-1.9,26.4,0.7c6,1.8,10.1,2.2,20.1,2.2c13.7,0,18.3-1,22-5c3.3-3.5,1.6-4.8-4.5-3.5c-5.4,1.2-9.9,0.6-17.1-2.3
	c-4.2-1.7-8.5-2.1-27-2.8c-24.8-0.9-28.2-1.6-37.6-7.9C1377.2,729.3,1373.3,728.1,1371.7,729.7 M1504,763.6
	c-7.7,2-28.9,12.7-32.4,16.3c-4.2,4.4-3,6.6,3,5.8c9.8-1.3,35.4-11.7,40.7-16.4c2.3-2.1,2.2-4.9-0.2-6.2
	C1512.6,761.7,1510.8,761.8,1504,763.6 M798,786.8c-4.9,4.9-6.4,10.2-5.5,20.4c0.6,6.8,0.5,7.8-0.9,7.8c-0.9,0-6.8-5-13.1-11
	c-11.6-11.1-15.5-13.3-15.5-8.7c0,5,12.1,18.9,24.6,28.2c13.8,10.3,15,16.3,4.2,20.8c-6.1,2.5-7.6,7-10.3,30.6
	c-3.8,33.4-14.8,62.7-33.4,88.9c-4.3,6.1-8.6,12.7-9.6,14.7c-1.7,3.6-1.7,3.8,0.3,7.8c3.9,8,20.7,28.6,23.3,28.6
	c1.6,0,1.1-1.8-2.7-9.1c-3.5-6.7-3.6-7.2-2.4-11.2c0.7-2.3,5.5-11.2,10.7-19.8c18.4-30.4,20.2-36.6,24.4-81.9
	c1.9-20.9,3.2-28.2,5.2-30.7c0.5-0.7,3.4-1.9,6.3-2.8c11.7-3.4,18.3-13.5,20.5-31.3c1.3-10-0.3-21-4.1-28.9
	c-3.3-6.9-12.6-16.4-16-16.4C802.7,783,800.1,784.7,798,786.8 M1441,787.3c0,1,0.9,5.9,2,11c4.1,18.9,7.5,25.9,14.1,29.3
	c1.6,0.8,7.6,1.9,13.4,2.3c11.8,0.9,13.6,1.8,16.6,8.8c1,2.3,3.5,11.5,5.5,20.5c4.6,20.2,8.8,32.7,16.5,48.7
	c16.8,35,39,63.2,64.2,81.5c5.9,4.3,11.1,7.6,11.4,7.3c0.3-0.3-0.2-4.5-1.1-9.2c-0.9-4.7-1.5-8.8-1.3-9c0.2-0.2,2,2.2,4,5.3
	c9.3,15.1,30.2,40.3,33.4,40.3c2.8,0,1.2-5.3-7-21.7c-8.2-16.5-10.4-21.8-12.5-29.9c-1.4-5.3-10.3-15.1-19.3-21.5
	c-7.7-5.4-11.6-6.7-14.8-4.9c-2,1.1-2.1,1.7-1.5,7.3c0.4,3.4,0.9,7.5,1.2,9.1c0.5,2.9,0.4,2.9-4.1-2c-28.8-31-43.3-63.8-50-113
	c-2.8-20.7-3.5-21.6-18.1-24.6c-17.9-3.6-21.8-6-39.6-24.3C1445.9,790.5,1441,786.2,1441,787.3 M802.9,799.7
	c-3.9,4.7,1.6,30.3,6.5,30.3c3.6,0,7.1-18,4.6-24c-1.4-3.3-6.3-8-8.5-8C804.8,798,803.6,798.7,802.9,799.7 M1524.4,800.1
	c-4.7,5.2-0.6,14.9,6.2,14.9c6.4,0,9.3-6.4,5.9-12.9C1534.2,797.5,1527.7,796.4,1524.4,800.1 M1149,799.7c-2.4,1-7.1,5.6-8.7,8.7
	c-0.8,1.6-2.4,7.2-3.4,12.4c-1.9,9.5-4.1,13.7-6.5,12.8c-2.3-0.9-11,2-16.4,5.4c-3.8,2.5-5.8,4.6-7.4,7.9c-2,4.4-2.1,6.2-2.4,51.2
	l-0.3,46.6l-11.7,0.5c-6.4,0.3-14.1,1.3-17,2.2c-5.5,1.7-12.6,7.2-13.7,10.6c-0.8,2.7,2.8,8.5,12.1,19.4
	c7.6,8.9,11.4,14.9,10.2,16.1c-0.3,0.3-2.4,0.8-4.5,1.1c-4.5,0.6-4.3,0.8-11.2-9.9c-5.7-8.9-9.2-11.8-11.6-9.7
	c-2.1,1.7-1.2,5.9,2.5,12c4.3,7,6.1,13.2,7.2,24.5c1.1,12,2.3,16.7,5.4,22c2.6,4.6,6.2,8.1,7.2,7.2c0.4-0.4-0.1-4.9-1-10.2
	c-1.8-10-1.6-11.5,1.3-11.5c3.7,0,8.1,6.9,8.1,12.5c0,4.6,4.3,17.5,8,24c3.7,6.4,8.7,11.5,11.2,11.5c1.9,0,2-0.5,1.5-5.8
	c-0.3-3.2-1.9-9.2-3.6-13.5c-1.7-4.3-3.1-8-3.1-8.3s1.4,0.2,3.2,1.1c5,2.6,12,9.7,18.3,18.6c8.4,11.8,12.3,15.8,15.7,15.8
	c5.7,0,4.4-5.6-3.1-14.2c-2.3-2.6-4.1-4.9-4.1-5.2c0-0.3,3.9,0.8,8.8,2.5c10.6,3.6,24,5,26,2.6c3.6-4.4-3.9-8.7-18.6-10.7
	c-7.3-1-13.2-3.2-13.2-5c0-1.4,6.8-3,12.8-3c5.5,0,12.2-2.2,12.2-4c0-4-12.1-8.7-20.1-7.7c-2.6,0.3-8.4,2.4-12.8,4.6
	c-4.4,2.2-9.4,4.1-10.9,4.1c-2.8,0-6.2-2.6-6.2-4.7c0-1.9,3.5-4.1,9.4-5.8c6.6-1.9,10.6-5.3,10.6-9c0-3.6-2.8-4-17-2.6
	c-12,1.2-20.4,0.8-21.6-1.1c-1-1.6,0.1-2,8.1-2.9c7.8-0.9,12.4-2.9,12.4-5.4c0-3.2-1.6-4.8-7.4-7.7c-6.6-3.3-11.6-7.4-11.6-9.6
	c0-2.2-3.9-9.3-9.7-17.5c-3-4.2-6.1-9.4-7-11.4c-1.5-3.5-1.4-3.8,0.2-5.1c2.9-2.1,16.9-1.6,23.4,0.8c3,1.1,6.7,2.3,8.2,2.6
	c5.1,1,5.2,0.2,6-53.2c0.8-58,1.4-62.4,8.4-63.7c9.8-1.9,15,11.2,16.2,40.7c0.6,16.7,1.7,22.4,2.8,14.5c0.3-2.5,1.1-15,1.6-28
	c2.3-51.1,4-58.3,13.9-60.5c6-1.3,8.9,2.7,11.6,15.9c0.9,4.6,1.8,19.8,2.4,42.6c1,36.8,1.7,48,3,48c1.5,0,2-4.9,2.6-26.5
	c0.9-33.3,2.8-42.7,9.2-45.4c4.7-2,10,0.1,11.9,4.7c2.2,5.3,3.2,28.2,3.3,72c0,21,0.3,38.2,0.7,38.2c0.3,0,3.8-1.8,7.8-3.9
	c14.4-7.9,36.6-11.9,36.6-6.6c0,0.7-1.6,3.7-3.7,6.7c-8.9,13-10.2,15.2-11.3,19.7c-3,12.1-3.1,12.2-7.1,14.7
	c-5.8,3.6-7.5,6.7-6,10.4c2.5,5.9,13.1,6.1,19.3,0.3c2.2-2,3.8-2.6,7.7-2.7c7.2-0.1,9.2,2.2,10,11.6c0.7,8.2,1.4,9.8,4,9.8
	c3.4,0,4.1-4.5,3.8-23.7c-0.2-16-0.1-18.4,1.4-19.9c1.6-1.6,1.8-1.5,3.2,1.7c0.8,1.9,2.2,5.9,3.1,9c3.8,13.9,10.6,12.6,10.5-1.9
	c0-7.5-2.3-16.8-4.9-20.1c-5.7-7.1-6.1-9.8-4.7-28.7c0.9-11.3,0.1-15.4-2.8-15.4c-2.9,0-4.7,3.8-5.6,11.9c-0.4,4.5-1.4,8.8-2.1,9.6
	c-1.6,1.9-5.4,1.9-7,0.1c-0.7-0.8-3.3-2.3-5.9-3.2c-5.9-2.3-22.4-2.3-29.4,0c-4.7,1.5-5.7,1.3-7.9-1.6c-0.1-0.1-0.5-19.1-0.9-42.2
	c-0.5-26.5-1.2-43.3-1.9-45.6c-1.5-4.8-5.4-8.6-12-11.6c-4.4-2-6.4-2.4-11.2-2c-3.6,0.3-6.2,0.1-6.9-0.6c-0.6-0.6-1.1-3.2-1.1-5.8
	c0-16.1-8.8-28.7-20.8-29.5C1152.6,799.2,1149.8,799.3,1149,799.7 M1388,816.6c0,1.5,6.1,11.1,8.5,13.4c3.1,2.9,5.5,1.7,3.6-1.9
	C1397.5,823.3,1388,814.3,1388,816.6 M1406.7,824.7c-1.1,1.1-0.7,20.1,0.5,22.8c0.8,1.8,1.9,2.5,3.9,2.5c7.3,0,7.9-11.8,1.1-22.2
	C1409.8,824.2,1408.1,823.2,1406.7,824.7 M1376,825.5c0,3.1,8.3,14.5,10.6,14.5c2.8,0,1.3-4-3.7-9.4
	C1378.4,825.6,1376,823.9,1376,825.5 M1319,840c0,3,10.1,17.9,12.8,18.7c2.3,0.8,1.3-3.3-2.3-9.3c-2-3.3-4.5-7-5.7-8.2
	C1321.6,838.9,1319,838.3,1319,840 M1349.3,841.6c-1.1,2.9,0.4,20.8,2.2,25.2c2.1,5.2,4.8,5.7,6.4,1.1c2.4-6.9,0.5-20-3.6-24.9
	C1351.5,839.6,1350.2,839.3,1349.3,841.6 M1373,844.3c0,1.9,5.3,9.7,8.6,12.9c3.3,3.1,9.2,5.8,12.8,5.8c2.7,0,6.6-4.2,6.6-7.1
	c0-3.9-4.2-6.8-11.4-7.9c-3.8-0.6-8.6-1.9-10.7-3C1374.4,842.7,1373,842.5,1373,844.3 M1425.8,852.8c-2.9,3.4-4.1,6.7-4.1,12
	c0,6,2.8,10.3,6.8,10.3c3.7,0,4.9-2.6,4.8-10.4C1433.3,854,1429.7,848.3,1425.8,852.8 M874.7,859.9c-5,5.6-8.2,11.5-11.1,20.8
	c-4,13-6,28.8-5.4,43.9c0.7,16.4,3.3,29.5,5.9,29.5c1.8,0,5-9.1,9.3-26.5c7.7-30.7,11.1-57,8.9-68.3
	C881.5,854.8,879.1,855.1,874.7,859.9 M1315,857.4c0,3.7,14.7,20,20.4,22.7c5.8,2.7,8.6,1.1,8.6-4.8c0-4.4-2.4-6.6-10.3-9.2
	c-3.6-1.2-9.1-4-12.2-6.1C1315.3,855.5,1315,855.4,1315,857.4 M1408.3,867.6c-1.6,4.1,4.8,15.4,8.6,15.4c5,0,5.3-9,0.4-14.1
	C1414.3,865.7,1409.3,864.9,1408.3,867.6 M1363.1,871.8c-1.3,4.8-1.2,10.7,0.3,15.7c2.5,8.3,8,3.8,7.9-6.4
	C1371.2,870.1,1365.3,863.5,1363.1,871.8 M1298.4,870.4c-1.1,2.7,1.3,21.1,3.1,24.6c0.8,1.6,2.2,3,3.1,3c1.7,0,4.4-5.7,4.4-9.3
	c0-4.7-3-12.4-6.4-16.3C1299.5,868.9,1299.1,868.7,1298.4,870.4 M1437.6,875.6c-0.3,2.6-0.6,6.6-0.6,9.1c0,7.4-1.1,8.5-7.9,7.7
	c-6.8-0.8-7.7,0-6,5.2c0.6,2,0.9,3.8,0.6,4.1c-0.3,0.3-4.2-1.1-8.6-3.2c-4.4-2.1-8.7-3.5-9.5-3.2c-2,0.8-2,7.8,0,11.6
	c0.8,1.6,2.9,4.1,4.7,5.6c2.9,2.4,3.8,2.7,8.1,2.2c6.5-0.8,12.6-4.5,21.5-13.1c11-10.6,12.2-14,7.5-21.1c-3-4.5-7.4-9.5-8.4-9.5
	C1438.6,871,1438,873.1,1437.6,875.6 M1394.8,875.1c-1.5,0.5-2.9,1.7-3.3,2.5c-1.4,3.6,8.2,13.3,13,13.3c4.7,0,5.6-4.1,2.2-10.1
	c-1.7-3.1-7.2-7.2-9-6.8C1397.7,874.1,1396.3,874.6,1394.8,875.1 M1272,877.2c0,5,5.6,10.8,7.5,7.8c1.1-1.7-4.5-10-6.7-10
	C1272.4,875,1272,876,1272,877.2 M819.5,881.4c-1.3,1.9-1.6,4.3-1.3,9.8l0.3,7.2l-4.2,0.8c-2.9,0.6-4.4,1.5-4.9,2.9
	c-0.7,2.2,2.3,12.8,4.1,14c1.8,1.3,9.2,0.8,10.5-0.7c0.8-1,1-3.2,0.5-6.9c-0.8-6.1,0.2-8.6,4.7-12.8c3.6-3.3,3.8-8.2,0.6-13
	C826.7,878.4,821.9,877.7,819.5,881.4 M1338.2,888.2c-2.1,2.1-1.3,4.6,2.6,9c8.3,9.3,18.2,9.6,18.2,0.7
	C1359,891.5,1342.5,883.9,1338.2,888.2 M1264,890.6c3.1,8,11.7,18.3,17.3,20.4c6,2.2,13.7-0.1,13.7-4.1c0-3.2-6.9-9.5-11.8-10.7
	c-2.3-0.6-6-1.6-8.2-2.1c-2.2-0.6-5.3-2.1-6.9-3.5C1264.2,887.2,1262.8,887.2,1264,890.6 M1376.4,893.5c-2.2,3.3-1.6,15.7,0.8,18.1
	c2.5,2.5,6.5,1,8.5-3.2c1.4-3,1.5-4.1,0.4-8.2c-1.3-4.9-4.5-9.2-6.8-9.2C1378.6,891,1377.3,892.1,1376.4,893.5 M1008.2,907.8
	c0.4,11.2,0.8,14.6,2.6,18.5c3.3,7.4,5,6.4,9.3-5c2.7-7.3,5.3-2.4,9.5,18.2c1.3,6.6,2.6,12.1,2.8,12.3c0.2,0.2,0.6-4.3,1-10
	c0.7-11.4-0.3-19.8-2.9-24.9c-1.8-3.6-20.2-22.8-21.7-22.8C1008.1,894,1007.9,899.5,1008.2,907.8 M1321.6,898.6
	c-0.3,0.9-0.6,6.2-0.6,11.9c0,8.5,0.3,10.7,1.8,12.5c3.9,4.8,10.2-1.5,10.2-10.3c0-5.7-1.8-9.5-6-13.1
	C1323.4,896.6,1322.4,896.4,1321.6,898.6 M1452.1,898.4c-0.7,0.8-1.6,5.1-2,9.4c-0.4,4.4-1.1,8.5-1.5,9.1c-0.5,0.8-2,1-4.4,0.6
	c-5-0.9-7.6,1.9-6.8,7.1c1.8,11.1,12.6,9.4,21.3-3.2c3-4.4,3.8-6.5,4.1-11.2c0.5-7.6-1.9-12.6-6.3-13
	C1454.6,897,1452.8,897.5,1452.1,898.4 M891.1,902.8c-0.6,1.1-5.3,14.5-10.5,29.8c-9.5,28-13.7,38.7-15.4,39.8
	c-0.5,0.3-1.5-2.4-2.2-6c-1.4-7.2-2.1-7.3-4-0.1c-0.8,2.8-1.7,4.4-2.2,3.9c-0.5-0.5-1.3-12.6-1.8-26.8c-1.2-32.6-2.5-40.4-7-40.4
	c-2.4,0-6.3,6.5-8.6,14.4c-2.7,9.5-1.5,27.5,2.9,44.2c1.9,7.2,4.2,18.2,5.1,24.3c1.7,12,2.1,37.7,0.6,39.9c-1.3,2-2.9-4.3-4.1-15.9
	c-0.5-5.2-1.4-14.3-2-20.2c-0.6-5.9-1.9-13.2-3-16.3c-2-5.7-5.5-11.5-7-11.5c-1.3,0-4.8,9-6.1,15.8c-2.6,13.4,0.5,27.3,11.6,51.1
	c8.4,18.1,11.5,28.9,11.4,39.5c0,5.5-0.3,7.5-0.9,6.1c-0.5-1.1-3.4-8.5-6.5-16.5c-11.1-28.3-18.7-39.2-23.6-33.3
	c-2,2.5-1.7,16.6,0.5,23.3c3.9,11.8,10.2,22.2,22.6,37.5c5.6,7,14,24.5,19.3,40.5c5.6,16.8,5.8,18.4,3,18.8
	c-3.1,0.4-7.8-7.2-21.5-34.8c-6.4-12.9-12.4-24.4-13.2-25.5c-2.9-3.6-3.7-0.1-3.3,13.5c0.3,10.9,0.7,13.4,3.2,19.5
	c6.4,15.8,18.1,31,28.3,36.8c6.6,3.7,10.6,7.6,17.7,17.1c12.5,16.8,23.1,39.6,18.4,39.6c-2.6,0-7.7-5.1-21.3-21.3
	c-15.5-18.4-32.1-37-33.7-37.5c-0.5-0.2-0.1,1.8,1,4.5c1.1,2.7,4.5,11.4,7.6,19.3c10.9,27.5,18.7,39.5,28.7,44
	c2.3,1,8.3,2.8,13.3,3.9c14.1,3.1,20,5.8,30.9,14.2c4.5,3.5,8.2,3.9,9.1,1c0.4-1.1-0.5-4.8-2-8.5c-4.3-10.6-4.6-12.3-5.5-29.5
	c-1.3-24.1-7-51.2-14.1-66.9c-4.8-10.5-5.4-8.1-5.4,20.2c0,24.5,1.2,38,4.1,46.4c0.8,2.4,1.3,5.2,1.1,6.1c-0.6,2.4-8.2-5.7-13-13.9
	c-11.1-18.7-11.8-38.4-2.2-64.4c14.7-40,17.5-51.6,15.5-64.5c-1.2-8-3.8-14.9-5.5-14.9c-0.7,0-1.7,2.5-2.3,5.5
	c-0.6,3-3,9.7-5.3,14.8c-5.6,12.5-10.1,26.3-16.4,50.7l-5.3,20.5l-1.4-6c-0.8-3.3-1.4-10.5-1.3-16c0-11.7,0.7-13.8,11.8-39.2
	c10.5-23.9,14.6-36.1,14.6-43.4c0-7.3-1.2-7.6-7.7-1.7c-11.6,10.7-20.8,30.5-22.9,49.3c-0.4,3.3-1.2,7.3-1.9,9l-1.2,3l-1.3-2.5
	c-1.9-3.5-2.5-16.4-1.1-23.1c1.4-6.8,5.6-15.9,11.2-24c11-16.2,24.9-55.8,24.9-70.9c0-7.5-1.6-8.3-6.4-3c-5.4,6-13.7,24.3-21,46.3
	c-6.2,18.8-9.6,26.6-11.6,26.6c-1.5,0-2.2-6.7-1.5-13.8c1.7-17.2,6.5-30.5,18.1-50.9c13.4-23.4,20.8-44.2,22-61.8
	C896.4,905.9,894,897.4,891.1,902.8 M952,908.7c-9.2,0.5-20.4,2.4-22.8,4c-1.5,1-2.2,2.2-2,3.7c0.5,3.7,6.4,5,20.8,4.3
	c12.3-0.5,16.3-1.2,24.8-4.3c4.8-1.7,5.8-4.9,2-6.3C972,909.1,959.4,908.3,952,908.7 M1351.2,909.2c-3.8,3.8,2.1,10.7,11.3,13.3
	c6.5,1.9,10.8,1,11.3-2.4C1374.7,914.2,1355.5,904.9,1351.2,909.2 M1389,912c-2.9,5.4-2,18.1,1.6,21c2.2,1.8,6-0.1,8-4.2
	c3.2-6.2-0.9-18.9-6.1-18.9C1391.1,910,1389.6,910.9,1389,912 M1305.6,917.6c-2,2-2,7.3,0,10.2c3.3,4.7,13.7,7.2,15.1,3.7
	c1-2.5-1.6-7.2-6.2-11.5C1309.7,915.6,1308,915.2,1305.6,917.6 M1416.5,922.9c-1,3.2,2.1,8.6,7.7,13.7c5.4,4.8,9.1,6.4,11.7,4.8
	c2.4-1.5,2.5-7.3,0.2-11c-2.4-3.9-9.8-8.3-15-9C1417.8,920.8,1417.1,921.1,1416.5,922.9 M1336.3,925.8c-0.4,2.1-0.8,7-0.8,10.9
	c0,6.2,0.3,7.5,2.4,9.8c6.7,7.1,15-1.6,12-12.5c-1.3-4.9-7.6-11.9-10.8-11.9C1337.6,922,1336.9,922.9,1336.3,925.8 M1285,926.5
	c-2,2.4-0.4,6,4.6,10.4c5,4.4,10.5,6.1,12.9,4.1c2-1.6,1.9-7.9-0.1-10.8c-0.9-1.2-2.9-2.9-4.4-3.7
	C1294.2,924.5,1286.6,924.5,1285,926.5 M982.1,931.8c-1.8,4.5-3,11.1-4.2,23.2c-1.4,13.9-3.3,23.8-5.9,29.6
	c-3.2,7.2-5.4,5.4-7.1-5.7c-2.6-17.6-3.2-20.6-4.6-22.7c-3.6-5.6-6.4-0.5-6.5,12.1c-0.1,11.3-0.7,13-4.7,13.4
	c-5,0.5-13.8-2.5-16.1-5.5c-2.6-3.3-3.5-6.8-6-22.9c-1.1-7.2-2.5-14.3-3-15.8c-1-2.6-3.6-4.5-4.7-3.4c-1.5,1.5-2.5,10.8-3.4,29.6
	c-1,22.5-2.1,28-7,36.6c-1.7,3.1-2.7,5.6-2.2,5.6s6.1-4.5,12.3-9.9c6.2-5.5,12.3-10.5,13.6-11.2c3-1.6,7.9,0.6,19.3,8.6
	c4.7,3.3,9.1,6.4,9.8,6.8c0.8,0.5,4-1.6,9-6.1c11.9-10.6,12.9-11,19.2-5.7c7.8,6.5,10,3.5,4.8-6.4c-4.6-8.6-5.8-14.3-6.7-33.2
	C987.2,930.7,985,924.5,982.1,931.8 M1367,935.5c7.3,7.3,13.4,10.4,16.9,8.6c1.4-0.7,2.1-2.1,2.1-3.9c0-6.8-7.2-11.2-18.2-11.2h-7.3
	L1367,935.5 M1461.5,931.8c-11.3,6.3-24.5,16.9-24.5,19.8c0,1.9,2.2,2.2,5.6,0.8c5.8-2.4,12.5,1.2,15.6,8.4
	c1.6,3.7,1.9,5.7,1.3,11.1c-1.3,12.6-4.6,30.7-9,48.7c-4.4,17.9-6.6,24.8-8.4,25.9c-1.5,0.9-3-7.8-4.5-26.1
	c-1.1-12.5-2-18.4-3.4-21.7c-2.1-4.8-5-7-7.6-6c-4.2,1.6-8.3,17.1-7.1,26.8c0.7,5.7,2.2,7.9,5.2,7.3c2.3-0.4,3.9,4.9,5.4,17.9
	c5.7,49.4,23,115.6,28.8,109.8c0.4-0.4,1-11.6,1.4-24.9c0.7-26.3,1.4-30.8,8.4-54.7c7-23.7,8.5-29.5,10.9-40.5
	c3.5-16.1,4.7-30.6,3.9-47.2c-0.4-7.9-0.9-14.2-1-14c-0.2,0.2-1.9,8.6-3.9,18.8c-6.6,34.4-24,95-26.7,93.3c-2.5-1.6,0.7-31,6.8-60.9
	c6.4-31.5,6.8-35.3,6.9-60c0.1-21.8,0.2-23.2,2.4-27.8c2.3-4.9,2.3-7.7-0.1-7.7C1467.1,929,1464.2,930.3,1461.5,931.8 M1403.3,930.8
	c-1.9,1.2-3.3,6-3.3,11.2c0,2.7-0.5,6.1-1,7.6c-1,2.6-1.2,2.7-5.8,1.9c-2.6-0.4-6.7-0.8-9.2-0.9c-3.9-0.1-4.5,0.2-4.8,2.2
	c-0.2,1.5,0.7,3.3,2.7,5.2c2.5,2.5,3.8,3,8.1,3c6.4,0,10.7-1.8,16.1-6.7c4.8-4.3,7-8.6,7-13.9C1413,933.1,1407.8,927.9,1403.3,930.8
	 M706,939c-1.1,1.1-2,3.3-2,4.9c0,3.8-1.8,8.8-4.8,13.1c-6.4,9.4,4.4,21.9,11,12.9c1.8-2.4,1.9-3.2,0.9-7.2
	c-1.4-5.5-0.7-7.6,2.5-7.6c4,0,6.3-1.8,6.3-4.8c0-3.5-2.8-11.5-4.3-12.4C713.4,936.3,708,937,706,939 M1321.9,942.2
	c0,0.1-0.6,2.3-1.2,4.8c-1.1,4.3-1.3,4.5-4.7,4.4c-1.9-0.1-6-0.5-9.1-0.9c-3.9-0.5-5.8-0.4-6.3,0.4c-0.8,1.4,3.2,14.3,4.8,15.3
	c1.7,1.1,10.2,0.9,13-0.4c1.4-0.6,2.8-2.1,3.2-3.2c0.8-2.7,2.2-3.6,5.5-3.6c5.3,0,7.5-6,4.4-12c-1.7-3.2-4.3-5-7.4-5
	C1322.9,942,1322,942.1,1321.9,942.2 M1351.1,955.1c-0.6,1.7-1.1,4.5-1.1,6.2c0,6.9-0.7,7.7-6.4,7.4c-5-0.3-5.1-0.2-5.5,2.6
	c-0.5,4.7,0.7,9.3,3.5,12.6c4.3,5.1,9.4,3.3,9.4-3.3c0-2.4,2.5-5.5,3.6-4.4c1.3,1.3,6.8-1.9,9.5-5.6c4.7-6.5,3.4-12.4-3.6-16.7
	C1355.6,951,1352.4,951.3,1351.1,955.1 M1016.3,955c-2.7,1.1-4.3,4-4.3,7.9c0,4.6,1.5,4.6,5.1,0l3.2-4.1l1.3,2.3
	c4.2,7.6-2,21.5-8.6,19.4c-1.6-0.5-2.3-0.1-3,2c-1.3,3.5-1.3,35.5,0,35.5c0.5,0,1-0.2,1-0.5c0-1.3,3.1-20.2,3.6-21.7
	c0.9-2.9,2.1-2,4.8,3.4c2.9,5.8,3.2,11.2,1.1,17.1c-1.8,5-4.3,7.7-7.1,7.7c-2.8,0-5.6,2.7-5.2,4.9c0.6,3.1,7.6,4.4,27.5,4.9
	c10.6,0.3,19.2,0.2,19.2-0.3c0-0.4-4.1-6.2-9-12.8c-5.7-7.6-9-12.9-9-14.5c0-1.6,1.9-4.5,5.5-8.4c7.6-8.2,7.4-9.1-2.6-21.9
	c-8.5-10.9-11.5-15.7-10.4-16.7c0.4-0.4,1.9,0.8,3.5,2.7c3.3,3.9,5.5,3.7,8.9-0.9c4.2-5.7,3.1-6.4-10.9-6.6
	C1024.1,954.2,1017.5,954.5,1016.3,955 M1221.7,954.7c-1.2,1.2-0.7,6.1,0.8,7.3c3.8,3.1,9.6-2.7,6.5-6.5
	C1227.7,954,1222.9,953.4,1221.7,954.7 M1246.7,961.8c-13.1,20.6-13.6,22.2-6.3,20.8c5.1-0.9,11.6-6.3,14.8-12.1
	c4.3-7.7,3.4-15.5-1.8-15.5C1251.5,955,1250.1,956.4,1246.7,961.8 M1400.9,969.7c-5.6,4.3-10.4,8.4-10.7,9.1
	c-0.3,0.9,1.5,1.2,7.1,1.2c6.5,0,7.9,0.3,10.3,2.4c2.7,2.3,2.8,2.7,2.7,11.8c-0.2,17.9-11.7,62.2-15.9,61.1c-0.6-0.1-0.9-2.4-0.8-5
	c0.1-2.6,0.3-12.4,0.5-21.7c0.2-15.5,0.1-17.5-2-23c-3-8.1-7.4-11.9-11.1-9.6c-1.1,0.7-1.1,1.9-0.3,6.2c1.9,9.6,3.2,31.7,3.8,67.9
	l0.6,35.6l-5.4,2.7c-6.6,3.3-30.4,22.3-30.4,24.2c0,0.8,6.4,9.2,14.2,18.9c7.8,9.6,14.2,17.7,14.2,18c0,0.3-3.9,0.6-8.8,0.6
	c-15.1,0-15.7,0.8-8.9,11c6.9,10.4,7,13.1,0.3,14.5c-12,2.6-2.1,3.4,47.4,4.1l45.6,0.6l1.2,9.1c0.7,5,1.4,9.3,1.7,9.5
	c1.1,1.1,1.5-1.1,1.7-10.2c0.3-13,0.2-13.1-14.7-13.5c-9.2-0.3-11.5-0.7-11.5-1.8c0-0.8,2.3-5.2,5.1-9.8c2.8-4.6,4.9-9.1,4.7-10.1
	c-0.5-2.4-3.7-3.2-13.5-3.3c-4.5-0.1-8.4-0.5-8.7-1c-0.3-0.5,0.3-2,1.4-3.4c2.7-3.4,2.5-7.3-0.8-12.9c-2.3-4-16.3-21.3-28.5-35.2
	l-3.4-3.9l10.5-18.8c5.8-10.4,10.8-18.5,11.2-18.1c0.4,0.4,2,3.9,3.6,7.8c2.8,6.9,10.6,16.5,13.3,16.5c2.1,0,2.5-3.1,1.2-7.9
	c-0.7-2.5-1.6-8.7-2.1-13.8c-1.3-13.1-4.6-20.3-9.5-20.3c-1.5,0-4.2,2.2-8.3,6.7c-3.3,3.7-6.3,6.4-6.7,6.1c-0.4-0.4,1.4-8,3.9-17
	c5.5-19.4,8.2-37.3,9.8-63.8c1.2-20.8,0.6-28.3-2.3-28.9C1411.9,962,1406.6,965.4,1400.9,969.7 M1088,964.9
	c-2.6,4.9,0.5,10.1,6.3,10.1c6.1,0,7.4-3.8,3.1-8.9C1094.3,962.4,1089.7,961.9,1088,964.9 M1314.2,974.6c-1.7,0.7-1.6,5.8,0.2,9.3
	c1.8,3.5,9.2,9.9,12.2,10.7c5.1,1.3,11.3-2.5,11.3-6.9c0-4.6-10.3-11.8-19-13.1C1317.1,974.3,1314.9,974.3,1314.2,974.6
	 M1515.3,977.6c-2.1,2.1-2.4,3.2-1.9,5.8c0.8,4,3.5,7.7,6.9,9.7c2.4,1.3,2.9,1.3,5.3,0c1.5-0.8,3.6-2.7,4.7-4.3
	c2.1-2.8,2.1-2.8,0.1-6.4c-2.2-4-6.8-7.3-10.3-7.3C1518.9,975,1516.8,976.2,1515.3,977.6 M1024.1,978.6c-4.8,6.1-1.9,18.5,4.9,21.3
	c3.8,1.6,6.1,0.8,8.8-3.3c3.1-4.6,3-10.3-0.3-14.7C1032.8,975.6,1027.5,974.3,1024.1,978.6 M1350.3,992.3
	c-8.4,5.1-15.2,9.5-15.2,9.8c0,0.3,3.6,0.9,8,1.3c9.2,0.8,12.8,1.9,13.7,4.3c0.4,0.9-0.4,6.2-1.6,11.7
	c-2.5,10.9-14.9,50.2-15.7,49.4c-0.3-0.3-1.2-6.5-2-13.8c-2.8-23.8-7.1-36.9-15.6-47.3c-2.3-2.8-4.3-5.3-4.5-5.5
	c-0.2-0.2-0.5-0.2-0.8,0.1c-0.3,0.3,0.2,3.4,1,6.9c0.8,3.5,2.6,15.6,4,26.9c7.9,63.6,10,75.9,15,86.7c4.4,9.5,7.7,5.8,14.7-16.2
	c8.7-27.4,11.6-29.7,16-12.4c4,15.8,7.4,18.2,9.2,6.6c1.3-8.3-3.2-33.5-6.5-36.9c-3.9-3.9-9.9,0.7-15.5,11.9
	c-4.1,8.2-7.4,11.9-9.8,10.9c-1.4-0.5-1.4-0.9-0.2-3.4c6.9-13.3,25.2-96.1,21.9-99.4C1365.8,983.4,1358.6,987.2,1350.3,992.3
	 M1239.5,1003.6c-6.2,6.3-8.5,7.6-12.3,6.8c-1.7-0.3-5.6,0.2-8.8,1.1c-6.4,1.8-25,10.3-24.3,11c0.2,0.2,4.5,0.9,9.4,1.5
	c9.2,1.1,13.5,2.6,14.2,4.7c0.6,1.8-3.6,3.1-13.1,4.2c-10,1.1-15.5,3.4-22.9,9.5c-5.7,4.7-7.3,7.6-4,7.5c1,0,6.8-1.5,13-3.3
	c6.2-1.8,10.9-3,10.5-2.6c-0.4,0.4-5.7,4.5-11.8,9.1c-13.5,10.3-26.3,22.4-27.1,25.6c-0.9,3.5,1.4,5.6,5.3,5
	c4.8-0.8,12.4-6.2,25.2-18.1c10.7-10,14-12.3,12.8-9.2c-1.9,4.8-5.7,18.1-5.7,19.7c0,2.5,1.5,3.3,4.6,2.6c3.5-0.9,5.9-6.9,7.8-19.3
	c1.9-13,4.4-18.7,10.8-24.8l5.1-4.9l-0.6,5c-1.7,13.5-1.8,16.3-0.7,18.3c0.6,1.2,1.9,2.2,2.7,2.2c2.8,0,7.3-6,9.3-12.4
	c2.9-9.4,6.2-30.7,5.9-37.8l-0.3-6.3L1239.5,1003.6 M978.9,1010.3c-4.5,3-7.9,9.9-7.9,15.9c0,6.5,1.6,7,4.1,1.2
	c4.9-11.8,6.1-12.9,12.7-12.4c3.9,0.3,4.2-1.1,0.8-4.4C985.5,1007.4,983.3,1007.4,978.9,1010.3 M932.5,1015.5
	c-2.3,2.3-2.5,3.1-2.5,14.4c0,13.1,0.8,21.2,2.1,21.2c0.5,0,0.9-3.5,0.9-7.8c0.1-12.1,1.5-22.1,3.5-24.3c2.9-3.2,12.4-1.8,14.5,2.2
	c1.4,2.6,2.8,1.5,2.2-1.7c-0.8-3.9-5.6-6.4-12.5-6.4C935.9,1013,934.5,1013.4,932.5,1015.5 M1026.2,1015.5
	c-2.2,2.8-4.8,11.3-3.8,12.3c0.4,0.4,4,0.7,8.1,0.7c11.9,0,13.4-3.5,4.9-11.4C1030.3,1012.3,1028.9,1012.1,1026.2,1015.5
	 M1273.4,1017.9c-7.2,4.4-12.4,15.1-12.4,25.4c0,8.7,2.1,15,10.1,30.5c11,21.3,9.9,21.4-11.2,1.5c-7.8-7.3-14.3-11.7-19.2-12.8
	c-2.2-0.5-3.3-0.1-5.4,2c-2.4,2.4-2.6,3.1-2.1,9.3c0.6,8.4,3.9,15.2,10.3,21c6.5,6,13.4,8.9,25.2,10.5c12,1.7,16.3,3.6,16.3,7.1
	c0,5.4,9,18.4,12.7,18.4c0.8,0,2.9-1.1,4.6-2.4s5.1-3.3,7.4-4.5c9.6-4.8,9.8-12.8,0.7-23.6c-3.9-4.5-4.1-6.6-1.4-11
	c3-4.8,5-15,5-25.1c0-10-1.1-12.8-5.6-13.9c-6-1.5-8.8,3.7-13.5,24.9c-2.4,11-4.3,16.5-5.8,16.5c-2.8,0-4.1-13.2-2.1-22
	c1.6-7.2,3.1-10.1,5.7-11.1c2.7-1,2.7-1.9-0.3-9.9c-1.2-3.3-1.5-6.2-1.1-10.8c0.5-5.2,0.3-6.5-1.1-7.8c-5.5-4.7-6.2-5.7-6.2-8.3
	c0-3.2-2.7-6.2-5.6-6.2C1277.4,1016,1275.1,1016.9,1273.4,1017.9 M1535.5,1018.9c-0.9,1.5,7.2,7.5,16,11.9
	c18.7,9.3,46.1,19.2,53.4,19.2c3.5,0,4-0.3,4-2.3c0-2.8-5-7.7-10.5-10.5c-5.6-2.8-28.8-10.4-46.2-15.2
	C1536.1,1017.6,1536.4,1017.6,1535.5,1018.9 M1005.6,1043.6c-1,2.5-0.7,24.2,0.3,24.8c1.6,1,2.1-2.4,2.1-14
	C1008,1044,1007.1,1039.8,1005.6,1043.6 M970.7,1050.8c0.2,3.1,0.6,14.3,1,24.7c0.8,21.1,1.5,20.2,3.2-4.2
	c1.4-19.9,1.9-20.6,16-22.8c7-1.1,3.5-2.2-8.9-2.8l-11.6-0.6L970.7,1050.8 M694.7,1050.6c-0.4,0.4-0.7,1.1-0.7,1.5
	c0,1.4,8.3,5.6,14.2,7.3c7.4,2.1,23.9,4.6,30.3,4.6c10.4,0,9.9-4.1-0.9-7.7C727.6,1053,696.4,1048.9,694.7,1050.6 M1061.5,1054.7
	c-11,2.5-18.7,7.3-21.6,13.6c-1.6,3.5-1.9,6.6-1.9,19c0,15.9,1.3,18.9,2.4,5.6c1.3-15.2,4.9-24.5,10.6-27.5c3.9-2,5.9-1.9,12.1,1
	c3,1.3,8.5,2.9,12.2,3.5c6.9,1.1,19.5,0.4,18-1c-0.4-0.4-4.6-1.5-9.3-2.4c-9.9-2-15.4-4.1-14.6-5.5c0.4-0.6,2.4-1.9,4.6-3
	c2.2-1.1,3.9-2.4,3.9-3C1078,1054,1065.5,1053.8,1061.5,1054.7 M985.8,1063.8c-2.3,2.6-3,5.9-2.3,10.3c0.8,4.9,2,5,3.9,0.6
	c0.8-1.9,3-5.2,5-7.4c2-2.2,3.3-4.3,2.9-4.6C993.9,1061.3,987.3,1062,985.8,1063.8 M1550.6,1079.2c2.8,12.8,1.8,18.1-5.1,27.6
	c-3.1,4.2-3.2,10.8-0.5,16.9c1.8,4,24.2,28.2,26.1,28.2c0.4,0-0.8-4.6-2.7-10.2c-4.5-13.3-4.6-17.3-0.5-23.4
	c4.3-6.5,4.4-14.2,0.3-22.9c-2.6-5.5-16.2-22.4-18.1-22.4C1549.6,1073,1549.9,1075.8,1550.6,1079.2 M1054.9,1085.7
	c-1.5,4.1-0.8,13.8,1.1,13.8c2.1,0,5.5-10.3,4.6-13.8C1059.7,1082.1,1056.3,1082,1054.9,1085.7 M1503.5,1085.5
	c-3.2,3.2-3.1,6.4,0.2,12.4l2.7,4.8l-3.2,4.4c-1.8,2.4-3.2,4.9-3.2,5.6c0,0.7,1.2,2.6,2.6,4.3c1.9,2.3,3.4,3.1,5.8,3.1
	c6,0,8.2-5,6.4-14.7c-1.2-6.8-0.3-9.3,3.3-9.3c4.1,0,0.3-7.4-5.7-11.1C1508.3,1082.4,1506.4,1082.5,1503.5,1085.5 M1092.7,1085.7
	c-1,1-0.8,10.6,0.2,12.2c2,3.2,4.2-6.8,2.5-11.3C1094.7,1084.9,1093.8,1084.6,1092.7,1085.7 M984.6,1088.9c-2.1,2.4-1.8,8,0.6,9.5
	c2.3,1.5,6.8-2.7,6.8-6.3C992,1087.1,987.8,1085.4,984.6,1088.9 M1009.7,1088.8c-2.6,2.9-2.1,11.2,0.8,11.2c1.7,0,4.8-7.2,4.4-10.1
	C1014.4,1086.9,1011.9,1086.4,1009.7,1088.8 M923.6,1089.9c-7.4,8.2-2,26.2,16.5,54.8c9.2,14.2,17.4,29.7,19.5,37
	c1.5,5.1,2.2,16,1,17.1c-2,2-6.2-6.1-10-19.7c-4.9-17.6-17.4-39.2-21.8-37.8c-2.9,0.9-3.9,5.2-3.6,14.5c0.3,8.8,0.6,9.7,5.5,19.5
	c6,12,12.2,20.5,22.3,30.6l7.3,7.2l-1.8,2.8c-1,1.5-4.9,5.8-8.7,9.5c-7.6,7.4-12.8,16.7-12.8,22.7c0,5.9-3.1,9.5-10,12.1
	c-3.4,1.2-5.9,2.7-5.7,3.3c0.2,0.6,2.6,1.7,5.3,2.4c11.8,3,18.5-1.8,26.9-19.4c3-6.2,5.6-11.3,5.9-11.3c0.3,0,1.4,3.2,2.6,7
	c2.1,7,4,8.8,5.5,5.2c1.8-4.4,2.7-8.4,3.5-15.9c1.2-10.8,4.9-18.7,18.4-38.8c12-17.7,16.3-25.8,20.2-37.3
	c4.6-13.5,3.3-24.3-2.8-24.3c-2.8,0-9.3,6.4-13.8,13.6c-8.2,12.9-12.7,26-14.1,40.9c-1.1,11.3-3.1,18.4-6,21.1
	c-7.1,6.4-7.1-15.6-0.1-37.1c1.1-3.3,3.6-10.5,5.7-16c6.8-18.4,5.8-34-3.2-47.2c-4-5.9-8.7-9.3-12.9-9.2c-3.4,0-4.7,0.8-6.2,3.7
	c-2,3.9-1.3,9.7,3.9,30c5.4,21.2,7.4,34.9,4.8,34.2c-2.6-0.8-5.9-9.3-9.8-24.9c-5.8-23.1-13.8-39.9-23.1-48.3
	C927.5,1087.5,926,1087.2,923.6,1089.9 M685,1095.9c-1.3,0.9-1.3,1.3,0,3.7c3.2,6,9.9,8.2,28.6,9.4c11.8,0.7,14.1,1.2,19.1,3.7
	c6.6,3.3,8.5,6.2,7,10.5c-1.5,4.4-0.5,10.5,3.5,19.9c5,11.9,8.8,25.4,9,32.6c0.3,7,1.5,9.3,11.5,21.2c13.5,16,13.5,22.2,0,23.5
	c-10.8,1-15.2,5.5-15.1,15.5c0.1,10.6,12.1,30.2,18.5,30.2c3.4,0,5.2-2,7.2-7.9c3.3-9.9,5.8-9.2,11.5,3.4
	c4.8,10.5,6.6,12.6,12.8,14.4c4.8,1.4,11.5,6.9,13.8,11.4c1.2,2.4,1.3,3.4,0.3,5.2c-0.9,1.7-0.9,2.8-0.1,4.3
	c2.5,4.6,12.6,15.8,35.1,38.7c32.1,32.7,37.2,39.5,49,66l6.7,15l13.9,0.3c16,0.4,23.4-0.3,26.1-2.4c1.8-1.4,1.8-1.5-0.5-3.5
	c-2.4-2-3.4-2.3-10.5-3.5c-5.8-0.9-11.5-7.4-24-27c-20-31.3-29.2-42-54.7-63.2c-15.3-12.7-23.7-21.1-26.1-25.9
	c-0.8-1.6-1.8-5.1-2.2-7.7c-0.9-6-4.7-10.5-13.8-16.4c-7.3-4.7-10.7-9.1-10.7-13.8c0-1.7-0.5-4.7-1.1-6.9c-1-3.5-2.1-4.9-8.1-10.1
	c-1.8-1.5-1.9-2.5-1.3-10c0.8-9.8-0.2-12.7-8.5-25c-6.5-9.6-8-13.3-8-19.1c0-5.5-0.9-7.4-6.6-13.8c-4.7-5.3-8.4-13.8-8.4-19.5
	c0-5.7-1.9-11.4-4-11.9c-2.3-0.6-4-4.4-4.1-9.1c0-7.2-2.1-16.7-4.5-20.4c-3.2-4.8-10.7-8.4-21.5-10.3
	C713.9,1095.7,687,1094.5,685,1095.9 M1131.5,1103.5c-38.1,5.4-71.7,22.1-100.4,49.9c-17.7,17.2-29.8,33.8-40.2,55.1
	c-20.8,42.7-24.4,88-10.9,135.2c10.1,35.1,29.5,65.2,57.2,89c30.5,26.1,62,40.1,99.6,44.4c15.7,1.8,47.8,0.7,61.6-2
	c34.2-6.8,62.1-21.6,86.1-45.5c6.7-6.6,13.1-13.5,14.3-15.3l2.2-3.2h-2.8c-1.6,0-9.3,3.2-17.3,7.1c-18.9,9.2-26.2,12.1-39,15.3
	c-20.6,5.1-39.3,5.6-60.1,1.6c-55.9-10.6-99.7-54.2-113.6-113c-3.1-13-4.3-38.2-2.4-51.1c4.8-33.9,19.2-63.2,42.5-86.4
	c36.1-36,84.9-49.8,133.6-37.8c12.7,3.1,20.1,6,39,15.3c8,3.9,15.8,7.1,17.3,7.1h2.8l-2.2-3.2c-1.2-1.8-7.7-8.7-14.3-15.3
	c-24-23.9-51.8-38.6-86.1-45.5C1184.3,1102.1,1147.2,1101.3,1131.5,1103.5 M1020.2,1108c-2.5,1-2.9,3.2-1,4.7
	c0.7,0.6,6.7,1.2,13.2,1.4c10.6,0.3,12.7,0.7,18.2,3.2c3.4,1.6,6.7,2.7,7.3,2.5c2.3-0.8-5-7.7-9.7-9.2
	C1038.5,1107.4,1024.8,1106.2,1020.2,1108 M1595.6,1108.9c-1.1,1.8-2.7,26.6-2.1,31.7c1.2,9.4,4.9,10.3,11.4,2.9
	c3.8-4.3,3.9-7,0.6-11.5c-3-4-3.1-5.9-0.7-9.1c1-1.3,2.1-3.4,2.4-4.7c0.8-3-1-8-3.3-9.2C1601.7,1107.8,1596.3,1107.7,1595.6,1108.9
	 M991.2,1114.2c0.4,1.4,12.5,2.3,16.5,1.3c4.8-1.2,0.8-2.5-7.9-2.5C993.1,1113,990.9,1113.3,991.2,1114.2 M1143,1114
	c-21.7,2.7-41.2,8.5-60.5,18c-18.4,9.1-30.3,17.7-45.5,32.9c-27.7,27.7-42.4,55.6-49.3,93.5c-2.9,16.1-3.1,51.1-0.4,65
	c11.1,56.4,44.5,99.5,96.9,125.3c33.1,16.2,72.5,21.9,109.8,15.7c17.3-2.9,36.3-9.4,39.9-13.9c1.9-2.3,1.4-2.5-4.9-1.6
	c-15.9,2.3-39,0.5-59.2-4.6c-21.5-5.5-41.7-15.6-59.7-30c-25.8-20.7-45.7-55-53.2-91.9c-2.6-12.8-3.7-43-2-56
	c3.5-27,14.2-53.5,28.9-72c11.4-14.3,31-32.2,47-42.8c23.3-15.5,68.3-25.1,98.2-20.7c6.3,0.9,6.8,0.7,4.9-1.6
	c-3.6-4.4-22.4-11-39.9-13.9C1182.7,1113.6,1153.5,1112.8,1143,1114 M1372.2,1122.4c-4.8,5.2-5.3,8.1-1.7,9.7
	c4.9,2.2,9.5-3.8,8.4-11.2C1378.3,1117.3,1376.6,1117.6,1372.2,1122.4 M1385,1128.6c-2.5,6.6-0.1,15.2,5.2,18.4
	c6.7,4.1,18.8,6.8,18.8,4.1c-0.1-4.3-17.7-25.1-21.3-25.1C1386.7,1126,1385.5,1127.2,1385,1128.6 M1527.5,1146.8
	c-1.6,6.5-3,15.9-3.3,20.9c-0.6,11.2,1,16.8,7.2,25.1c5.1,6.8,26.7,30.5,27.3,29.8c0.2-0.2-2.5-6.7-6-14.3
	c-9.8-21-13.8-33.8-18.3-58.1c-1.5-8.4-3.1-15.2-3.5-15.2C1530.6,1135,1529.1,1140.3,1527.5,1146.8 M1364.2,1138.8
	c-1.9,1.2,3.2,7.8,15.8,20.5c6.9,7,11.4,10.7,12.5,10.5c5.8-1.1,2.8-10-4.5-13.5c-5.6-2.7-9-6.6-9-10.3c0-1.5-0.9-4-2.1-5.4
	c-1.7-2.2-2.9-2.6-6.8-2.6C1367.6,1138,1364.9,1138.4,1364.2,1138.8 M711.3,1148.5c-1.2,0.8-3.1,3.1-4.3,5c-2.1,3.4-2.1,3.6-0.4,5.5
	c1,1.1,2.3,2,3,2c0.7,0,2.2,1.2,3.3,2.6c1.7,2.2,1.9,3.5,1.5,8.8c-0.5,5.4-0.3,6.4,1.5,8c3,2.7,9.5,3.3,12.7,1.3
	c3.7-2.4,3.3-6.5-1-11.6c-3.1-3.7-3.5-4.9-3.5-9.7c0-5.1-0.3-5.8-3.9-9.4C715.9,1146.6,714.5,1146.3,711.3,1148.5 M1402.6,1160.6
	c-2,2-2,6.3,0,7.1c2,0.8,8.3-2.1,9.1-4.2C1413.1,1159.7,1405.8,1157.3,1402.6,1160.6 M693.1,1162.8c-4.5,4.2-4.7,6.5-1,10.7
	c4.2,4.8,7.7,4.8,11.8,0c1.7-1.9,3.1-4.2,3.1-5.1c0-2.3-6.5-8.4-8.9-8.4C697,1160,694.7,1161.2,693.1,1162.8 M1501.8,1170.8
	c-3.7,4-10.3,13.2-12.2,16.9c-2.6,5.1-2,14.5,2.3,36.5c3.9,19.9,5.9,34.7,5.3,37.9c-0.4,2.2-5.3,4.1-8.3,3.3
	c-4.6-1.2-6.2-3.4-9.8-13.7c-4-11.3-5.5-12.6-8.3-6.8c-2.4,4.9-3.6,14-4.4,32.5c-0.4,9.2-1.2,17.4-2,19.2c-1,2.5-2.9,4-8.2,6.7
	c-14.9,7.5-16.4,16.2-3.7,22.2c7.6,3.6,8.1,5.6,6.6,26.8c-1.1,15.8-0.9,21.6,1,21.6c0.5,0,3-1.6,5.5-3.6c2.8-2.1,5-3.2,5.6-2.6
	c1,1-1,7.1-6.6,19.7c-1.9,4.4-4.2,11.5-5.1,15.7c-1.7,8.2-2.1,23.8-0.7,23.8c0.5,0,2.3-3.5,4.1-7.8c4-9.6,9.4-19.7,17.8-32.9
	c8.6-13.7,11.3-22.1,11.2-35.6c-0.1-11.3-1.5-17-4.3-17.5c-2.3-0.4-6.1,3-8.9,8.1c-2.9,5.2-5,4.5-6.1-2c-0.9-5.4,1.4-36.7,3.5-46.3
	c1.5-6.8,2.5-7.3,8.8-4.4c6.9,3.2,11.1,3.2,15-0.1c3-2.5,4.3-5.9,8.1-20.6c1.6-6.3,4.2-8.5,10.8-9.1c9.3-0.8,14.2-6.6,14.2-16.9
	c0-7.1-3.2-17.8-6.6-21.8c-3.2-3.8-8.9-5.4-15.8-4.5c-4.5,0.6-5.4,0.4-7.2-1.5c-1.7-1.9-2-3.6-1.9-12.8c0-9.3,0.4-11.8,3.2-19.9
	c1.8-5.1,3.2-10.2,3.2-11.2C1508,1167.1,1504.8,1167.5,1501.8,1170.8 M1364.5,1177.2c0.4,1.2,2.1,4.9,3.8,8.2
	c4.5,8.6,5.6,8.9,26.8,9.3c20.5,0.4,27.3-0.6,31.1-4.6c2.8-2.9,7.2-12,6.3-12.9c-0.9-0.9-28.3-2.2-48.9-2.2l-19.8-0.1L1364.5,1177.2
	 M1276.2,1198.8c-3.2,4.3-10.7,14.6-16.6,22.9c-12,16.9-18.3,24-22.1,25c-1.7,0.4-9.6-1.2-23.3-5c-24.4-6.6-35.1-9.1-35.9-8.3
	c-1.1,1.1,1.9,6.7,10.4,18.9c23.4,33.9,23.7,34.5,22.4,37.5c-0.7,1.5-6.5,10.6-13,20.2c-12.5,18.6-16.5,25.1-17.5,28.8
	c-0.6,2-0.3,2.2,2.1,2.2c3.4,0,14.5-3,34.6-9.3c23.6-7.4,22.1-7.3,27.6-1.8c2.6,2.6,10.6,12.5,17.8,22.2
	c14.7,19.6,17.9,23.2,19.2,21.1c1.7-2.8,2.1-18.4,1-41.4c-0.6-13.1-1-24-0.8-24.1c0.2-0.1,9.5-3.3,20.8-7.1
	c20.4-6.9,36-13.7,36.8-16.2c0.7-2.3-16.4-8.8-49.2-18.7l-8.9-2.7l0.6-9.6c1.4-21.9,2-62.1,0.9-62.1
	C1282.6,1191,1279.5,1194.5,1276.2,1198.8 M1379.7,1219c-4.3,5.1-4.6,14.1-1,27c1.6,5.7,3.7,9,5.9,9c1.3,0,2.5,2.2,2.5,4.8
	c0,3,5,9.2,11,13.6l5.8,4.3l-6.2,0.6c-8.2,0.8-15.9,3.7-24.8,9.6c-12.1,7.9-16.5,14.1-18.4,25.9c-0.8,5.2,0.6,7.3,5.1,7.3
	c4.6,0,6.5-0.9,7.5-3.7c1.1-2.8,4.6-4.3,9.9-4.3c9,0,24.6-10.8,46.2-32.2c16.7-16.5,18.4-19.8,18.3-35.8c-0.1-14-1.7-22-5-26
	c-3.6-4.2-7.6-4.1-11.9,0.6c-4.9,5.2-7.3,14.1-8.6,32c-1.6,22.3-2.6,22.5-7.7,1.7c-3.7-15.2-8-24-15.2-31.4
	C1386.4,1215,1383.5,1214.4,1379.7,1219 M1260.1,1241c-8.7,12.5-15.9,20-19.3,20c-1.1,0-5.4-0.9-9.6-1.9c-8.9-2.2-25.2-5.3-25.7-4.9
	c-0.2,0.2,3.1,4.8,7.2,10.3c7.9,10.4,12.3,18.4,12.3,22.2c0,4.4-3.5,10.8-12.2,22.5c-4.8,6.5-8.6,11.8-8.3,11.8s5.1-1.3,10.7-2.9
	c21-6,28-6.3,34.8-1.5c2,1.4,7.4,7.5,12,13.7l8.4,11.1l0.5-19c0.6-21.3,1-22.8,7.6-25.6c2.1-0.9,8.7-3.5,14.6-5.8
	c5.9-2.3,11-4.6,11.4-5.2c1.1-1.7-2.2-3.5-13.8-7.3c-12-4-16.1-6.8-17.8-11.9c-0.6-1.9-1.9-11.1-2.8-20.5l-1.7-17.1L1260.1,1241
	 M831.3,1232.6c-2.6,4-2.3,11.7,0.7,14.9c5.6,5.9,13.1,0.6,11.4-8.1c-0.7-3.8-5.8-9.4-8.6-9.4C833.8,1230,832.3,1231.2,831.3,1232.6
	 M1361.6,1260.3c-2.9,2.9-3.1,4.4-1.2,8.9c2.8,6.5,10,11.2,15.7,10.1c3.1-0.6,7-4.5,7-7c0-5-8.8-12.9-15.5-14
	C1364.8,1257.9,1363.7,1258.3,1361.6,1260.3 M881.6,1293.1c-1.7,1.4-2.6,3-2.6,4.9c0,3.1,3.9,7,7,7c2.3,0,4.5,2.6,6.9,8.1
	c2.1,4.9,5.3,7.9,8.5,7.9c3.3,0,8.8-3.2,9.8-5.7c1.4-3.6-0.5-6-6.6-8.7c-5.4-2.4-7.5-4.9-8.9-10.6
	C894.5,1291.1,886.3,1289.4,881.6,1293.1 M1419.4,1325.9c-1.7,1-3.7,3.3-4.4,5.1c-1.3,3.1-1.2,3.4,1.1,5.2
	c4.7,3.8,13.9,0.3,13.9-5.4c0-2.2-4.2-6.8-6.2-6.8C1423.1,1324,1421.1,1324.9,1419.4,1325.9 M789.1,1333.9c-1,0.6-0.4,1.6,2.5,3.7
	c5.3,3.9,6.4,5.5,5.9,8c-0.6,2.5,1.6,4.7,6.6,6.8c4.7,2,6.1,3.8,5.3,7c-0.5,2.1-0.3,2.6,1.2,2.7c9.4,0.6,14-4,9.9-9.8
	c-0.8-1.2-3.5-3.3-6-4.8c-5.1-3-6.5-5.1-6.5-9.5c0-2.4-0.6-3.3-2.6-4.1C802.3,1332.8,791,1332.7,789.1,1333.9 M1396.7,1354.7
	c-0.4,0.4-0.7,2.8-0.7,5.4c0,6.4,6.8,19.8,20,39.8c9.8,14.8,13.7,19.1,16.1,17.6c3.9-2.4-3.9-21.6-17.8-43.7
	C1404.1,1357.6,1399.1,1352.2,1396.7,1354.7 M852.2,1405.6c-1.5,1.1-2.2,2.6-2.2,4.9c0,3.9,1,4.9,7,6.9c2.5,0.8,5.4,2.7,6.5,4.1
	c8.9,11.5,13.2,14.2,18,11.1c5.3-3.5,2.1-11.5-6-15.1c-5.4-2.4-8.5-5.5-8.5-8.6c0-2.6-3.9-4.8-8.5-4.8
	C856.3,1404,853.4,1404.7,852.2,1405.6"/>
</svg>
